SplineFontDB: 1.0
FontName: Loma-BoldOblique
FullName: Loma Bold Oblique
FamilyName: Loma
Weight: Bold
Copyright: Copyright (c) NECTEC, 2003. All rights reserved.
Version: 0.9.1; 2003
ItalicAngle: -12
UnderlinePosition: -217
UnderlineWidth: 150
Ascent: 1638
Descent: 410
NeedsXUIDChange: 1
FSType: 0
PfmFamily: 17
TTFWeight: 700
TTFWidth: 5
Panose: 2 11 6 4 2 2 2 2 2 4
LineGap: 0
VLineGap: 0
OS2TypoAscent: 2089
OS2TypoDescent: -430
OS2WinAscent: 2089
OS2WinDescent: 430
ScriptLang: 2
 1 latn 1 dflt 
 1 thai 1 dflt 
TableOrder: GPOS 1
	'kern'
LangName: 1024 "Copyright (c) NECTEC, 2003. All rights reserved." "Loma" "BoldItalic" "Nectec UI" "Loma Bold Italic" "Version 0.1; 2003 " "Loma-Bold-Italic" "SLThaiUI is a trademark of the NECTEC." "" "Mr.Sirichai Lerdvorawut" "" "http://www.opentle.org" "http://www.opentle.org" "GPL" 
LangName: 1033 "" "" "" "Nectec UI - Loma Bold Italic" "" "" "" "SLThaiUI is a trademark of the NECTEC." "" "Mr.Sirichai Lerdvorawut" "" "http://www.opentle.org" "http://www.opentle.org" "GPL" 
Encoding: compacted
OldEncoding: unicode
UnicodeInterp: none
DisplaySize: -24
AntiAlias: 1
FitToEm: 1
WinInfo: 176 16 5
BeginChars: 271 271
StartChar: .notdef
Encoding: 0 -1 0
OldEncoding: 0
Width: 1536
Flags: HW
Fore
256 0 m 1
 528 1280 l 1
 1552 1280 l 1
 1280 0 l 1
 256 0 l 1
294 32 m 1
 1254 32 l 1
 1513 1248 l 1
 553 1248 l 1
 294 32 l 1
EndSplineSet
EndChar
StartChar: exclam
Encoding: 3 33 5
OldEncoding: 33
Width: 569
Flags: HW
Fore
381 999 m 1
 477 1450 l 1
 716 1450 l 1
 620 999 l 1
 442 365 l 1
 290 365 l 1
 381 999 l 1
218 194 m 1
 441 194 l 1
 400 0 l 1
 177 0 l 1
 218 194 l 1
EndSplineSet
EndChar
StartChar: quotedbl
Encoding: 4 34 6
OldEncoding: 34
Width: 727
Flags: HW
Fore
357 947 m 1
 364 1217 l 1
 414 1450 l 1
 644 1450 l 1
 594 1217 l 1
 492 947 l 1
 357 947 l 1
638 947 m 1
 647 1217 l 1
 697 1450 l 1
 927 1450 l 1
 877 1217 l 1
 773 947 l 1
 638 947 l 1
EndSplineSet
EndChar
StartChar: numbersign
Encoding: 5 35 7
OldEncoding: 35
Width: 1139
Flags: HW
Fore
54 -10 m 1
 219 355 l 1
 96 355 l 1
 147 595 l 1
 309 595 l 1
 431 865 l 1
 204 865 l 1
 255 1105 l 1
 512 1105 l 1
 677 1470 l 1
 917 1470 l 1
 752 1105 l 1
 971 1105 l 1
 1136 1470 l 1
 1376 1470 l 1
 1211 1105 l 1
 1347 1105 l 1
 1296 865 l 1
 1121 864 l 1
 998 595 l 1
 1239 595 l 1
 1188 355 l 1
 917 355 l 1
 760 -10 l 1
 513 -10 l 1
 677 355 l 1
 459 355 l 1
 294 -10 l 1
 54 -10 l 1
540 595 m 1
 758 595 l 1
 881 865 l 1
 662 865 l 1
 540 595 l 1
EndSplineSet
EndChar
StartChar: dollar
Encoding: 6 36 8
OldEncoding: 36
Width: 1139
Flags: HW
Fore
454 -37 m 1
 407 -31 365 -21 328 -6 c 0
 189 51 130 167 152 344 c 1
 164 417 l 1
 373 417 l 1
 372 412 371 406 370 400 c 0
 360 355 358 316 364 284 c 0
 375 225 419 181 494 153 c 1
 593 621 l 1
 520 636 460 666 412 710 c 0
 325 789 296 896 325 1031 c 0
 344 1122 382 1199 437 1264 c 0
 520 1361 630 1416 765 1429 c 1
 778 1488 l 1
 980 1488 l 1
 967 1429 l 1
 1176 1405 1264 1279 1231 1050 c 1
 1028 1050 l 1
 1031 1072 1030 1094 1025 1116 c 0
 1013 1179 980 1220 927 1239 c 1
 838 820 l 1
 905 807 961 786 1006 755 c 0
 1121 679 1161 560 1126 397 c 0
 1101 282 1049 184 968 105 c 0
 879 18 775 -28 656 -35 c 1
 638 -118 l 1
 436 -118 l 1
 454 -37 l 1
725 1241 m 1
 715 1239 705 1237 695 1234 c 0
 626 1212 578 1164 550 1091 c 1
 537 1044 l 1
 534 1028 532 1013 532 999 c 0
 528 925 564 872 640 840 c 1
 725 1241 l 1
739 167 m 1
 780 186 l 1
 847 224 891 291 912 386 c 0
 917 413 920 437 919 458 c 1
 915 495 l 1
 902 546 861 580 791 599 c 1
 696 153 l 1
 739 167 l 1
EndSplineSet
EndChar
StartChar: percent
Encoding: 7 37 9
OldEncoding: 37
Width: 1821
Flags: HW
Fore
355 1114 m 0
 378 1219 423 1308 490 1380 c 0
 558 1454 642 1491 742 1491 c 0
 837 1491 907 1458 950 1392 c 0
 995 1323 1005 1227 979 1104 c 0
 953 986 902 890 827 817 c 1
 756 750 673 717 580 717 c 0
 489 717 423 750 381 815 c 0
 336 884 328 984 355 1114 c 0
710 1317 m 0
 673 1317 641 1301 614 1270 c 0
 583 1235 559 1177 542 1096 c 0
 526 1018 527 964 544 933 c 0
 561 902 586 886 619 886 c 0
 654 886 687 902 717 933 c 0
 747 965 771 1023 789 1107 c 0
 805 1184 805 1239 788 1270 c 0
 771 1301 745 1317 710 1317 c 0
1486 1491 m 1
 1763 1491 l 1
 685 -10 l 1
 408 -10 l 1
 1486 1491 l 1
1140 344 m 0
 1162 449 1207 538 1274 610 c 0
 1343 684 1428 721 1529 721 c 0
 1624 721 1693 688 1736 622 c 0
 1782 552 1792 456 1766 334 c 0
 1741 213 1690 117 1613 47 c 0
 1540 -20 1457 -53 1364 -53 c 0
 1271 -53 1204 -20 1164 46 c 0
 1121 117 1113 217 1140 344 c 0
1497 546 m 0
 1458 546 1425 530 1397 499 c 0
 1367 465 1343 408 1326 329 c 0
 1311 254 1312 202 1329 171 c 0
 1346 140 1372 124 1407 124 c 0
 1444 124 1477 140 1508 171 c 0
 1538 202 1562 258 1579 340 c 0
 1595 415 1594 468 1577 499 c 0
 1560 530 1533 546 1497 546 c 0
EndSplineSet
EndChar
StartChar: ampersand
Encoding: 8 38 10
OldEncoding: 38
Width: 1366
Flags: HW
Fore
977 140 m 1
 954 119 928 100 900 83 c 0
 798 19 688 -16 571 -22 c 1
 504 -21 l 1
 375 -12 281 37 221 127 c 1
 168 210 152 302 173 403 c 0
 216 602 354 752 588 852 c 1
 571 879 557 902 547 921 c 0
 510 996 500 1076 519 1163 c 0
 538 1256 590 1334 673 1397 c 0
 757 1460 850 1491 953 1491 c 0
 1030 1491 1095 1471 1146 1431 c 1
 1175 1403 l 1
 1229 1343 1246 1268 1227 1178 c 0
 1226 1171 1224 1163 1221 1156 c 1
 1185 1020 1076 908 894 821 c 1
 1036 522 l 1
 1079 579 1116 648 1149 727 c 1
 1358 649 l 1
 1307 540 1244 442 1170 357 c 1
 1219 270 1279 195 1352 132 c 1
 1158 -67 l 1
 1097 -19 1036 50 977 140 c 1
817 983 m 1
 854 1000 883 1018 904 1035 c 0
 943 1066 970 1112 985 1171 c 1
 986 1172 987 1174 986 1176 c 1
 991 1196 989 1215 982 1232 c 0
 968 1267 941 1285 900 1286 c 0
 875 1286 851 1278 828 1263 c 0
 794 1240 772 1212 762 1177 c 0
 760 1167 l 0
 749 1114 768 1052 817 983 c 1
672 671 m 1
 642 655 616 640 595 626 c 0
 490 559 430 488 414 411 c 0
 402 354 410 301 437 253 c 0
 450 230 470 212 496 201 c 0
 520 190 548 185 579 185 c 0
 616 185 655 192 696 207 c 0
 770 233 828 273 869 326 c 1
 672 671 l 1
EndSplineSet
EndChar
StartChar: quotesingle
Encoding: 9 39 11
OldEncoding: 39
Width: 391
Flags: HW
Fore
308 947 m 1
 320 1221 l 1
 372 1466 l 1
 635 1466 l 1
 583 1221 l 1
 477 947 l 1
 308 947 l 1
EndSplineSet
EndChar
StartChar: parenleft
Encoding: 10 40 12
OldEncoding: 40
Width: 682
Flags: HW
Fore
344 -431 m 1
 245 -260 187 -71 169 135 c 0
 158 268 166 400 193 531 c 0
 245 773 350 999 508 1209 c 0
 573 1294 654 1388 752 1491 c 1
 972 1491 l 1
 846 1332 757 1211 706 1130 c 0
 599 961 522 768 473 549 c 0
 472 542 470 536 469 530 c 0
 401 209 433 -111 564 -431 c 1
 344 -431 l 1
EndSplineSet
EndChar
StartChar: parenright
Encoding: 11 41 13
OldEncoding: 41
Width: 682
Flags: HW
Fore
209 -431 m 1
 -12 -431 l 1
 255 -111 422 209 490 530 c 0
 535 742 543 931 514 1097 c 0
 502 1164 462 1296 395 1491 c 1
 617 1491 l 1
 708 1321 765 1165 788 1022 c 0
 812 871 805 707 768 531 c 0
 715 283 594 36 404 -209 c 0
 343 -288 278 -362 209 -431 c 1
EndSplineSet
EndChar
StartChar: asterisk
Encoding: 12 42 14
OldEncoding: 42
Width: 797
Flags: HW
Fore
314 1176 m 1
 395 1357 l 1
 550 1301 l 1
 562 1296 573 1290 582 1284 c 1
 587 1327 593 1365 600 1399 c 1
 622 1491 l 1
 799 1491 l 1
 774 1349 l 1
 769 1328 762 1305 754 1282 c 1
 797 1302 864 1326 954 1353 c 0
 967 1357 967 1357 977 1360 c 1
 971 1179 l 1
 888 1153 823 1137 777 1131 c 2
 752 1128 l 1
 777 1101 814 1048 863 967 c 2
 866 962 l 1
 692 858 l 1
 665 909 639 970 613 1041 c 1
 569 982 520 924 467 869 c 2
 460 862 l 1
 331 968 l 1
 424 1059 485 1115 512 1136 c 1
 350 1167 l 2
 314 1176 l 1
EndSplineSet
EndChar
StartChar: plus
Encoding: 13 43 15
OldEncoding: 43
Width: 1196
Flags: HW
Fore
533 237 m 1
 612 611 l 1
 243 611 l 1
 291 837 l 1
 660 837 l 1
 739 1206 l 1
 969 1206 l 1
 890 837 l 1
 1259 837 l 1
 1211 611 l 1
 842 611 l 1
 763 237 l 1
 533 237 l 1
EndSplineSet
EndChar
StartChar: comma
Encoding: 14 44 16
OldEncoding: 44
Width: 569
Flags: HW
Fore
117 -22 m 1
 171 231 l 1
 468 231 l 1
 414 -22 l 1
 391 -127 352 -201 296 -246 c 0
 273 -265 243 -283 204 -300 c 1
 67 -207 l 1
 128 -182 175 -143 210 -88 c 0
 223 -67 233 -45 239 -22 c 1
 117 -22 l 1
EndSplineSet
EndChar
StartChar: hyphen
Encoding: 15 45 17
OldEncoding: 45
Width: 682
Flags: HW
Fore
147 388 m 1
 204 654 l 1
 757 654 l 1
 700 388 l 1
 147 388 l 1
EndSplineSet
EndChar
StartChar: period
Encoding: 16 46 18
OldEncoding: 46
Width: 569
Flags: HW
Fore
154 0 m 1
 200 220 l 1
 476 220 l 1
 430 0 l 1
 154 0 l 1
EndSplineSet
EndChar
StartChar: slash
Encoding: 17 47 19
OldEncoding: 47
Width: 595
Flags: HW
Fore
-112 -10 m 1
 789 1470 l 1
 1028 1470 l 1
 127 -10 l 1
 -112 -10 l 1
EndSplineSet
EndChar
StartChar: zero
Encoding: 18 48 20
OldEncoding: 48
Width: 1139
Flags: HW
Fore
242 736 m 0
 274 886 314 1012 363 1115 c 0
 479 1360 651 1482 878 1482 c 0
 913 1482 945 1479 974 1473 c 0
 1216 1424 1290 1178 1196 736 c 0
 1162 575 1118 442 1064 337 c 0
 949 114 781 -1 560 -10 c 0
 547 -10 535 -10 524 -9 c 0
 235 10 141 259 242 736 c 0
496 735 m 0
 428 416 467 257 614 257 c 0
 628 258 642 259 656 262 c 0
 783 291 876 449 937 735 c 0
 943 765 948 794 953 821 c 0
 995 1082 949 1213 816 1213 c 0
 770 1213 729 1199 692 1171 c 0
 609 1108 544 962 496 735 c 0
EndSplineSet
EndChar
StartChar: one
Encoding: 19 49 21
OldEncoding: 49
Width: 1139
Flags: HW
Fore
763 0 m 1
 525 0 l 1
 747 1045 l 1
 659 964 568 904 473 867 c 0
 448 857 425 849 402 844 c 1
 457 1104 l 1
 557 1147 635 1196 691 1253 c 0
 745 1308 794 1381 837 1472 c 1
 1075 1472 l 1
 763 0 l 1
EndSplineSet
KernsSLIF: 19 -152 0 0
EndChar
StartChar: two
Encoding: 20 50 22
OldEncoding: 50
Width: 1139
Flags: HW
Fore
1078 223 m 1
 1031 0 l 1
 62 0 l 1
 95 112 159 223 255 332 c 0
 292 375 332 415 375 450 c 0
 414 482 517 559 684 682 c 0
 737 721 771 746 786 759 c 0
 895 850 966 932 999 1004 c 0
 1009 1027 1017 1050 1022 1074 c 0
 1022 1075 1022 1077 1023 1079 c 0
 1036 1146 1013 1198 955 1237 c 0
 920 1260 881 1272 838 1273 c 1
 795 1269 l 1
 722 1257 663 1225 618 1172 c 1
 593 1139 l 1
 574 1110 560 1076 551 1039 c 1
 316 1039 l 1
 345 1176 415 1285 524 1367 c 0
 627 1444 748 1482 887 1482 c 0
 1028 1482 1133 1443 1200 1365 c 0
 1263 1292 1282 1195 1257 1075 c 0
 1235 972 1169 861 1058 742 c 0
 1041 724 1041 724 1022 705 c 0
 975 658 894 592 779 509 c 0
 659 423 577 361 532 323 c 0
 491 288 457 255 429 223 c 1
 1078 223 l 1
EndSplineSet
EndChar
StartChar: three
Encoding: 21 51 23
OldEncoding: 51
Width: 1139
Flags: HW
Fore
176 427 m 1
 406 427 l 1
 401 356 420 299 465 256 c 0
 500 223 544 206 596 206 c 0
 686 206 761 237 821 298 c 0
 861 339 887 388 899 445 c 0
 914 513 896 569 845 613 c 0
 802 650 746 668 678 668 c 0
 645 668 613 663 580 654 c 1
 628 882 l 1
 703 883 l 1
 821 891 901 935 943 1016 c 0
 957 1041 967 1071 974 1105 c 0
 984 1150 970 1189 931 1224 c 0
 898 1253 860 1268 818 1268 c 0
 743 1268 679 1242 628 1189 c 1
 603 1158 l 1
 585 1133 571 1103 560 1070 c 1
 331 1070 l 1
 354 1177 411 1270 502 1348 c 0
 595 1427 700 1471 817 1480 c 0
 832 1481 846 1482 860 1482 c 0
 979 1482 1072 1448 1138 1381 c 0
 1209 1310 1232 1216 1208 1101 c 0
 1183 984 1140 901 1081 850 c 1
 1049 827 l 1
 1028 814 1005 803 980 794 c 1
 1090 775 1149 712 1156 606 c 1
 1156 548 l 1
 1153 518 1148 485 1141 449 c 0
 1114 321 1047 214 942 129 c 0
 839 46 722 -0 590 -9 c 0
 576 -10 562 -10 549 -10 c 0
 429 -10 333 26 260 98 c 1
 187 171 157 265 168 379 c 0
 170 395 173 411 176 427 c 1
EndSplineSet
EndChar
StartChar: four
Encoding: 22 52 24
OldEncoding: 52
Width: 1139
Flags: HW
Fore
662 0 m 1
 731 327 l 1
 125 327 l 1
 173 552 l 1
 974 1472 l 1
 1204 1472 l 1
 1009 552 l 1
 1187 552 l 1
 1139 327 l 1
 961 327 l 1
 892 0 l 1
 662 0 l 1
779 552 m 1
 890 1077 l 1
 438 552 l 1
 779 552 l 1
EndSplineSet
EndChar
StartChar: five
Encoding: 23 53 25
OldEncoding: 53
Width: 1139
Flags: HW
Fore
173 415 m 1
 418 415 l 1
 403 315 433 250 509 220 c 0
 536 209 566 204 599 204 c 0
 682 204 753 234 813 294 c 0
 864 345 901 412 922 496 c 1
 931 550 l 1
 942 645 915 711 848 748 c 0
 814 767 771 777 718 777 c 1
 667 774 l 1
 608 765 552 736 500 686 c 1
 267 708 l 1
 571 1472 l 1
 1300 1472 l 1
 1252 1244 l 1
 737 1244 l 1
 603 940 l 1
 660 973 707 994 743 1001 c 0
 762 1005 783 1007 805 1007 c 0
 946 1005 1050 957 1115 863 c 0
 1179 772 1196 655 1165 512 c 0
 1134 365 1066 243 961 147 c 0
 851 47 721 -5 572 -10 c 0
 563 -10 563 -10 553 -10 c 0
 389 -10 276 44 215 152 c 0
 175 222 161 310 173 415 c 1
EndSplineSet
EndChar
StartChar: six
Encoding: 24 54 26
OldEncoding: 54
Width: 1139
Flags: HW
Fore
1253 1103 m 1
 1041 1104 l 1
 1035 1175 1003 1221 944 1244 c 0
 921 1253 896 1257 867 1257 c 0
 694 1257 573 1133 504 885 c 0
 502 876 500 867 497 858 c 1
 578 937 678 977 796 977 c 0
 798 977 798 977 801 977 c 0
 924 976 1018 932 1084 846 c 1
 1111 806 l 1
 1151 735 1167 652 1159 559 c 0
 1157 532 1153 506 1147 479 c 0
 1118 342 1054 228 955 137 c 0
 853 43 734 -6 599 -10 c 0
 583 -10 l 0
 354 -10 225 103 198 329 c 0
 185 432 195 556 226 701 c 0
 312 1108 473 1356 710 1446 c 0
 774 1470 843 1482 918 1482 c 0
 1032 1482 1121 1449 1185 1383 c 0
 1198 1370 1210 1355 1220 1339 c 0
 1261 1273 1272 1194 1253 1103 c 1
454 489 m 0
 433 388 444 310 488 257 c 0
 520 219 566 200 627 200 c 0
 714 200 787 237 844 310 c 0
 881 357 906 414 921 481 c 0
 942 584 929 661 880 712 c 1
 855 733 l 1
 825 754 787 764 741 764 c 0
 654 764 582 727 526 653 c 0
 492 608 468 553 454 489 c 0
EndSplineSet
EndChar
StartChar: seven
Encoding: 25 55 27
OldEncoding: 55
Width: 1139
Flags: HW
Fore
359 1233 m 1
 409 1472 l 1
 1358 1472 l 1
 1308 1233 l 1
 1234 1170 1146 1083 1045 973 c 0
 939 858 865 764 822 692 c 0
 685 460 593 272 546 129 c 0
 531 84 520 41 511 0 c 1
 253 0 l 1
 306 243 425 502 610 776 c 0
 683 884 807 1025 981 1198 c 0
 1000 1217 1000 1217 1017 1233 c 1
 359 1233 l 1
EndSplineSet
EndChar
StartChar: eight
Encoding: 26 56 28
OldEncoding: 56
Width: 1139
Flags: HW
Fore
533 805 m 1
 398 859 345 959 376 1104 c 0
 401 1223 464 1318 565 1388 c 0
 655 1451 759 1482 878 1482 c 0
 1005 1482 1100 1446 1165 1374 c 1
 1189 1342 l 1
 1231 1275 1242 1194 1222 1099 c 0
 1199 988 1131 902 1019 841 c 0
 996 828 971 816 944 805 c 1
 1049 768 1114 710 1138 629 c 0
 1153 577 1154 512 1141 434 c 1
 1127 380 l 1
 1095 279 1028 191 927 116 c 0
 828 43 721 1 607 -8 c 0
 592 -9 577 -10 563 -10 c 0
 420 -10 313 31 242 113 c 1
 170 194 148 301 175 434 c 2
 176 439 l 2
 207 584 283 689 404 756 c 0
 443 777 486 794 533 805 c 1
604 1107 m 0
 589 1030 607 975 659 943 c 0
 686 926 721 918 762 918 c 0
 833 918 891 942 937 990 c 0
 966 1021 985 1057 994 1099 c 0
 1009 1166 993 1217 948 1251 c 0
 919 1273 882 1284 837 1284 c 0
 772 1284 715 1262 668 1218 c 0
 634 1187 613 1150 604 1107 c 0
414 437 m 0
 397 358 413 295 462 250 c 0
 499 216 548 199 610 199 c 0
 698 199 771 228 828 287 c 0
 866 326 891 375 904 433 c 0
 923 523 899 586 834 623 c 0
 799 642 755 651 701 651 c 0
 602 651 526 620 472 557 c 1
 449 525 l 1
 433 499 421 470 414 437 c 0
EndSplineSet
EndChar
StartChar: nine
Encoding: 27 57 29
OldEncoding: 57
Width: 1139
Flags: HW
Fore
217 369 m 1
 432 369 l 1
 424 294 457 247 532 228 c 0
 555 222 582 219 612 219 c 0
 717 219 796 257 849 332 c 0
 886 383 919 466 948 579 c 1
 901 541 852 517 800 506 c 0
 765 499 721 495 669 495 c 0
 548 495 454 536 387 619 c 0
 320 701 296 806 313 934 c 0
 315 949 318 965 321 981 c 0
 350 1120 414 1236 512 1329 c 0
 613 1424 729 1475 861 1481 c 0
 870 1482 878 1482 887 1482 c 0
 1110 1482 1237 1375 1269 1160 c 0
 1285 1054 1277 924 1244 771 c 0
 1158 364 997 116 760 26 c 0
 696 2 627 -10 552 -10 c 0
 438 -10 349 23 284 89 c 0
 215 160 193 254 217 369 c 1
1008 982 m 0
 1029 1081 1018 1155 974 1205 c 1
 951 1226 l 1
 923 1247 888 1257 846 1257 c 0
 763 1257 694 1222 639 1152 c 0
 604 1107 580 1054 567 991 c 0
 546 892 559 818 608 769 c 0
 639 738 682 722 737 722 c 0
 820 722 888 757 940 828 c 1
 973 871 995 922 1008 982 c 0
EndSplineSet
EndChar
StartChar: colon
Encoding: 28 58 30
OldEncoding: 58
Width: 569
Flags: HW
Fore
336 832 m 1
 385 1062 l 1
 640 1062 l 1
 591 832 l 1
 336 832 l 1
160 0 m 1
 208 230 l 1
 463 230 l 1
 415 0 l 1
 160 0 l 1
EndSplineSet
EndChar
StartChar: semicolon
Encoding: 29 59 31
OldEncoding: 59
Width: 569
Flags: HW
Fore
333 832 m 1
 382 1062 l 1
 637 1062 l 1
 588 832 l 1
 333 832 l 1
157 0 m 1
 200 205 l 1
 455 205 l 1
 412 0 l 1
 377 -163 308 -262 206 -297 c 1
 99 -213 l 1
 162 -188 207 -140 235 -71 c 0
 244 -50 252 -27 259 0 c 1
 157 0 l 1
EndSplineSet
EndChar
StartChar: less
Encoding: 30 60 32
OldEncoding: 60
Width: 1196
Flags: HW
Fore
248 641 m 1
 283 809 l 1
 1342 1219 l 1
 1293 990 l 1
 576 724 l 1
 1179 455 l 1
 1131 226 l 1
 248 641 l 1
EndSplineSet
EndChar
StartChar: equal
Encoding: 31 61 33
OldEncoding: 61
Width: 1196
Flags: HW
Fore
1254 812 m 1
 286 812 l 1
 332 1030 l 1
 1300 1030 l 1
 1254 812 l 1
1170 417 m 1
 202 417 l 1
 248 635 l 1
 1216 635 l 1
 1170 417 l 1
EndSplineSet
EndChar
StartChar: greater
Encoding: 32 62 34
OldEncoding: 62
Width: 1196
Flags: HW
Fore
1219 641 m 1
 160 226 l 1
 208 455 l 1
 903 724 l 1
 322 990 l 1
 371 1219 l 1
 1254 809 l 1
 1219 641 l 1
EndSplineSet
EndChar
StartChar: question
Encoding: 33 63 35
OldEncoding: 63
Width: 1139
Flags: HW
Fore
508 361 m 1
 536 478 575 569 624 635 c 0
 646 664 672 692 701 719 c 0
 708 726 744 754 809 803 c 0
 910 881 977 950 1012 1009 c 0
 1027 1036 1038 1062 1044 1088 c 0
 1061 1170 1035 1229 966 1264 c 0
 931 1282 889 1291 842 1291 c 0
 776 1291 714 1264 655 1211 c 1
 623 1177 l 1
 592 1138 l 1
 573 1110 558 1079 546 1046 c 1
 312 1046 l 1
 349 1183 419 1293 524 1377 c 0
 629 1462 749 1504 884 1504 c 0
 1015 1504 1116 1469 1189 1398 c 0
 1268 1321 1293 1216 1266 1084 c 0
 1262 1066 1257 1048 1250 1030 c 0
 1221 953 1158 870 1061 782 c 1
 938 676 l 1
 849 597 789 506 760 401 c 0
 756 388 753 374 750 361 c 1
 508 361 l 1
421 0 m 1
 470 235 l 1
 744 235 l 1
 695 0 l 1
 421 0 l 1
EndSplineSet
EndChar
StartChar: at
Encoding: 34 64 36
OldEncoding: 64
Width: 2079
Flags: HW
Fore
1186 121 m 1
 1097 38 986 -3 853 -3 c 0
 745 -3 668 44 623 138 c 1
 580 225 572 332 599 461 c 0
 628 599 693 726 793 842 c 0
 885 948 986 1020 1096 1058 c 0
 1145 1075 1194 1084 1241 1084 c 0
 1337 1084 1406 1057 1448 1002 c 0
 1461 986 1470 968 1475 949 c 0
 1476 945 1476 941 1477 938 c 1
 1541 1079 l 1
 1755 1079 l 1
 1460 379 l 1
 1412 285 l 1
 1409 268 l 1
 1410 258 1414 248 1422 238 c 0
 1433 225 1449 219 1468 219 c 0
 1551 219 1634 268 1718 367 c 0
 1788 450 1840 543 1874 647 c 1
 1891 711 l 1
 1891 713 1891 715 1892 716 c 0
 1924 885 1888 1020 1784 1122 c 0
 1688 1217 1550 1269 1371 1279 c 0
 1368 1279 1368 1279 1364 1279 c 2
 1286 1279 l 1
 1097 1268 928 1194 779 1056 c 0
 776 1053 773 1051 770 1048 c 0
 590 877 478 690 435 485 c 0
 394 292 414 132 495 7 c 0
 513 -21 534 -46 557 -68 c 0
 645 -151 760 -202 903 -221 c 0
 952 -228 1008 -231 1070 -231 c 0
 1218 -231 1339 -213 1433 -177 c 0
 1514 -146 1612 -87 1727 0 c 0
 1734 6 1743 12 1752 19 c 1
 2009 19 l 1
 1916 -113 1787 -219 1622 -300 c 0
 1442 -387 1245 -431 1031 -431 c 0
 739 -431 519 -361 370 -222 c 0
 237 -97 175 68 184 273 c 0
 187 334 195 399 210 469 c 0
 260 705 364 911 522 1087 c 0
 695 1280 902 1405 1141 1462 c 0
 1231 1483 1324 1493 1419 1493 c 0
 1625 1493 1792 1441 1921 1336 c 0
 1986 1283 2035 1220 2070 1147 c 0
 2129 1022 2142 877 2107 713 c 0
 2078 574 2011 438 1908 305 c 0
 1810 178 1701 86 1581 27 c 0
 1500 -13 1422 -33 1346 -33 c 0
 1300 -33 1264 -26 1239 -12 c 0
 1214 2 1197 22 1190 48 c 0
 1184 67 1183 91 1186 121 c 1
956 238 m 0
 1037 238 1114 279 1186 361 c 0
 1243 426 1284 500 1309 583 c 1
 1324 643 l 1
 1343 738 1325 801 1270 831 c 0
 1249 843 1224 849 1193 849 c 0
 1106 849 1026 801 951 704 c 0
 929 675 909 642 890 607 c 0
 867 564 851 520 841 474 c 0
 822 385 830 319 865 276 c 0
 886 251 917 238 956 238 c 0
EndSplineSet
EndChar
StartChar: A
Encoding: 35 65 37
OldEncoding: 65
Width: 1366
Flags: HW
Fore
867 1450 m 1
 1076 1450 l 1
 1368 0 l 1
 1079 0 l 1
 970 433 l 1
 554 433 l 1
 273 0 l 1
 -2 0 l 1
 867 1450 l 1
976 673 m 1
 894 1109 l 1
 648 673 l 1
 976 673 l 1
EndSplineSet
KernsSLIF: 91 -37 0 0 89 -37 0 0 88 -37 0 0 59 -152 0 0 57 -76 0 0 56 -152 0 0 54 -152 0 0
EndChar
StartChar: B
Encoding: 36 66 38
OldEncoding: 66
Width: 1366
Flags: HW
Fore
164 0 m 1
 298 633 l 1
 472 1450 l 1
 1008 1450 l 2
 1120 1450 1207 1435 1268 1406 c 0
 1339 1371 1387 1317 1410 1243 c 0
 1426 1192 1428 1138 1415 1079 c 0
 1384 934 1312 834 1197 778 c 0
 1192 776 1188 774 1185 772 c 1
 1332 726 1386 609 1346 421 c 0
 1326 326 1279 240 1206 164 c 0
 1145 101 1067 56 972 29 c 1
 965 28 958 26 951 24 c 0
 883 8 802 0 709 0 c 2
 164 0 l 1
562 842 m 1
 839 842 l 2
 930 842 999 852 1047 871 c 0
 1056 875 1064 879 1069 884 c 0
 1107 913 1134 943 1150 972 c 0
 1163 995 1172 1023 1179 1056 c 0
 1194 1128 1180 1177 1137 1204 c 0
 1108 1222 1029 1231 898 1231 c 2
 645 1231 l 1
 562 842 l 1
430 220 m 1
 755 220 l 2
 868 220 948 232 993 257 c 0
 1009 267 l 0
 1044 292 1070 321 1085 355 c 0
 1093 374 1100 396 1105 421 c 0
 1120 490 1114 538 1088 567 c 2
 1076 579 l 1
 1041 608 986 624 909 627 c 1
 816 629 l 1
 517 629 l 1
 430 220 l 1
EndSplineSet
EndChar
StartChar: C
Encoding: 37 67 39
OldEncoding: 67
Width: 1479
Flags: HW
Fore
1270 480 m 1
 1500 480 l 1
 1401 269 1263 126 1087 49 c 0
 995 10 895 -10 788 -10 c 0
 558 -10 398 67 308 221 c 0
 232 352 215 522 257 731 c 0
 258 736 259 740 260 745 c 0
 302 944 391 1110 527 1241 c 0
 658 1368 813 1444 991 1469 c 0
 1029 1474 1068 1477 1107 1477 c 0
 1307 1477 1448 1409 1529 1274 c 1
 1554 1226 l 1
 1577 1174 1591 1115 1596 1050 c 1
 1366 1050 l 1
 1357 1134 1311 1193 1229 1228 c 0
 1182 1247 1124 1257 1057 1257 c 0
 910 1257 785 1205 682 1101 c 0
 590 1009 529 891 498 746 c 0
 467 598 480 474 538 373 c 0
 592 280 674 226 784 213 c 0
 799 211 815 210 832 210 c 0
 931 210 1025 239 1113 296 c 0
 1193 348 1245 409 1270 480 c 1
EndSplineSet
EndChar
StartChar: D
Encoding: 38 68 40
OldEncoding: 68
Width: 1479
Flags: HW
Fore
168 0 m 1
 476 1450 l 1
 981 1450 l 2
 1307 1450 1496 1340 1548 1120 c 0
 1573 1017 1568 888 1535 733 c 0
 1466 410 1317 193 1088 82 c 0
 975 27 845 -0 697 0 c 2
 168 0 l 1
435 213 m 1
 720 213 l 2
 866 213 992 262 1097 359 c 0
 1198 452 1265 578 1299 736 c 1
 1312 816 l 1
 1333 999 1282 1124 1158 1189 c 0
 1097 1221 1022 1237 932 1237 c 2
 652 1237 l 1
 435 213 l 1
EndSplineSet
EndChar
StartChar: E
Encoding: 39 69 41
OldEncoding: 69
Width: 1366
Flags: HW
Fore
162 0 m 1
 470 1450 l 1
 1530 1450 l 1
 1480 1218 l 1
 659 1218 l 1
 581 851 l 1
 1201 851 l 1
 1152 621 l 1
 532 621 l 1
 449 229 l 1
 1270 229 l 1
 1222 0 l 1
 162 0 l 1
EndSplineSet
EndChar
StartChar: F
Encoding: 40 70 42
OldEncoding: 70
Width: 1251
Flags: HW
Fore
167 0 m 1
 475 1450 l 1
 1466 1450 l 1
 1416 1218 l 1
 664 1218 l 1
 586 851 l 1
 1188 851 l 1
 1139 621 l 1
 537 621 l 1
 406 0 l 1
 167 0 l 1
EndSplineSet
KernsSLIF: 35 -113 0 0 16 -227 0 0 14 -227 0 0
EndChar
StartChar: G
Encoding: 41 71 43
OldEncoding: 71
Width: 1479
Flags: HW
Fore
1549 684 m 1
 1547 671 1544 657 1541 644 c 1
 1520 546 l 1
 1420 175 1176 -10 788 -10 c 0
 776 -10 765 -10 754 -9 c 0
 537 -1 387 80 303 233 c 0
 230 367 216 538 260 745 c 0
 269 785 279 824 292 862 c 0
 353 1045 455 1191 596 1302 c 0
 745 1419 916 1477 1107 1477 c 0
 1223 1477 1320 1454 1398 1407 c 0
 1517 1335 1583 1216 1596 1050 c 1
 1338 1050 l 1
 1334 1074 1326 1097 1313 1118 c 1
 1292 1146 l 1
 1239 1206 1159 1236 1052 1236 c 0
 1038 1236 1024 1235 1010 1234 c 0
 895 1224 791 1177 697 1093 c 0
 593 1001 526 885 497 746 c 0
 494 733 492 720 490 707 c 0
 467 568 485 452 543 360 c 0
 605 260 701 210 832 210 c 0
 921 210 1003 226 1076 259 c 0
 1163 299 1221 354 1250 425 c 1
 1262 464 l 1
 1003 464 l 1
 1050 684 l 1
 1549 684 l 1
EndSplineSet
EndChar
StartChar: H
Encoding: 42 72 44
OldEncoding: 72
Width: 1479
Flags: HW
Fore
164 0 m 1
 472 1450 l 1
 712 1450 l 1
 587 863 l 1
 1257 863 l 1
 1382 1450 l 1
 1622 1450 l 1
 1314 0 l 1
 1074 0 l 1
 1205 619 l 1
 535 619 l 1
 404 0 l 1
 164 0 l 1
EndSplineSet
EndChar
StartChar: I
Encoding: 43 73 45
OldEncoding: 73
Width: 650
Flags: HW
Fore
669 210 m 1
 625 0 l 1
 25 0 l 1
 69 210 l 1
 249 210 l 1
 470 1250 l 1
 290 1250 l 1
 333 1450 l 1
 933 1450 l 1
 890 1250 l 1
 710 1250 l 1
 489 210 l 1
 669 210 l 1
EndSplineSet
EndChar
StartChar: J
Encoding: 44 74 46
OldEncoding: 74
Width: 1024
Flags: HW
Fore
1173 1450 m 1
 961 456 l 1
 934 329 895 233 844 168 c 0
 833 155 822 142 810 129 c 0
 719 36 602 -10 460 -10 c 0
 332 -10 243 24 192 92 c 0
 149 149 134 237 146 358 c 0
 149 390 153 422 160 455 c 1
 397 455 l 1
 379 352 392 280 437 241 c 0
 457 224 482 215 513 215 c 0
 574 215 627 245 674 306 c 0
 707 351 731 406 745 471 c 2
 907 1235 l 1
 670 1235 l 1
 716 1450 l 1
 1173 1450 l 1
EndSplineSet
EndChar
StartChar: K
Encoding: 45 75 47
OldEncoding: 75
Width: 1366
Flags: HW
Fore
150 0 m 1
 458 1450 l 1
 684 1450 l 1
 551 825 l 1
 1330 1450 l 1
 1624 1450 l 1
 830 806 l 1
 1346 0 l 1
 1052 -1 l 1
 608 610 l 1
 482 499 l 1
 376 0 l 1
 150 0 l 1
EndSplineSet
EndChar
StartChar: L
Encoding: 46 76 48
OldEncoding: 76
Width: 1139
Flags: HW
Fore
150 0 m 1
 458 1450 l 1
 688 1450 l 1
 426 219 l 1
 1106 219 l 1
 1060 0 l 1
 150 0 l 1
EndSplineSet
KernsSLIF: 91 -76 0 0 59 -152 0 0 57 -152 0 0 56 -152 0 0 54 -152 0 0
EndChar
StartChar: M
Encoding: 47 77 49
OldEncoding: 77
Width: 1706
Flags: HW
Fore
152 0 m 1
 460 1450 l 1
 668 1450 l 1
 893 202 l 1
 1648 1450 l 1
 1858 1450 l 1
 1550 0 l 1
 1330 0 l 1
 1491 762 l 1
 1026 0 l 1
 676 0 l 1
 533 762 l 1
 372 0 l 1
 152 0 l 1
EndSplineSet
EndChar
StartChar: N
Encoding: 48 78 50
OldEncoding: 78
Width: 1479
Flags: HW
Fore
156 0 m 1
 464 1450 l 1
 703 1450 l 1
 1171 471 l 1
 1379 1450 l 1
 1619 1450 l 1
 1311 0 l 1
 1071 0 l 1
 602 975 l 1
 395 0 l 1
 156 0 l 1
EndSplineSet
EndChar
StartChar: O
Encoding: 49 79 51
OldEncoding: 79
Width: 1593
Flags: HW
Fore
255 714 m 0
 306 955 410 1144 567 1280 c 0
 717 1410 900 1476 1115 1478 c 1
 1320 1478 1471 1415 1568 1290 c 0
 1664 1166 1695 999 1662 788 c 0
 1659 769 1655 750 1651 731 c 0
 1606 522 1515 351 1378 218 c 1
 1235 82 1064 7 864 -8 c 0
 841 -9 819 -10 797 -10 c 0
 607 -10 462 46 361 159 c 0
 262 269 221 416 238 601 c 0
 241 638 247 675 255 714 c 0
501 712 m 0
 464 541 485 412 564 325 c 0
 626 255 720 220 846 220 c 0
 1021 220 1160 284 1264 413 c 0
 1332 497 1380 603 1407 731 c 0
 1446 914 1425 1051 1345 1142 c 0
 1283 1211 1190 1246 1067 1246 c 0
 842 1246 679 1145 578 942 c 0
 545 875 519 799 501 712 c 0
EndSplineSet
EndChar
StartChar: P
Encoding: 50 80 52
OldEncoding: 80
Width: 1366
Flags: HW
Fore
158 0 m 1
 466 1450 l 1
 1019 1450 l 2
 1264 1450 1417 1395 1477 1285 c 0
 1489 1263 1497 1239 1502 1212 c 0
 1513 1160 1510 1098 1495 1026 c 0
 1446 799 1307 658 1078 604 c 0
 1010 588 934 580 851 580 c 2
 525 580 l 1
 402 0 l 1
 158 0 l 1
570 792 m 1
 845 792 l 2
 1011 792 1124 828 1184 900 c 0
 1211 931 1229 971 1239 1020 c 0
 1258 1109 1233 1170 1164 1202 c 0
 1115 1225 1038 1236 935 1236 c 2
 664 1236 l 1
 570 792 l 1
EndSplineSet
KernsSLIF: 35 -152 0 0 16 -264 0 0 14 -264 0 0
EndChar
StartChar: Q
Encoding: 51 81 53
OldEncoding: 81
Width: 1659
Flags: HW
Fore
1250 392 m 1
 1322 461 1375 564 1410 699 c 0
 1414 717 1414 717 1418 736 c 0
 1457 919 1435 1055 1353 1146 c 0
 1290 1216 1194 1251 1067 1251 c 0
 836 1251 670 1150 568 947 c 0
 534 881 508 804 489 717 c 0
 452 541 477 409 565 322 c 0
 581 306 599 292 619 280 c 1
 655 355 714 413 797 454 c 0
 838 475 881 489 925 496 c 0
 950 501 975 503 1000 503 c 0
 1090 503 1163 477 1220 425 c 1
 1232 415 1242 404 1250 392 c 1
1360 204 m 1
 1373 185 1396 176 1429 175 c 0
 1443 175 1458 177 1473 181 c 0
 1514 190 1550 206 1581 228 c 1
 1678 90 l 1
 1589 21 1495 -14 1396 -14 c 0
 1317 -14 1254 7 1205 50 c 1
 1192 62 1182 75 1174 88 c 1
 1085 36 994 5 902 -5 c 0
 871 -8 836 -10 797 -10 c 0
 607 -10 462 46 361 159 c 0
 262 269 221 416 238 601 c 0
 241 638 247 675 255 714 c 0
 306 955 410 1144 567 1280 c 0
 717 1410 900 1476 1115 1478 c 1
 1317 1478 1467 1416 1564 1292 c 0
 1660 1171 1693 1009 1664 806 c 0
 1661 781 1656 756 1651 731 c 0
 1596 474 1499 299 1360 204 c 1
1098 226 m 1
 1068 273 1028 297 977 298 c 0
 965 298 952 297 938 294 c 0
 865 281 811 241 774 174 c 1
 797 167 824 164 855 164 c 0
 928 164 996 178 1060 206 c 0
 1075 213 1087 219 1098 226 c 1
EndSplineSet
EndChar
StartChar: R
Encoding: 52 82 54
OldEncoding: 82
Width: 1400
Flags: HW
Fore
786 580 m 1
 507 580 l 1
 384 0 l 1
 158 0 l 1
 466 1450 l 1
 1019 1450 l 2
 1278 1450 1434 1387 1486 1262 c 0
 1512 1201 1515 1122 1495 1026 c 0
 1464 879 1391 766 1276 687 c 0
 1210 642 1135 611 1050 596 c 1
 1387 0 l 1
 1072 0 l 1
 786 580 l 1
551 786 m 1
 832 786 l 2
 1006 786 1123 828 1182 912 c 0
 1203 942 1218 978 1227 1020 c 0
 1248 1118 1216 1182 1129 1213 c 0
 1081 1230 1013 1239 924 1239 c 2
 647 1239 l 1
 551 786 l 1
EndSplineSet
KernsSLIF: 59 -37 0 0 57 -37 0 0 56 -37 0 0 54 -37 0 0
EndChar
StartChar: S
Encoding: 53 83 55
OldEncoding: 83
Width: 1366
Flags: HW
Fore
198 502 m 1
 431 502 l 1
 421 385 461 302 551 255 c 0
 603 228 670 214 753 214 c 0
 868 214 961 241 1030 295 c 1
 1073 328 1100 367 1109 413 c 0
 1120 468 1108 510 1071 539 c 0
 1058 550 1040 561 1017 572 c 0
 972 593 879 625 739 667 c 0
 604 708 516 742 473 771 c 0
 394 825 358 906 367 1013 c 0
 368 1030 370 1048 374 1067 c 0
 401 1195 475 1296 595 1370 c 0
 704 1437 831 1471 976 1471 c 0
 1224 1471 1371 1379 1418 1195 c 0
 1431 1143 1435 1084 1431 1019 c 1
 1197 1019 l 1
 1200 1163 1124 1240 970 1249 c 0
 959 1250 948 1250 937 1250 c 0
 826 1250 740 1226 679 1179 c 1
 654 1157 l 1
 633 1134 620 1109 614 1080 c 0
 605 1033 615 997 645 971 c 0
 656 962 670 953 689 943 c 0
 726 923 845 881 1046 816 c 0
 1113 795 1156 780 1173 773 c 0
 1275 730 1335 669 1354 590 c 0
 1364 545 1363 491 1350 429 c 0
 1323 302 1250 198 1133 116 c 0
 1024 40 897 -2 753 -9 c 0
 740 -10 727 -10 714 -10 c 0
 471 -10 311 56 234 188 c 0
 187 270 175 375 198 502 c 1
EndSplineSet
EndChar
StartChar: T
Encoding: 54 84 56
OldEncoding: 84
Width: 1251
Flags: HW
Fore
508 0 m 1
 769 1231 l 1
 309 1231 l 1
 356 1450 l 1
 1518 1450 l 1
 1471 1231 l 1
 1009 1231 l 1
 748 0 l 1
 508 0 l 1
EndSplineSet
KernsSLIF: 91 -113 0 0 89 -113 0 0 87 -76 0 0 85 -227 0 0 84 -76 0 0 81 -227 0 0 75 -76 0 0 71 -227 0 0 69 -227 0 0 67 -227 0 0 49 -37 0 0 35 -152 0 0 29 -227 0 0 28 -227 0 0 16 -227 0 0 15 -113 0 0 14 -227 0 0
EndChar
StartChar: U
Encoding: 55 85 57
OldEncoding: 85
Width: 1479
Flags: HW
Fore
1373 1450 m 1
 1622 1450 l 1
 1434 567 l 2
 1352 182 1120 -10 738 -10 c 0
 434 -10 275 107 260 341 c 0
 256 406 263 482 281 567 c 1
 469 1450 l 1
 719 1450 l 1
 531 568 l 1
 504 442 527 351 599 294 c 0
 645 258 708 240 788 240 c 0
 922 240 1026 286 1100 379 c 0
 1141 430 1169 493 1185 568 c 2
 1373 1450 l 1
EndSplineSet
EndChar
StartChar: V
Encoding: 56 86 58
OldEncoding: 86
Width: 1366
Flags: HW
Fore
577 0 m 1
 317 1450 l 1
 652 1450 l 1
 777 471 l 1
 1331 1450 l 1
 1658 1450 l 1
 776 0 l 1
 577 0 l 1
EndSplineSet
KernsSLIF: 91 -76 0 0 87 -76 0 0 84 -76 0 0 81 -113 0 0 75 -37 0 0 71 -113 0 0 67 -152 0 0 35 -152 0 0 29 -76 0 0 28 -76 0 0 16 -188 0 0 15 -113 0 0 14 -188 0 0
EndChar
StartChar: W
Encoding: 57 87 59
OldEncoding: 87
Width: 1933
Flags: HW
Fore
366 0 m 1
 333 1450 l 1
 587 1450 l 1
 623 519 l 1
 1130 1450 l 1
 1400 1450 l 1
 1519 519 l 1
 1934 1450 l 1
 2205 1450 l 1
 1566 0 l 1
 1299 0 l 1
 1173 999 l 1
 618 0 l 1
 366 0 l 1
EndSplineSet
KernsSLIF: 91 -18 0 0 87 -37 0 0 84 -37 0 0 81 -37 0 0 71 -37 0 0 67 -76 0 0 35 -76 0 0 29 -37 0 0 28 -37 0 0 16 -113 0 0 15 -37 0 0 14 -113 0 0
EndChar
StartChar: X
Encoding: 58 88 60
OldEncoding: 88
Width: 1366
Flags: HW
Fore
9 0 m 1
 654 756 l 1
 384 1450 l 1
 694 1450 l 1
 887 972 l 1
 1311 1450 l 1
 1621 1450 l 1
 1028 756 l 1
 1353 0 l 1
 1043 0 l 1
 796 544 l 1
 319 0 l 1
 9 0 l 1
EndSplineSet
EndChar
StartChar: Y
Encoding: 59 89 61
OldEncoding: 89
Width: 1366
Flags: HW
Fore
526 0 m 1
 657 621 l 1
 314 1451 l 1
 634 1451 l 1
 856 887 l 1
 1338 1451 l 1
 1658 1451 l 1
 941 621 l 1
 810 0 l 1
 526 0 l 1
EndSplineSet
KernsSLIF: 88 -113 0 0 87 -113 0 0 83 -188 0 0 82 -152 0 0 81 -188 0 0 75 -76 0 0 71 -188 0 0 67 -152 0 0 35 -152 0 0 29 -133 0 0 28 -113 0 0 16 -264 0 0 15 -188 0 0 14 -264 0 0
EndChar
StartChar: Z
Encoding: 60 90 62
OldEncoding: 90
Width: 1251
Flags: HW
Fore
41 0 m 1
 91 237 l 1
 1144 1220 l 1
 304 1220 l 1
 353 1450 l 1
 1521 1450 l 1
 1472 1220 l 1
 423 230 l 1
 1248 230 l 1
 1200 0 l 1
 41 0 l 1
EndSplineSet
EndChar
StartChar: bracketleft
Encoding: 61 91 63
OldEncoding: 91
Width: 569
Flags: HW
Fore
52 -407 m 1
 450 1466 l 1
 847 1466 l 1
 807 1278 l 1
 630 1278 l 1
 312 -219 l 1
 489 -219 l 1
 449 -407 l 1
 52 -407 l 1
EndSplineSet
EndChar
StartChar: backslash
Encoding: 62 92 64
OldEncoding: 92
Width: 569
Flags: HW
Fore
380 -25 m 1
 277 1491 l 1
 501 1491 l 1
 603 -25 l 1
 380 -25 l 1
EndSplineSet
EndChar
StartChar: bracketright
Encoding: 63 93 65
OldEncoding: 93
Width: 569
Flags: HW
Fore
349 -407 m 1
 -47 -407 l 1
 -7 -219 l 1
 171 -219 l 1
 489 1277 l 1
 310 1277 l 1
 350 1466 l 1
 747 1466 l 1
 349 -407 l 1
EndSplineSet
EndChar
StartChar: asciicircum
Encoding: 64 94 66
OldEncoding: 94
Width: 961
Flags: HW
Fore
434 690 m 1
 200 690 l 1
 703 1491 l 1
 888 1491 l 1
 1053 690 l 1
 822 690 l 1
 735 1209 l 1
 434 690 l 1
EndSplineSet
EndChar
StartChar: underscore
Encoding: 65 95 67
OldEncoding: 95
Width: 1139
Flags: HW
Fore
-121 -427 m 1
 -81 -237 l 1
 1111 -237 l 1
 1071 -427 l 1
 -121 -427 l 1
EndSplineSet
EndChar
StartChar: grave
Encoding: 66 96 68
OldEncoding: 96
Width: 682
Flags: HW
Fore
748 1194 m 1
 544 1194 l 1
 373 1474 l 1
 673 1474 l 1
 748 1194 l 1
EndSplineSet
EndChar
StartChar: a
Encoding: 67 97 69
OldEncoding: 97
Width: 1139
Flags: HW
Fore
812 96 m 1
 726 35 638 -3 547 -16 c 0
 512 -21 474 -24 431 -24 c 0
 314 -24 231 5 181 62 c 0
 130 119 114 191 133 280 c 0
 164 424 262 522 429 573 c 0
 484 590 549 603 622 612 c 0
 733 625 832 645 919 674 c 1
 927 721 l 1
 934 804 895 854 810 870 c 0
 791 874 769 876 744 876 c 0
 667 876 600 855 545 814 c 0
 514 791 489 762 472 729 c 1
 266 759 l 1
 337 926 458 1028 629 1067 c 0
 684 1080 746 1086 814 1086 c 0
 998 1086 1110 1039 1149 946 c 1
 1161 908 l 1
 1164 891 1166 872 1166 851 c 0
 1166 820 1157 765 1140 685 c 1
 1089 445 l 2
 1054 278 1035 172 1033 128 c 0
 1031 83 1037 41 1052 0 c 1
 814 0 l 1
 809 31 808 63 812 96 c 1
878 487 m 1
 817 466 728 448 613 433 c 0
 517 420 452 401 417 376 c 0
 389 355 371 326 363 289 c 0
 350 231 373 191 430 170 c 1
 454 160 484 155 519 155 c 0
 615 155 697 183 764 240 c 0
 781 255 797 272 811 291 c 0
 835 323 854 371 867 434 c 2
 878 487 l 1
EndSplineSet
EndChar
StartChar: b
Encoding: 68 98 70
OldEncoding: 98
Width: 1139
Flags: HW
Fore
345 0 m 1
 134 0 l 1
 445 1466 l 1
 669 1466 l 1
 568 990 l 1
 659 1054 748 1086 835 1086 c 0
 977 1086 1078 1033 1138 926 c 1
 1159 881 l 1
 1194 789 1198 678 1171 547 c 0
 1134 374 1062 237 955 136 c 0
 852 39 732 -10 593 -10 c 0
 503 -10 432 15 381 66 c 1
 374 71 368 77 362 84 c 1
 345 0 l 1
460 538 m 0
 433 411 442 317 489 257 c 0
 520 218 565 198 624 198 c 0
 727 199 811 244 876 333 c 0
 915 387 943 453 960 531 c 0
 989 665 974 761 917 819 c 1
 896 840 869 854 838 863 c 1
 793 869 l 2
 787 870 780 870 773 870 c 0
 697 870 628 833 566 759 c 0
 513 696 478 623 460 538 c 0
EndSplineSet
EndChar
StartChar: c
Encoding: 69 99 71
OldEncoding: 99
Width: 1024
Flags: HW
Fore
873 403 m 1
 1090 403 l 1
 1051 244 969 130 844 59 c 0
 795 31 740 12 681 1 c 0
 642 -6 602 -10 560 -10 c 0
 417 -10 312 38 244 135 c 0
 176 232 158 360 190 518 c 0
 191 521 191 524 192 527 c 0
 233 719 314 864 436 963 c 0
 537 1045 656 1086 794 1086 c 0
 931 1086 1032 1046 1097 967 c 0
 1156 896 1173 805 1150 696 c 1
 935 696 l 1
 947 757 928 806 879 842 c 0
 845 867 804 879 757 879 c 0
 652 879 567 831 501 734 c 0
 470 689 446 637 429 577 c 0
 424 562 421 547 418 532 c 0
 394 421 402 336 443 275 c 0
 476 225 530 200 603 200 c 0
 702 200 776 232 826 297 c 0
 848 326 864 362 873 403 c 1
EndSplineSet
EndChar
StartChar: d
Encoding: 70 100 72
OldEncoding: 100
Width: 1139
Flags: HW
Fore
795 84 m 1
 786 77 778 71 770 66 c 0
 696 15 614 -10 524 -10 c 0
 385 -10 285 39 224 136 c 0
 161 237 147 374 184 547 c 0
 217 702 281 828 377 926 c 0
 482 1033 606 1086 748 1086 c 0
 835 1086 910 1054 975 990 c 1
 1076 1466 l 1
 1300 1466 l 1
 989 0 l 1
 778 0 l 1
 795 84 l 1
891 538 m 0
 909 623 905 696 879 759 c 0
 848 833 794 870 718 870 c 0
 657 870 602 853 554 819 c 0
 471 761 416 665 387 531 c 0
 370 453 370 387 387 333 c 0
 414 244 480 199 583 198 c 0
 642 198 695 218 742 257 c 0
 814 317 864 411 891 538 c 0
EndSplineSet
EndChar
StartChar: e
Encoding: 71 101 73
OldEncoding: 101
Width: 1139
Flags: HW
Fore
877 333 m 1
 1118 333 l 1
 1067 206 981 113 861 53 c 0
 776 11 682 -10 578 -10 c 0
 385 -10 260 55 202 185 c 0
 162 272 156 385 185 522 c 0
 225 707 305 850 424 951 c 0
 530 1041 656 1086 801 1086 c 0
 961 1086 1073 1029 1136 916 c 0
 1190 819 1201 693 1169 539 c 0
 1165 521 1161 503 1156 485 c 1
 415 485 l 1
 401 386 420 311 473 260 c 0
 510 223 561 204 625 204 c 0
 720 204 793 232 845 287 c 0
 858 302 869 317 877 333 c 1
461 675 m 1
 959 675 l 1
 972 797 916 863 791 874 c 0
 780 875 769 875 757 875 c 0
 671 875 599 849 540 797 c 1
 512 769 l 1
 491 744 475 717 465 688 c 0
 463 684 462 680 461 675 c 1
EndSplineSet
EndChar
StartChar: f
Encoding: 72 102 74
OldEncoding: 102
Width: 569
Flags: HW
Fore
153 0 m 1
 313 757 l 1
 179 757 l 1
 221 955 l 1
 355 955 l 1
 402 1175 l 2
 433 1318 502 1418 610 1474 c 0
 663 1501 721 1515 784 1515 c 0
 851 1515 909 1506 956 1488 c 1
 911 1277 l 1
 864 1294 831 1303 813 1304 c 0
 801 1304 l 0
 778 1305 758 1302 739 1295 c 0
 678 1273 638 1215 618 1121 c 1
 582 955 l 1
 738 955 l 1
 696 757 l 1
 540 757 l 1
 380 0 l 1
 153 0 l 1
EndSplineSet
KernsSLIF: 72 -37 0 0
EndChar
StartChar: g
Encoding: 73 103 75
OldEncoding: 103
Width: 1139
Flags: HW
Fore
86 -74 m 1
 299 -74 l 1
 292 -109 302 -141 331 -169 c 0
 364 -200 412 -216 475 -216 c 0
 632 -216 733 -139 776 16 c 1
 789 75 l 1
 716 25 628 0 525 0 c 0
 380 0 276 53 215 159 c 0
 158 256 147 382 180 537 c 0
 215 702 284 834 388 934 c 1
 492 1035 615 1086 756 1086 c 0
 897 1086 992 1049 1043 974 c 1
 1061 1062 l 1
 1227 1062 l 1
 1032 144 l 2
 979 -107 891 -274 770 -356 c 0
 700 -404 605 -430 485 -434 c 2
 429 -435 l 2
 256 -435 145 -388 97 -293 c 0
 70 -240 65 -173 82 -92 c 0
 86 -74 l 1
431 546 m 0
 388 347 442 247 592 247 c 0
 737 247 830 345 871 541 c 0
 902 688 881 781 806 820 c 0
 781 833 751 839 716 839 c 0
 621 839 545 794 490 703 c 0
 463 659 444 607 431 546 c 0
EndSplineSet
EndChar
StartChar: h
Encoding: 74 104 76
OldEncoding: 104
Width: 1139
Flags: HW
Fore
135 0 m 1
 446 1466 l 1
 676 1466 l 1
 579 1008 l 1
 642 1066 727 1095 832 1095 c 0
 981 1095 1080 1044 1128 941 c 0
 1161 870 1166 781 1143 673 c 1
 1000 0 l 1
 770 0 l 1
 902 624 l 1
 924 727 908 791 855 817 c 0
 834 827 806 832 772 832 c 0
 695 832 627 794 567 719 c 0
 522 663 492 601 478 532 c 1
 365 0 l 1
 135 0 l 1
EndSplineSet
EndChar
StartChar: i
Encoding: 75 105 77
OldEncoding: 105
Width: 455
Flags: HW
Fore
369 1218 m 1
 422 1466 l 1
 653 1466 l 1
 600 1218 l 1
 369 1218 l 1
106 0 m 1
 331 1062 l 1
 571 1062 l 1
 346 0 l 1
 106 0 l 1
EndSplineSet
EndChar
StartChar: j
Encoding: 76 106 78
OldEncoding: 106
Width: 455
Flags: HW
Fore
371 1220 m 1
 423 1466 l 1
 651 1466 l 1
 599 1220 l 1
 371 1220 l 1
-181 -412 m 1
 -137 -205 l 1
 -104 -210 -83 -213 -74 -213 c 0
 -15 -213 28 -193 56 -152 c 0
 78 -120 95 -76 107 -20 c 2
 337 1062 l 1
 565 1062 l 1
 327 -58 l 2
 287 -246 211 -362 99 -406 c 0
 62 -421 20 -428 -25 -428 c 0
 -82 -428 -134 -423 -181 -412 c 1
EndSplineSet
EndChar
StartChar: k
Encoding: 77 107 79
OldEncoding: 107
Width: 1024
Flags: HW
Fore
136 0 m 1
 447 1466 l 1
 667 1466 l 1
 501 684 l 1
 921 1062 l 1
 1200 1062 l 1
 727 636 l 1
 1016 0 l 1
 740 0 l 1
 545 484 l 1
 438 390 l 1
 356 0 l 1
 136 0 l 1
EndSplineSet
EndChar
StartChar: l
Encoding: 78 108 80
OldEncoding: 108
Width: 455
Flags: HW
Fore
104 0 m 1
 415 1466 l 1
 651 1466 l 1
 340 0 l 1
 104 0 l 1
EndSplineSet
EndChar
StartChar: m
Encoding: 79 109 81
OldEncoding: 109
Width: 1706
Flags: HW
Fore
135 0 m 1
 360 1062 l 1
 568 1062 l 1
 550 978 l 1
 633 1050 733 1086 848 1086 c 0
 961 1086 1042 1057 1091 999 c 0
 1104 984 1114 967 1119 948 c 1
 1166 1005 1238 1045 1336 1069 c 0
 1383 1080 1429 1086 1476 1086 c 0
 1670 1086 1758 992 1740 803 c 0
 1738 780 1734 755 1728 729 c 1
 1574 0 l 1
 1356 0 l 1
 1498 669 l 1
 1517 782 1479 839 1384 842 c 1
 1256 842 1171 784 1130 668 c 0
 1125 652 1120 635 1117 617 c 1
 986 0 l 1
 742 0 l 1
 888 690 l 1
 903 761 882 807 824 830 c 0
 804 838 781 842 756 842 c 0
 635 842 551 773 503 636 c 1
 493 610 485 582 479 551 c 1
 362 0 l 1
 135 0 l 1
EndSplineSet
EndChar
StartChar: n
Encoding: 80 110 82
OldEncoding: 110
Width: 1139
Flags: HW
Fore
135 0 m 1
 361 1064 l 1
 594 1064 l 1
 583 1012 l 1
 632 1050 681 1074 730 1085 c 0
 761 1092 795 1095 832 1095 c 0
 981 1095 1080 1044 1128 941 c 0
 1161 870 1166 781 1143 673 c 1
 1000 0 l 1
 776 0 l 1
 908 624 l 2
 932 737 906 803 831 822 c 0
 814 826 794 828 771 828 c 0
 676 828 602 786 547 701 c 0
 517 655 495 599 481 532 c 2
 368 0 l 1
 135 0 l 1
EndSplineSet
EndChar
StartChar: o
Encoding: 81 111 83
OldEncoding: 111
Width: 1139
Flags: HW
Fore
180 531 m 0
 221 722 303 866 428 964 c 0
 531 1045 654 1086 796 1086 c 0
 958 1086 1073 1032 1140 924 c 0
 1199 828 1212 702 1179 546 c 0
 1128 306 1019 143 854 56 c 0
 769 11 672 -11 563 -11 c 0
 374 -11 251 55 194 187 c 0
 155 276 151 391 180 531 c 0
421 529 m 0
 388 372 414 271 501 228 c 0
 530 213 566 206 609 206 c 0
 732 206 824 266 885 387 c 0
 906 430 922 479 934 534 c 0
 962 665 947 759 889 815 c 0
 855 848 808 864 749 864 c 0
 638 864 551 812 488 708 c 0
 458 658 436 598 421 529 c 0
EndSplineSet
EndChar
StartChar: p
Encoding: 82 112 84
OldEncoding: 112
Width: 1139
Flags: HW
Fore
541 992 m 1
 555 1002 555 1002 567 1010 c 0
 640 1061 722 1086 812 1086 c 0
 951 1086 1051 1037 1112 940 c 0
 1176 839 1190 702 1153 529 c 0
 1120 374 1056 248 959 150 c 0
 854 43 731 -10 588 -10 c 0
 501 -10 426 22 362 86 c 1
 261 -390 l 1
 37 -390 l 1
 348 1076 l 1
 559 1076 l 1
 541 992 l 1
446 538 m 0
 428 453 432 380 458 317 c 0
 489 243 542 206 619 206 c 0
 680 206 735 223 783 257 c 0
 866 315 921 411 949 545 c 0
 966 623 966 689 949 743 c 0
 922 832 858 877 755 878 c 0
 696 878 643 858 596 819 c 1
 523 759 473 665 446 538 c 0
EndSplineSet
EndChar
StartChar: q
Encoding: 83 113 85
OldEncoding: 113
Width: 1139
Flags: HW
Fore
1025 1076 m 1
 1236 1076 l 1
 925 -390 l 1
 701 -390 l 1
 802 86 l 1
 710 22 621 -10 534 -10 c 0
 392 -10 291 43 231 150 c 0
 177 248 166 374 199 529 c 0
 236 702 307 839 414 940 c 0
 517 1037 637 1086 776 1086 c 0
 866 1086 937 1061 989 1010 c 0
 995 1005 1001 999 1007 992 c 1
 1025 1076 l 1
910 538 m 0
 937 665 927 759 881 819 c 1
 850 858 805 878 746 878 c 0
 643 877 558 832 493 743 c 0
 454 689 426 623 409 545 c 0
 381 411 396 315 453 257 c 0
 487 223 535 206 596 206 c 0
 672 206 741 243 804 317 c 0
 857 380 892 453 910 538 c 0
EndSplineSet
EndChar
StartChar: r
Encoding: 84 114 86
OldEncoding: 114
Width: 682
Flags: HW
Fore
133 0 m 1
 358 1062 l 1
 587 1062 l 1
 563 947 l 1
 592 986 618 1014 642 1030 c 0
 655 1038 670 1045 686 1052 c 0
 694 1055 703 1058 713 1062 c 0
 741 1072 773 1077 808 1077 c 0
 842 1077 870 1070 892 1055 c 1
 928 1028 l 1
 815 789 l 1
 772 823 l 1
 753 828 l 1
 740 828 l 2
 717 828 695 824 674 817 c 0
 657 811 641 803 625 792 c 0
 577 761 539 699 512 604 c 0
 503 572 493 532 482 484 c 1
 380 0 l 1
 133 0 l 1
EndSplineSet
KernsSLIF: 16 -113 0 0 14 -113 0 0
EndChar
StartChar: s
Encoding: 85 115 87
OldEncoding: 115
Width: 1024
Flags: HW
Fore
139 358 m 1
 367 358 l 1
 362 297 385 253 437 226 c 0
 468 209 508 201 558 201 c 0
 629 201 689 219 736 255 c 0
 758 272 771 289 775 306 c 0
 785 356 775 390 745 408 c 0
 728 419 685 430 617 443 c 0
 482 469 389 498 338 531 c 0
 269 576 240 646 252 739 c 0
 253 752 255 766 258 780 c 0
 281 884 342 964 443 1020 c 0
 522 1064 612 1086 714 1086 c 0
 885 1086 996 1042 1047 953 c 0
 1076 902 1082 839 1067 764 c 1
 841 764 l 1
 848 817 821 852 761 867 c 0
 740 872 713 875 682 875 c 0
 607 874 552 856 517 821 c 1
 505 810 498 797 495 783 c 0
 495 782 495 780 494 778 c 0
 487 733 500 702 535 685 c 0
 551 677 591 667 656 654 c 0
 785 629 875 601 926 570 c 0
 973 541 1002 503 1015 456 c 0
 1025 419 1025 376 1014 325 c 0
 991 218 928 133 825 71 c 0
 734 16 631 -11 514 -11 c 0
 337 -11 221 41 166 145 c 0
 136 202 127 273 139 358 c 1
EndSplineSet
EndChar
StartChar: t
Encoding: 86 116 88
OldEncoding: 116
Width: 569
Flags: HW
Fore
570 199 m 1
 554 2 l 1
 504 -8 455 -13 408 -13 c 0
 328 -13 274 -4 245 15 c 0
 241 17 l 0
 206 44 186 82 183 130 c 0
 181 170 189 230 206 311 c 1
 329 892 l 1
 207 892 l 1
 249 1088 l 1
 371 1088 l 1
 444 1433 l 1
 676 1433 l 1
 603 1088 l 1
 728 1088 l 1
 686 892 l 1
 561 892 l 1
 435 301 l 1
 428 269 427 248 431 238 c 0
 432 235 432 233 433 232 c 0
 437 222 445 213 456 205 c 0
 469 196 488 191 514 191 c 0
 515 191 534 194 570 199 c 1
EndSplineSet
EndChar
StartChar: u
Encoding: 87 117 89
OldEncoding: 117
Width: 1139
Flags: HW
Fore
1199 1085 m 1
 969 0 l 1
 789 0 l 1
 802 64 l 1
 763 29 699 6 610 -5 c 0
 585 -8 559 -10 534 -10 c 0
 365 -10 255 42 206 147 c 1
 173 215 168 303 191 412 c 1
 334 1085 l 1
 560 1085 l 1
 427 461 l 1
 406 361 430 294 497 261 c 0
 522 249 551 243 585 243 c 0
 692 243 765 292 803 390 c 0
 811 410 817 432 822 456 c 1
 956 1085 l 1
 1199 1085 l 1
EndSplineSet
EndChar
StartChar: v
Encoding: 88 118 90
OldEncoding: 118
Width: 1024
Flags: HW
Fore
429 0 m 1
 251 1062 l 1
 493 1062 l 1
 596 360 l 1
 985 1062 l 1
 1225 1062 l 1
 599 0 l 1
 429 0 l 1
EndSplineSet
KernsSLIF: 16 -152 0 0 14 -152 0 0
EndChar
StartChar: w
Encoding: 89 119 91
OldEncoding: 119
Width: 1479
Flags: HW
Fore
296 0 m 1
 231 1062 l 1
 481 1062 l 1
 501 364 l 1
 873 1062 l 1
 1057 1062 l 1
 1146 364 l 1
 1461 1062 l 1
 1688 1062 l 1
 1200 0 l 1
 956 0 l 1
 946 149 922 374 883 676 c 1
 544 0 l 1
 296 0 l 1
EndSplineSet
KernsSLIF: 16 -113 0 0 14 -113 0 0
EndChar
StartChar: x
Encoding: 90 120 92
OldEncoding: 120
Width: 1024
Flags: HW
Fore
15 0 m 1
 463 552 l 1
 269 1062 l 1
 549 1062 l 1
 657 744 l 1
 925 1062 l 1
 1206 1062 l 1
 776 562 l 1
 1009 0 l 1
 732 0 l 1
 583 369 l 1
 284 0 l 1
 15 0 l 1
EndSplineSet
EndChar
StartChar: y
Encoding: 91 121 93
OldEncoding: 121
Width: 1024
Flags: HW
Fore
40 -409 m 1
 66 -192 l 1
 98 -201 133 -206 170 -206 c 0
 217 -206 257 -198 288 -183 c 1
 354 -153 393 -110 405 -54 c 0
 409 -37 410 -19 408 0 c 1
 258 1062 l 1
 517 1062 l 1
 604 372 l 1
 969 1062 l 1
 1231 1062 l 1
 624 0 l 1
 584 -123 525 -223 446 -302 c 0
 417 -331 382 -355 340 -375 c 0
 281 -402 218 -418 149 -422 c 1
 95 -421 l 1
 74 -419 56 -415 40 -409 c 1
EndSplineSet
KernsSLIF: 16 -152 0 0 14 -152 0 0
EndChar
StartChar: z
Encoding: 92 122 94
OldEncoding: 122
Width: 1024
Flags: HW
Fore
40 0 m 1
 85 212 l 1
 847 864 l 1
 243 864 l 1
 285 1062 l 1
 1173 1062 l 1
 1131 864 l 1
 389 212 l 1
 1025 212 l 1
 980 0 l 1
 40 0 l 1
EndSplineSet
EndChar
StartChar: braceleft
Encoding: 93 123 95
OldEncoding: 123
Width: 684
Flags: HW
Fore
187 612 m 1
 238 613 283 627 322 654 c 0
 359 681 388 717 408 762 c 0
 429 808 452 891 478 1011 c 0
 505 1131 527 1217 546 1270 c 1
 566 1323 594 1366 629 1401 c 0
 664 1436 705 1460 751 1475 c 0
 782 1486 831 1491 896 1491 c 2
 952 1491 l 1
 908 1280 l 1
 877 1280 l 2
 849 1280 830 1278 820 1273 c 1
 794 1254 l 2
 769 1236 749 1205 735 1160 c 0
 726 1135 712 1075 692 981 c 0
 661 838 624 736 580 676 c 0
 549 634 549 634 541 623 c 0
 508 582 467 551 420 530 c 1
 443 519 461 505 473 486 c 1
 501 426 l 1
 524 382 532 323 527 249 c 0
 524 204 509 119 482 -6 c 0
 463 -93 463 -149 481 -174 c 1
 494 -196 l 1
 501 -207 523 -212 559 -212 c 2
 590 -212 l 1
 544 -431 l 1
 488 -431 l 2
 431 -431 390 -427 366 -420 c 0
 331 -409 304 -394 284 -374 c 0
 265 -353 250 -326 240 -292 c 0
 231 -259 230 -214 236 -157 c 0
 241 -121 254 -48 277 63 c 0
 300 174 311 253 310 298 c 0
 309 344 296 380 269 407 c 0
 242 434 203 448 152 449 c 1
 187 612 l 1
EndSplineSet
EndChar
StartChar: bar
Encoding: 94 124 96
OldEncoding: 124
Width: 532
Flags: HW
Fore
48 -431 m 1
 456 1491 l 1
 706 1491 l 1
 298 -431 l 1
 48 -431 l 1
EndSplineSet
EndChar
StartChar: braceright
Encoding: 95 125 97
OldEncoding: 125
Width: 684
Flags: HW
Fore
756 612 m 1
 721 449 l 1
 670 448 625 434 586 407 c 0
 549 380 520 344 499 298 c 0
 478 253 456 174 432 63 c 0
 407 -48 390 -122 379 -157 c 0
 361 -214 340 -259 317 -292 c 0
 294 -326 268 -353 239 -374 c 0
 211 -394 177 -409 137 -420 c 0
 110 -427 68 -431 11 -431 c 2
 -44 -431 l 1
 1 -212 l 1
 32 -212 l 2
 68 -212 92 -207 105 -196 c 1
 128 -174 l 2
 155 -149 178 -93 197 -6 c 0
 224 119 245 204 260 249 c 0
 287 323 321 382 362 426 c 1
 416 486 l 1
 436 505 460 519 487 530 c 1
 449 551 422 581 407 622 c 0
 404 629 398 647 389 676 c 0
 370 736 376 838 407 981 c 0
 427 1075 438 1135 440 1160 c 0
 445 1205 438 1236 421 1254 c 2
 403 1273 l 1
 384 1278 l 2
 377 1279 365 1280 350 1280 c 2
 319 1280 l 1
 363 1491 l 1
 419 1491 l 2
 484 1491 531 1486 558 1475 c 0
 597 1460 627 1436 648 1401 c 0
 669 1366 678 1323 675 1270 c 0
 672 1217 658 1131 633 1011 c 0
 608 891 596 808 597 762 c 0
 598 717 612 681 639 654 c 0
 666 627 705 613 756 612 c 1
EndSplineSet
EndChar
StartChar: asciitilde
Encoding: 96 126 98
OldEncoding: 126
Width: 1196
Flags: HW
Fore
199 529 m 1
 253 782 l 1
 340 862 441 902 556 902 c 0
 596 902 637 896 678 884 c 0
 720 873 778 850 852 815 c 0
 894 796 926 783 947 777 c 0
 969 771 992 768 1015 768 c 0
 1058 768 1106 781 1157 807 c 0
 1209 833 1257 866 1302 905 c 1
 1247 645 l 1
 1196 605 1146 576 1098 558 c 0
 1051 540 1000 531 945 531 c 0
 905 531 868 536 833 545 c 0
 799 554 747 577 676 612 c 0
 604 647 542 665 489 665 c 0
 446 665 404 656 363 638 c 0
 321 619 266 583 199 529 c 1
EndSplineSet
EndChar
StartChar: uni007F
Encoding: 97 127 99
OldEncoding: 127
Width: 1247
Flags: HW
Fore
340 928 m 0
 343 945 352 960 366 972 c 128
 380 983 396 989 413 989 c 0
 430 989 444 983 452 972 c 128
 462 960 464 945 461 928 c 0
 457 911 448 896 434 885 c 128
 420 874 404 868 387 868 c 0
 370 868 356 874 348 885 c 128
 338 896 336 911 340 928 c 0
559 1071 m 0
 563 1088 572 1103 586 1114 c 128
 599 1126 615 1132 632 1132 c 0
 649 1132 663 1126 672 1114 c 128
 681 1103 684 1088 680 1071 c 0
 677 1054 668 1039 654 1028 c 128
 639 1017 623 1011 606 1011 c 0
 589 1011 576 1017 567 1028 c 128
 558 1039 556 1054 559 1071 c 0
800 1139 m 0
 803 1156 812 1171 826 1182 c 128
 840 1194 856 1200 873 1200 c 0
 890 1200 904 1194 912 1182 c 128
 922 1171 924 1156 921 1139 c 0
 917 1122 908 1107 894 1096 c 128
 880 1085 864 1079 847 1079 c 0
 830 1079 816 1085 808 1096 c 128
 798 1107 796 1122 800 1139 c 0
129 505 m 0
 132 522 141 537 155 548 c 128
 169 560 185 566 202 566 c 0
 219 566 232 560 242 548 c 128
 250 537 253 522 250 505 c 0
 246 488 237 473 223 462 c 128
 209 451 193 445 176 445 c 0
 159 445 146 451 136 462 c 128
 128 473 125 488 129 505 c 0
208 309 m 0
 212 326 221 341 234 352 c 128
 248 364 264 370 281 370 c 0
 298 370 312 364 321 352 c 128
 330 341 333 326 329 309 c 0
 326 292 317 277 302 266 c 128
 288 255 272 249 255 249 c 0
 238 249 225 255 216 266 c 128
 207 277 205 292 208 309 c 0
319 158 m 0
 323 175 332 190 346 202 c 128
 359 213 375 219 392 219 c 0
 409 219 423 213 432 202 c 128
 441 190 444 175 440 158 c 0
 437 141 428 126 414 115 c 128
 399 104 383 98 366 98 c 0
 349 98 336 104 327 115 c 128
 318 126 316 141 319 158 c 0
565 67 m 0
 568 84 577 99 591 110 c 128
 605 122 621 128 638 128 c 0
 655 128 668 122 678 110 c 128
 686 99 689 84 686 67 c 0
 682 50 673 35 659 24 c 128
 645 13 629 7 612 7 c 0
 595 7 582 13 572 24 c 128
 564 35 561 50 565 67 c 0
872 128 m 0
 875 145 884 160 898 172 c 128
 912 183 928 189 945 189 c 0
 962 189 976 183 984 172 c 128
 994 160 996 145 993 128 c 0
 989 111 980 96 966 85 c 128
 952 74 936 68 919 68 c 0
 902 68 888 74 880 85 c 128
 870 96 868 111 872 128 c 0
1073 294 m 0
 1077 311 1086 326 1100 338 c 128
 1113 349 1129 355 1146 355 c 0
 1163 355 1177 349 1186 338 c 128
 1195 326 1198 311 1194 294 c 0
 1190 277 1181 262 1167 251 c 128
 1153 240 1137 234 1120 234 c 0
 1103 234 1090 240 1080 251 c 128
 1072 262 1069 277 1073 294 c 0
1191 498 m 0
 1195 515 1204 530 1218 542 c 128
 1231 553 1247 559 1264 559 c 0
 1281 559 1295 553 1304 542 c 128
 1313 530 1316 515 1312 498 c 0
 1309 481 1300 466 1286 455 c 128
 1272 444 1256 438 1239 438 c 0
 1222 438 1208 444 1200 455 c 128
 1190 466 1188 481 1191 498 c 0
1229 739 m 0
 1232 756 1241 771 1255 782 c 128
 1269 794 1285 800 1302 800 c 0
 1319 800 1332 794 1342 782 c 128
 1350 771 1353 756 1350 739 c 0
 1346 722 1337 707 1323 696 c 128
 1309 685 1293 679 1276 679 c 0
 1259 679 1246 685 1236 696 c 128
 1228 707 1225 722 1229 739 c 0
1167 951 m 0
 1170 968 1179 983 1193 994 c 128
 1207 1006 1223 1012 1240 1012 c 0
 1257 1012 1270 1006 1280 994 c 128
 1288 983 1291 968 1288 951 c 0
 1284 934 1275 919 1261 908 c 128
 1247 897 1231 891 1214 891 c 0
 1197 891 1184 897 1174 908 c 128
 1166 919 1163 934 1167 951 c 0
1009 1094 m 0
 1013 1111 1022 1126 1036 1138 c 128
 1049 1149 1065 1155 1082 1155 c 0
 1099 1155 1113 1149 1122 1138 c 128
 1131 1126 1134 1111 1130 1094 c 0
 1127 1077 1118 1062 1104 1051 c 128
 1089 1040 1073 1034 1056 1034 c 0
 1039 1034 1026 1040 1017 1051 c 128
 1008 1062 1006 1077 1009 1094 c 0
194 739 m 0
 197 756 206 771 220 782 c 128
 234 794 250 800 267 800 c 0
 284 800 298 794 306 782 c 128
 316 771 318 756 315 739 c 0
 311 722 302 707 288 696 c 128
 274 685 258 679 241 679 c 0
 224 679 210 685 202 696 c 128
 192 707 190 722 194 739 c 0
EndSplineSet
EndChar
StartChar: exclamdown
Encoding: 99 161 101
OldEncoding: 161
Width: 680
Flags: HW
Fore
713 1278 m 1
 509 1278 l 1
 554 1489 l 1
 758 1489 l 1
 713 1278 l 1
452 0 m 1
 228 0 l 1
 485 1079 l 1
 651 1079 l 1
 452 0 l 1
EndSplineSet
EndChar
StartChar: cent
Encoding: 100 162 102
OldEncoding: 162
Width: 1118
Flags: HW
Fore
557 2 m 1
 417 19 319 75 264 171 c 128
 208 267 197 396 232 557 c 0
 265 716 332 844 432 943 c 128
 531 1042 652 1099 794 1115 c 1
 870 1475 l 1
 984 1475 l 1
 908 1116 l 1
 965 1114 1019 1105 1070 1090 c 128
 1120 1074 1162 1056 1195 1037 c 1
 1152 837 l 1
 1142 837 l 1
 1108 871 1070 901 1029 926 c 128
 988 951 937 968 878 977 c 1
 700 141 l 1
 734 144 769 152 804 164 c 128
 839 176 870 189 895 202 c 0
 922 216 947 230 968 244 c 128
 990 257 1009 270 1024 281 c 1
 1034 281 l 1
 992 83 l 1
 945 63 896 45 846 30 c 128
 795 14 737 4 671 1 c 1
 594 -361 l 1
 480 -361 l 1
 557 2 l 1
588 146 m 1
 763 971 l 1
 682 957 612 915 553 846 c 128
 494 776 451 680 425 557 c 0
 398 432 401 335 432 268 c 128
 463 200 515 159 588 146 c 1
EndSplineSet
EndChar
StartChar: sterling
Encoding: 101 163 103
OldEncoding: 163
Width: 1118
Flags: HW
Fore
1031 0 m 1
 89 0 l 1
 132 207 l 1
 211 229 273 272 316 335 c 128
 360 398 395 491 421 613 c 1
 260 613 l 1
 289 751 l 1
 450 751 l 1
 518 1071 l 2
 547 1205 608 1313 703 1395 c 128
 798 1477 907 1518 1030 1518 c 0
 1095 1518 1149 1513 1193 1502 c 128
 1237 1492 1277 1481 1313 1470 c 1
 1269 1264 l 1
 1259 1264 l 1
 1226 1291 1188 1313 1144 1328 c 128
 1100 1343 1057 1351 1014 1351 c 0
 932 1351 865 1325 814 1274 c 128
 763 1223 727 1149 706 1052 c 2
 642 751 l 1
 1006 751 l 1
 977 613 l 1
 613 613 l 1
 600 552 l 2
 583 474 549 403 496 340 c 128
 443 276 378 223 299 182 c 1
 297 171 l 1
 1067 171 l 1
 1031 0 l 1
EndSplineSet
EndChar
StartChar: currency
Encoding: 102 164 104
OldEncoding: 164
Width: 1118
Flags: HW
Fore
1114 272 m 1
 986 166 l 1
 817 378 l 1
 783 360 752 347 724 338 c 128
 697 330 665 326 629 326 c 0
 598 326 568 331 540 341 c 128
 510 351 486 364 465 379 c 1
 204 164 l 1
 123 273 l 1
 380 486 l 1
 369 513 362 542 360 572 c 128
 357 604 359 633 365 661 c 0
 371 690 382 720 397 750 c 128
 412 779 432 808 455 835 c 1
 288 1051 l 1
 417 1157 l 1
 586 944 l 1
 614 960 644 973 677 982 c 128
 710 991 741 996 771 996 c 0
 806 996 837 991 866 980 c 128
 894 970 917 958 936 945 c 1
 1193 1157 l 1
 1280 1052 l 1
 1020 836 l 1
 1032 807 1040 780 1042 753 c 128
 1046 726 1043 696 1036 661 c 0
 1029 631 1018 600 1002 570 c 128
 986 538 967 511 946 486 c 1
 1114 272 l 1
892 661 m 0
 903 714 894 760 865 800 c 128
 836 838 795 858 742 858 c 0
 691 858 642 839 595 800 c 128
 548 762 519 716 508 661 c 0
 497 608 506 562 535 522 c 128
 564 484 605 464 658 464 c 0
 709 464 758 483 805 522 c 128
 852 560 881 606 892 661 c 0
EndSplineSet
EndChar
StartChar: yen
Encoding: 103 165 105
OldEncoding: 165
Width: 1118
Flags: HW
Fore
1375 1489 m 1
 795 678 l 1
 773 578 l 1
 1115 578 l 1
 1086 440 l 1
 746 440 l 1
 653 0 l 1
 465 0 l 1
 558 440 l 1
 218 440 l 1
 247 578 l 1
 589 578 l 1
 606 657 l 1
 372 1489 l 1
 582 1489 l 1
 740 850 l 1
 1174 1489 l 1
 1375 1489 l 1
EndSplineSet
EndChar
StartChar: brokenbar
Encoding: 104 166 106
OldEncoding: 166
Width: 783
Flags: HW
Fore
636 758 m 1
 469 758 l 1
 638 1556 l 1
 805 1556 l 1
 636 758 l 1
391 -392 m 1
 224 -392 l 1
 394 406 l 1
 561 406 l 1
 391 -392 l 1
EndSplineSet
EndChar
StartChar: section
Encoding: 105 167 107
OldEncoding: 167
Width: 1118
Flags: HW
Fore
844 401 m 0
 865 424 882 447 896 468 c 128
 909 490 920 519 927 555 c 0
 934 588 936 616 931 640 c 128
 926 664 917 684 904 699 c 0
 891 714 876 727 856 738 c 128
 838 748 815 757 788 766 c 0
 757 776 757 776 716 788 c 128
 689 797 658 807 624 819 c 1
 609 811 592 801 576 789 c 128
 558 777 539 760 517 738 c 0
 500 721 483 697 466 668 c 128
 449 639 437 609 431 579 c 0
 419 525 422 482 441 450 c 128
 460 418 503 391 570 369 c 0
 602 359 602 359 642 346 c 128
 683 332 683 332 733 315 c 1
 748 323 765 334 784 348 c 128
 804 362 824 380 844 401 c 0
153 -133 m 1
 168 -142 188 -151 212 -162 c 128
 235 -173 258 -182 280 -190 c 0
 309 -200 337 -208 362 -212 c 128
 388 -218 421 -220 462 -220 c 0
 538 -220 605 -204 662 -174 c 128
 720 -142 755 -97 768 -36 c 0
 775 0 775 29 768 52 c 128
 761 74 745 94 721 111 c 0
 696 128 665 142 626 154 c 128
 569 171 569 171 500 192 c 0
 445 209 400 226 365 243 c 128
 330 260 299 283 274 312 c 0
 250 339 234 371 227 407 c 128
 220 443 221 485 232 533 c 0
 245 596 274 655 319 712 c 128
 364 768 424 817 500 858 c 1
 501 865 l 1
 448 898 413 939 396 986 c 128
 380 1033 378 1087 391 1147 c 0
 415 1259 477 1349 576 1417 c 128
 676 1485 801 1519 950 1519 c 0
 1007 1519 1058 1515 1104 1506 c 128
 1151 1497 1201 1483 1256 1462 c 1
 1215 1268 l 1
 1205 1268 l 1
 1152 1298 1101 1320 1052 1334 c 128
 1003 1348 951 1355 895 1355 c 0
 820 1355 754 1340 696 1310 c 128
 637 1279 602 1235 589 1176 c 0
 581 1138 581 1107 590 1083 c 128
 599 1059 614 1039 637 1024 c 0
 660 1008 690 994 728 981 c 128
 765 968 808 955 857 942 c 0
 972 909 1051 866 1092 814 c 128
 1133 761 1144 690 1125 601 c 0
 1110 529 1078 466 1030 412 c 128
 983 358 925 313 857 277 c 1
 856 270 l 1
 907 239 942 201 960 154 c 128
 977 107 979 53 966 -10 c 0
 956 -59 935 -108 904 -155 c 128
 873 -202 834 -242 789 -274 c 0
 740 -309 685 -337 624 -356 c 128
 562 -375 490 -385 408 -385 c 0
 355 -385 304 -380 254 -371 c 128
 204 -362 153 -347 102 -327 c 1
 143 -133 l 1
 153 -133 l 1
EndSplineSet
EndChar
StartChar: dieresis
Encoding: 106 168 108
OldEncoding: 168
Width: 1118
Flags: HW
Fore
1144 1304 m 1
 943 1304 l 1
 984 1499 l 1
 1185 1499 l 1
 1144 1304 l 1
731 1304 m 1
 530 1304 l 1
 571 1499 l 1
 772 1499 l 1
 731 1304 l 1
EndSplineSet
EndChar
StartChar: copyright
Encoding: 107 169 109
OldEncoding: 169
Width: 1902
Flags: HW
Fore
1955 655 m 0
 1904 416 1776 212 1572 44 c 128
 1366 -126 1145 -210 906 -210 c 128
 667 -210 482 -126 348 44 c 128
 216 212 174 416 225 655 c 128
 276 894 403 1097 608 1266 c 128
 813 1435 1034 1519 1273 1519 c 128
 1512 1519 1698 1435 1831 1266 c 128
 1964 1097 2006 894 1955 655 c 0
1840 655 m 0
 1884 864 1848 1042 1734 1188 c 128
 1618 1336 1458 1409 1251 1409 c 128
 1044 1409 852 1336 674 1188 c 128
 497 1042 386 864 342 655 c 128
 297 446 332 268 448 121 c 128
 562 -26 723 -100 930 -100 c 128
 1137 -100 1329 -26 1506 121 c 128
 1684 268 1795 446 1840 655 c 0
1328 255 m 1
 1279 235 1230 218 1182 202 c 128
 1135 188 1081 180 1020 180 c 0
 881 180 779 221 716 304 c 128
 653 386 638 505 671 660 c 0
 704 813 770 932 872 1016 c 128
 972 1101 1090 1143 1224 1143 c 0
 1279 1143 1331 1136 1378 1121 c 128
 1426 1106 1467 1089 1501 1070 c 1
 1462 889 l 1
 1446 889 l 1
 1423 914 1389 938 1343 962 c 128
 1297 984 1248 996 1197 996 c 0
 1115 996 1044 969 983 914 c 128
 922 859 880 775 856 660 c 0
 833 552 838 470 873 412 c 128
 908 356 968 327 1055 327 c 0
 1111 327 1167 339 1222 364 c 128
 1277 388 1320 411 1350 434 c 1
 1366 434 l 1
 1328 255 l 1
EndSplineSet
EndChar
StartChar: ordfeminine
Encoding: 108 170 110
OldEncoding: 170
Width: 1010
Flags: HW
Fore
994 566 m 1
 828 566 l 1
 847 657 l 1
 825 642 825 642 788 618 c 128
 763 603 740 590 717 581 c 0
 687 568 658 558 630 552 c 128
 602 544 565 541 518 541 c 0
 435 541 372 569 329 624 c 128
 286 680 273 752 292 839 c 0
 307 908 333 965 371 1008 c 128
 409 1052 457 1087 516 1112 c 0
 571 1136 638 1153 716 1163 c 128
 794 1173 875 1180 959 1184 c 1
 963 1203 l 2
 970 1238 971 1266 964 1287 c 128
 958 1308 946 1325 927 1337 c 0
 910 1348 887 1356 860 1360 c 128
 832 1363 803 1365 772 1365 c 0
 720 1365 666 1357 608 1342 c 128
 552 1326 509 1313 481 1304 c 1
 466 1304 l 1
 502 1474 l 1
 533 1483 579 1492 640 1503 c 128
 700 1514 755 1519 805 1519 c 0
 933 1519 1025 1494 1080 1442 c 128
 1136 1392 1152 1309 1127 1194 c 1
 994 566 l 1
878 802 m 1
 930 1045 l 1
 886 1042 835 1038 776 1033 c 128
 717 1028 670 1020 634 1010 c 0
 592 999 556 980 526 954 c 128
 495 929 475 894 466 849 c 0
 455 799 462 761 486 735 c 128
 509 709 550 696 608 696 c 0
 659 696 706 707 752 729 c 128
 796 751 839 775 878 802 c 1
EndSplineSet
EndChar
StartChar: guillemotleft
Encoding: 109 171 111
OldEncoding: 171
Width: 1174
Flags: HW
Fore
1083 191 m 1
 684 610 l 1
 702 695 l 1
 1279 1113 l 1
 1239 925 l 1
 864 652 l 1
 1123 379 l 1
 1083 191 l 1
647 162 m 1
 232 608 l 1
 251 697 l 1
 855 1142 l 1
 814 946 l 1
 420 652 l 1
 689 358 l 1
 647 162 l 1
EndSplineSet
EndChar
StartChar: logicalnot
Encoding: 110 172 112
OldEncoding: 172
Width: 1490
Flags: HW
Fore
1335 57 m 1
 1164 57 l 1
 1279 602 l 1
 284 602 l 1
 318 762 l 1
 1484 762 l 1
 1335 57 l 1
EndSplineSet
EndChar
StartChar: registered
Encoding: 112 174 114
OldEncoding: 174
Width: 1902
Flags: HW
Fore
1955 655 m 0
 1904 416 1776 212 1572 44 c 128
 1366 -126 1145 -210 906 -210 c 128
 667 -210 482 -126 348 44 c 128
 216 212 174 416 225 655 c 128
 276 894 403 1097 608 1266 c 128
 813 1435 1034 1519 1273 1519 c 128
 1512 1519 1698 1435 1831 1266 c 128
 1964 1097 2006 894 1955 655 c 0
1840 655 m 0
 1884 864 1848 1042 1734 1188 c 128
 1618 1336 1458 1409 1251 1409 c 128
 1044 1409 852 1336 674 1188 c 128
 497 1042 386 864 342 655 c 128
 297 446 332 268 448 121 c 128
 562 -26 723 -100 930 -100 c 128
 1137 -100 1329 -26 1506 121 c 128
 1684 268 1795 446 1840 655 c 0
1493 215 m 1
 1266 215 l 1
 1059 570 l 1
 936 570 l 1
 860 215 l 1
 695 215 l 1
 890 1130 l 1
 1169 1130 l 2
 1232 1130 1281 1128 1316 1123 c 128
 1351 1118 1385 1105 1418 1084 c 0
 1453 1061 1476 1034 1488 1002 c 128
 1498 970 1499 929 1488 879 c 0
 1474 812 1444 758 1398 715 c 128
 1352 672 1297 639 1232 615 c 1
 1493 215 l 1
1304 868 m 0
 1309 893 1310 914 1306 932 c 128
 1301 950 1290 965 1273 978 c 0
 1259 989 1242 996 1222 1000 c 128
 1202 1003 1176 1005 1143 1005 c 2
 1028 1005 l 1
 962 696 l 1
 1060 696 l 2
 1092 696 1123 699 1152 706 c 128
 1181 712 1206 723 1227 738 c 128
 1248 753 1264 771 1276 791 c 128
 1288 811 1297 837 1304 868 c 0
EndSplineSet
EndChar
StartChar: macron
Encoding: 113 175 115
OldEncoding: 175
Width: 1118
Flags: HW
Fore
1486 1659 m 1
 336 1659 l 1
 364 1789 l 1
 1514 1789 l 1
 1486 1659 l 1
EndSplineSet
EndChar
StartChar: degree
Encoding: 114 176 116
OldEncoding: 176
Width: 964
Flags: HW
Fore
1104 1135 m 0
 1081 1028 1026 938 936 865 c 128
 848 792 749 755 642 755 c 0
 536 755 454 791 395 864 c 128
 336 937 319 1027 342 1135 c 0
 365 1242 420 1332 510 1405 c 128
 598 1478 697 1515 804 1515 c 128
 911 1515 994 1478 1052 1405 c 128
 1109 1332 1127 1242 1104 1135 c 0
947 1135 m 0
 960 1199 950 1253 917 1297 c 128
 884 1341 835 1363 771 1363 c 128
 707 1363 649 1341 597 1297 c 128
 545 1253 512 1199 499 1135 c 0
 485 1070 495 1015 530 972 c 128
 564 929 612 907 674 907 c 0
 738 907 796 929 848 974 c 128
 901 1018 934 1072 947 1135 c 0
EndSplineSet
EndChar
StartChar: plusminus
Encoding: 115 177 117
OldEncoding: 177
Width: 1490
Flags: HW
Fore
1361 159 m 1
 195 159 l 1
 229 317 l 1
 729 317 l 1
 819 739 l 1
 319 739 l 1
 352 897 l 1
 852 897 l 1
 960 1402 l 1
 1126 1402 l 1
 1018 897 l 1
 1518 897 l 1
 1485 739 l 1
 985 739 l 1
 895 317 l 1
 1395 317 l 1
 1361 159 l 1
EndSplineSet
EndChar
StartChar: uni00B2
Encoding: 116 178 118
OldEncoding: 178
Width: 1010
Flags: HW
Fore
986 566 m 1
 305 566 l 1
 337 718 l 1
 427 777 427 777 509 832 c 128
 564 868 609 900 644 929 c 0
 729 997 787 1050 817 1088 c 128
 847 1127 868 1173 879 1227 c 0
 889 1273 882 1308 859 1334 c 128
 836 1358 799 1371 748 1371 c 0
 702 1371 653 1361 602 1341 c 128
 551 1321 509 1300 477 1279 c 1
 462 1279 l 1
 500 1458 l 1
 546 1476 596 1491 649 1502 c 128
 702 1513 754 1519 803 1519 c 0
 907 1519 981 1493 1026 1440 c 128
 1071 1388 1084 1321 1067 1239 c 0
 1055 1182 1030 1128 992 1076 c 128
 955 1023 893 965 808 900 c 0
 767 869 719 837 666 802 c 128
 586 751 586 751 523 710 c 1
 1016 710 l 1
 986 566 l 1
EndSplineSet
EndChar
StartChar: uni00B3
Encoding: 117 179 119
OldEncoding: 179
Width: 1010
Flags: HW
Fore
1012 828 m 0
 1002 781 983 738 955 700 c 128
 927 663 895 633 858 611 c 0
 818 586 776 569 733 558 c 128
 690 547 642 542 589 542 c 0
 534 542 484 547 438 557 c 128
 393 567 350 581 311 600 c 1
 348 775 l 1
 365 775 l 1
 385 752 418 730 466 710 c 128
 512 691 562 681 615 681 c 0
 671 681 720 693 762 718 c 128
 804 742 830 778 840 826 c 0
 850 874 843 910 819 933 c 128
 795 956 748 968 679 968 c 2
 539 968 l 1
 569 1107 l 1
 694 1107 l 2
 752 1107 800 1120 836 1145 c 128
 874 1170 897 1205 906 1249 c 0
 915 1289 908 1321 886 1344 c 128
 863 1368 823 1380 765 1380 c 0
 721 1380 671 1370 616 1349 c 128
 561 1328 518 1306 488 1283 c 1
 471 1283 l 1
 508 1458 l 1
 555 1476 604 1491 656 1502 c 128
 709 1513 761 1519 814 1519 c 0
 915 1519 990 1496 1036 1449 c 128
 1084 1402 1100 1346 1086 1281 c 0
 1073 1223 1047 1175 1006 1138 c 128
 966 1100 919 1072 864 1055 c 1
 862 1047 l 1
 913 1036 954 1013 986 976 c 128
 1016 940 1025 891 1012 828 c 0
EndSplineSet
EndChar
StartChar: acute
Encoding: 118 180 120
OldEncoding: 180
Width: 1118
Flags: HW
Fore
1227 1676 m 1
 874 1302 l 1
 725 1302 l 1
 984 1676 l 1
 1227 1676 l 1
EndSplineSet
EndChar
StartChar: mu
Encoding: 119 181 121
OldEncoding: 181
Width: 1163
Flags: HW
Fore
1027 0 m 1
 855 0 l 1
 879 116 l 1
 873 116 l 1
 824 74 777 41 732 18 c 128
 687 -5 634 -17 574 -17 c 0
 513 -17 467 -5 436 18 c 128
 406 41 377 74 348 115 c 1
 236 -412 l 1
 48 -412 l 1
 373 1117 l 1
 561 1117 l 1
 382 275 l 1
 403 242 432 215 470 194 c 128
 507 174 555 164 612 164 c 0
 672 164 725 174 770 193 c 128
 815 212 858 240 897 275 c 1
 1076 1117 l 1
 1264 1117 l 1
 1027 0 l 1
EndSplineSet
EndChar
StartChar: paragraph
Encoding: 120 182 122
OldEncoding: 182
Width: 1118
Flags: HW
Fore
904 -363 m 1
 764 -363 l 1
 1130 1359 l 1
 943 1359 l 1
 577 -363 l 1
 437 -363 l 1
 641 593 l 1
 504 596 403 639 336 722 c 128
 269 805 251 914 280 1050 c 0
 309 1188 376 1296 478 1373 c 128
 582 1450 714 1489 876 1489 c 2
 1298 1489 l 1
 904 -363 l 1
EndSplineSet
EndChar
StartChar: periodcentered
Encoding: 121 183 123
OldEncoding: 183
Width: 724
Flags: HW
Fore
658 832 m 1
 419 832 l 1
 480 1117 l 1
 719 1117 l 1
 658 832 l 1
EndSplineSet
EndChar
StartChar: cedilla
Encoding: 122 184 124
OldEncoding: 184
Width: 1118
Flags: HW
Fore
771 20 m 1
 769 8 767 -7 764 -26 c 128
 762 -44 759 -65 754 -89 c 0
 731 -197 684 -280 614 -337 c 128
 544 -394 465 -423 376 -423 c 0
 351 -423 323 -421 290 -417 c 128
 257 -413 229 -407 204 -399 c 1
 238 -239 l 1
 247 -239 l 1
 261 -246 280 -254 304 -262 c 128
 329 -269 354 -273 381 -273 c 0
 444 -273 491 -260 524 -234 c 128
 556 -207 578 -165 591 -107 c 0
 596 -81 596 -81 602 -50 c 128
 607 -19 607 -19 614 20 c 1
 771 20 l 1
EndSplineSet
EndChar
StartChar: uni0E01
Encoding: 123 3585 125
OldEncoding: 3585
Width: 1240
Flags: HW
Fore
1225 673 m 2
 1082 0 l 1
 862 0 l 1
 1001 657 l 1
 1040 838 980 929 821 929 c 0
 715 929 630 896 566 831 c 1
 633 795 673 739 686 663 c 1
 682 661 645 628 575 563 c 0
 535 526 505 459 485 363 c 1
 408 0 l 1
 188 0 l 1
 265 363 l 2
 283 448 305 509 332 546 c 0
 353 576 395 618 458 671 c 1
 423 727 365 767 286 792 c 1
 313 855 362 917 434 979 c 1
 563 1092 708 1149 868 1149 c 0
 1018 1149 1125 1102 1188 1008 c 0
 1243 927 1255 815 1225 673 c 2
EndSplineSet
EndChar
StartChar: uni0E02
Encoding: 124 3586 126
OldEncoding: 3586
Width: 1400
Flags: HW
Fore
442 662 m 1
 461 660 l 1
 484 662 506 676 527 702 c 0
 534 711 539 719 542 726 c 1
 551 765 l 1
 554 793 545 813 522 824 c 0
 516 827 510 828 505 828 c 1
 489 825 l 1
 479 820 469 812 460 801 c 0
 450 789 440 774 431 755 c 0
 424 740 420 727 418 716 c 1
 416 694 l 1
 418 678 427 667 442 662 c 1
1047 771 m 1
 945 688 889 623 879 575 c 1
 820 298 l 2
 814 269 826 246 856 227 c 0
 875 216 896 210 920 210 c 0
 972 210 1012 225 1039 256 c 0
 1050 269 1057 283 1060 298 c 2
 1239 1139 l 1
 1459 1139 l 1
 1280 298 l 2
 1253 173 1187 84 1081 33 c 0
 1020 4 951 -10 873 -10 c 0
 770 -10 693 21 642 83 c 0
 595 140 581 212 600 298 c 1
 659 575 l 1
 669 623 722 686 818 763 c 0
 821 766 824 768 827 771 c 1
 834 823 828 866 808 899 c 0
 786 935 750 953 701 953 c 0
 695 953 689 953 682 952 c 0
 647 949 621 939 603 923 c 0
 600 920 l 1
 650 914 678 881 684 820 c 1
 685 797 683 773 678 748 c 0
 665 685 633 632 582 590 c 1
 551 568 l 1
 511 543 467 531 419 531 c 0
 411 531 403 531 395 532 c 0
 315 539 268 582 253 660 c 0
 246 697 248 740 258 789 c 0
 260 798 262 806 265 815 c 0
 296 912 347 988 420 1043 c 0
 505 1107 593 1142 685 1148 c 0
 696 1149 708 1149 720 1149 c 0
 812 1149 887 1128 946 1086 c 0
 963 1075 976 1062 986 1049 c 0
 1017 1011 1038 959 1049 894 c 0
 1056 850 1055 809 1047 771 c 1
EndSplineSet
EndChar
StartChar: uni0E03
Encoding: 125 3587 127
OldEncoding: 3587
Width: 1450
Flags: HW
Fore
404 588 m 1
 423 586 l 1
 446 588 468 602 489 628 c 0
 496 637 501 645 504 652 c 1
 513 691 l 1
 516 719 507 739 484 750 c 0
 479 753 473 754 468 754 c 2
 451 751 l 1
 442 746 432 738 422 727 c 0
 412 715 402 700 393 681 c 1
 387 666 383 653 380 642 c 0
 374 614 382 596 404 588 c 1
860 929 m 1
 749 857 648 857 557 929 c 1
 533 903 517 882 509 866 c 0
 508 865 507 863 507 862 c 1
 586 862 631 827 643 756 c 0
 648 729 647 702 641 674 c 0
 628 611 595 558 544 516 c 0
 497 477 444 457 383 457 c 0
 374 457 366 457 357 458 c 0
 290 464 247 500 226 567 c 0
 213 608 212 654 223 703 c 0
 226 716 229 729 233 741 c 0
 261 821 289 882 317 923 c 0
 334 948 355 974 380 999 c 0
 429 1048 484 1090 547 1124 c 0
 568 1135 587 1144 604 1149 c 1
 740 1041 l 1
 907 1149 l 1
 949 1137 987 1112 1021 1073 c 0
 1028 1065 1034 1057 1039 1049 c 1
 1070 1011 1091 959 1102 894 c 0
 1109 850 1108 809 1100 771 c 1
 998 688 942 623 932 575 c 1
 873 298 l 2
 867 269 879 246 909 227 c 0
 928 216 949 210 973 210 c 0
 1025 210 1065 225 1092 256 c 0
 1103 269 1110 283 1113 298 c 2
 1292 1139 l 1
 1512 1139 l 1
 1333 298 l 2
 1306 173 1240 84 1134 33 c 0
 1073 4 1004 -10 926 -10 c 0
 823 -10 746 21 695 83 c 0
 648 140 634 212 653 298 c 1
 712 575 l 1
 722 623 771 680 859 745 c 0
 876 758 876 758 894 771 c 1
 899 806 894 845 880 887 c 0
 875 904 868 918 860 929 c 1
EndSplineSet
EndChar
StartChar: uni0E04
Encoding: 126 3588 128
OldEncoding: 3588
Width: 1370
Flags: HW
Fore
895 565 m 1
 886 571 878 574 869 574 c 0
 848 574 824 559 796 528 c 0
 773 503 760 482 756 464 c 0
 753 448 757 435 769 425 c 0
 776 418 786 415 798 415 c 0
 825 415 852 429 879 457 c 0
 892 472 901 488 905 505 c 0
 910 527 906 547 895 565 c 1
502 384 m 1
 555 476 590 533 607 555 c 0
 616 567 625 579 635 590 c 0
 680 643 734 680 796 702 c 0
 823 711 848 716 872 716 c 0
 886 716 899 714 912 711 c 0
 949 701 980 676 1005 637 c 0
 1018 616 1025 596 1026 577 c 1
 1031 556 1031 535 1026 514 c 0
 1017 471 991 429 949 388 c 0
 901 341 856 315 813 308 c 1
 771 305 l 2
 769 305 769 305 766 305 c 0
 735 306 711 315 694 331 c 1
 692 334 690 336 689 338 c 1
 668 319 626 254 561 141 c 0
 519 66 496 19 491 0 c 1
 251 0 l 1
 273 108 l 1
 281 145 286 225 287 346 c 0
 288 492 297 603 313 680 c 0
 322 723 334 763 349 798 c 0
 396 909 470 995 572 1056 c 0
 657 1107 749 1137 849 1146 c 0
 872 1148 898 1149 925 1149 c 1
 994 1146 l 1
 1077 1137 1150 1113 1213 1074 c 0
 1263 1043 1300 1005 1323 958 c 0
 1354 898 1365 828 1356 749 c 0
 1353 727 1349 703 1343 677 c 1
 1200 0 l 1
 980 0 l 1
 1121 664 l 1
 1132 715 1132 755 1123 782 c 0
 1103 839 1060 881 994 908 c 0
 958 922 921 929 882 929 c 0
 807 929 734 905 663 857 c 0
 625 832 596 804 577 774 c 0
 554 738 537 696 526 647 c 0
 519 613 513 550 508 459 c 0
 507 428 505 403 502 384 c 1
EndSplineSet
EndChar
StartChar: uni0E05
Encoding: 127 3589 129
OldEncoding: 3589
Width: 1370
Flags: HW
Fore
882 565 m 1
 873 571 864 574 855 574 c 0
 834 574 810 559 782 528 c 0
 760 503 747 482 743 464 c 0
 740 448 744 435 756 425 c 0
 763 418 773 415 784 415 c 0
 812 415 839 429 866 457 c 0
 879 472 888 488 891 505 c 0
 896 527 893 547 882 565 c 1
569 802 m 0
 546 766 528 721 517 668 c 0
 509 630 502 559 495 456 c 0
 493 426 491 402 489 384 c 1
 542 476 577 533 593 555 c 0
 602 567 612 579 622 590 c 0
 667 643 721 680 782 702 c 0
 809 711 834 716 858 716 c 0
 873 716 886 714 899 711 c 0
 936 701 967 676 992 637 c 1
 1005 616 1011 596 1012 577 c 1
 1017 556 1018 535 1013 514 c 0
 1004 471 978 429 935 388 c 0
 887 341 842 315 799 308 c 1
 758 305 l 2
 755 305 755 305 753 305 c 0
 721 306 697 315 681 331 c 0
 679 334 677 336 676 338 c 1
 655 319 612 254 548 141 c 0
 505 66 482 19 478 0 c 1
 238 0 l 1
 260 108 l 1
 268 145 273 228 275 356 c 0
 278 510 288 627 305 706 c 0
 314 751 327 791 342 826 c 0
 388 937 462 1023 565 1084 c 0
 626 1121 690 1142 757 1149 c 1
 896 1033 l 1
 1094 1149 l 1
 1200 1124 1274 1070 1316 986 c 1
 1354 913 1359 810 1330 677 c 1
 1187 0 l 1
 967 0 l 1
 1108 664 l 1
 1123 734 1125 783 1116 810 c 0
 1102 849 1078 882 1043 909 c 1
 845 795 l 1
 706 909 l 1
 647 886 601 851 569 802 c 0
EndSplineSet
EndChar
StartChar: uni0E06
Encoding: 128 3590 130
OldEncoding: 3590
Width: 1520
Flags: HW
Fore
394 588 m 1
 413 586 l 1
 436 588 458 602 479 628 c 0
 486 637 491 645 494 652 c 1
 503 691 l 1
 506 719 497 739 474 750 c 0
 469 753 463 754 458 754 c 2
 441 751 l 1
 432 746 422 738 412 727 c 0
 402 715 392 700 383 681 c 1
 377 666 373 653 370 642 c 0
 364 614 372 596 394 588 c 1
891 430 m 1
 946 363 1003 312 1061 277 c 1
 1092 260 1119 251 1140 250 c 0
 1147 250 1155 252 1164 255 c 0
 1182 263 1194 278 1201 299 c 0
 1203 306 1209 332 1219 377 c 1
 1381 1139 l 1
 1601 1139 l 1
 1405 218 l 2
 1384 121 1344 55 1283 21 c 0
 1244 -2 1203 -13 1160 -13 c 0
 1129 -13 1099 -7 1070 6 c 0
 1029 24 973 57 904 106 c 0
 873 128 850 147 833 164 c 1
 823 116 797 75 754 42 c 0
 713 10 666 -7 613 -10 c 2
 597 -10 l 2
 531 -8 482 12 449 49 c 0
 444 55 439 61 434 68 c 0
 415 95 407 138 412 198 c 1
 418 249 l 1
 419 255 421 261 423 267 c 0
 446 345 490 407 553 453 c 0
 593 482 638 500 687 507 c 1
 702 575 l 1
 712 623 761 680 849 745 c 0
 866 758 866 758 884 771 c 1
 889 806 884 845 870 887 c 0
 865 904 858 918 850 929 c 1
 739 857 638 857 547 929 c 1
 523 903 507 882 499 866 c 0
 498 865 497 863 497 862 c 1
 576 862 621 827 633 756 c 0
 638 729 637 702 631 674 c 0
 618 611 585 558 534 516 c 0
 487 477 434 457 373 457 c 0
 364 457 356 457 347 458 c 0
 280 464 237 500 216 567 c 0
 203 608 202 654 213 703 c 0
 216 716 219 729 223 741 c 0
 251 821 279 882 307 923 c 0
 324 948 345 974 370 999 c 0
 419 1048 474 1090 537 1124 c 0
 558 1135 577 1144 594 1149 c 1
 730 1041 l 1
 897 1149 l 1
 939 1137 977 1112 1011 1073 c 1
 1029 1049 l 1
 1060 1011 1081 959 1092 894 c 0
 1099 850 1098 809 1090 771 c 1
 989 689 933 624 922 575 c 1
 891 430 l 1
662 317 m 1
 648 317 635 313 622 304 c 0
 595 285 577 257 568 219 c 0
 559 177 566 156 588 156 c 0
 609 156 624 167 633 190 c 0
 636 198 639 209 642 222 c 1
 662 317 l 1
EndSplineSet
EndChar
StartChar: uni0E07
Encoding: 129 3591 131
OldEncoding: 3591
Width: 1000
Flags: HW
Fore
912 272 m 1
 888 157 828 77 733 30 c 0
 680 3 619 -10 550 -10 c 0
 388 -10 300 68 286 223 c 0
 285 238 284 255 284 272 c 1
 297 719 l 1
 522 640 l 1
 514 312 l 1
 511 255 531 221 574 212 c 0
 580 211 587 210 594 210 c 0
 649 210 685 244 701 312 c 1
 796 759 l 1
 787 754 769 752 744 752 c 0
 737 752 737 752 733 752 c 0
 706 755 681 768 659 792 c 0
 630 823 622 867 633 922 c 0
 638 947 648 974 662 1004 c 0
 683 1047 717 1084 766 1114 c 0
 805 1137 848 1149 895 1149 c 0
 950 1148 991 1130 1019 1095 c 1
 1055 1052 1063 980 1042 881 c 1
 912 272 l 1
837 1026 m 0
 818 1026 799 1015 779 994 c 1
 766 977 757 960 754 941 c 0
 749 920 751 902 759 886 c 0
 768 867 783 857 802 857 c 0
 819 857 835 865 850 882 c 0
 860 895 868 916 874 945 c 0
 881 975 880 996 873 1008 c 128
 866 1020 854 1026 837 1026 c 0
EndSplineSet
EndChar
StartChar: uni0E08
Encoding: 130 3592 132
OldEncoding: 3592
Width: 1200
Flags: HW
Fore
528 283 m 1
 547 373 l 1
 534 362 520 355 504 350 c 0
 489 346 475 344 462 344 c 0
 423 345 392 361 367 392 c 0
 340 425 332 469 344 524 c 0
 365 621 415 687 496 723 c 0
 521 734 548 741 576 745 c 0
 661 756 726 739 769 694 c 1
 804 653 814 594 797 517 c 1
 748 283 l 1
 737 234 752 210 792 210 c 0
 832 210 857 233 867 279 c 1
 955 695 l 1
 970 763 965 812 942 842 c 0
 904 890 855 918 796 926 c 0
 780 928 762 929 743 929 c 0
 655 929 570 901 487 846 c 0
 456 825 429 801 406 775 c 1
 301 929 l 1
 356 998 435 1054 539 1097 c 0
 623 1132 706 1149 788 1149 c 0
 973 1149 1098 1095 1161 987 c 0
 1198 924 1206 841 1185 740 c 1
 1087 279 l 1
 1046 86 932 -10 745 -10 c 0
 558 -10 486 88 528 283 c 1
546 625 m 0
 524 625 503 613 484 590 c 0
 473 577 467 565 464 552 c 0
 462 540 l 1
 463 498 470 472 484 463 c 0
 491 458 499 456 510 456 c 0
 547 459 570 484 581 532 c 0
 582 536 582 540 583 545 c 0
 594 598 582 625 546 625 c 0
EndSplineSet
EndChar
StartChar: uni0E09
Encoding: 131 3593 133
OldEncoding: 3593
Width: 1395
Flags: HW
Fore
1044 714 m 1
 1064 807 1036 871 961 907 c 1
 920 922 l 1
 892 930 861 934 827 934 c 0
 738 934 652 907 569 853 c 0
 538 834 512 812 489 788 c 1
 380 942 l 1
 433 1006 510 1058 611 1098 c 0
 698 1132 784 1149 869 1149 c 0
 1044 1149 1164 1101 1229 1004 c 1
 1249 966 l 1
 1280 898 1285 814 1264 713 c 2
 1220 507 l 1
 1267 500 1304 482 1332 453 c 0
 1363 421 1377 371 1375 304 c 0
 1375 284 1373 264 1368 244 c 0
 1354 176 1330 123 1297 84 c 0
 1292 78 1287 73 1282 68 c 0
 1232 25 1180 -0 1125 -7 c 0
 1114 -8 1103 -9 1090 -10 c 1
 1051 -8 l 1
 1010 -1 978 15 955 42 c 0
 927 75 918 116 928 164 c 1
 863 119 787 74 698 30 c 1
 645 6 l 1
 611 -7 578 -13 547 -13 c 0
 504 -13 468 -2 438 21 c 0
 392 55 379 121 400 218 c 2
 437 393 l 1
 414 374 386 365 353 365 c 0
 298 365 262 389 243 438 c 0
 230 470 228 507 237 550 c 0
 242 574 251 598 262 623 c 0
 281 663 314 698 361 727 c 0
 403 753 445 766 487 766 c 0
 564 766 621 746 658 706 c 0
 693 667 703 613 688 544 c 2
 653 377 l 1
 641 322 635 290 635 282 c 0
 636 269 643 260 656 255 c 1
 674 253 l 1
 719 256 794 295 901 368 c 0
 930 389 958 409 984 430 c 1
 1044 714 l 1
435 645 m 0
 411 645 389 631 370 604 c 0
 360 590 354 575 351 560 c 0
 346 523 353 498 373 484 c 0
 381 479 390 476 400 476 c 0
 436 479 459 504 469 553 c 0
 470 556 470 560 471 564 c 0
 483 618 471 645 435 645 c 0
1163 317 m 1
 1143 222 l 1
 1135 187 1138 166 1151 160 c 1
 1155 157 1161 156 1169 156 c 0
 1191 156 1206 177 1215 219 c 0
 1222 257 1216 285 1197 304 c 0
 1188 313 1177 317 1163 317 c 1
EndSplineSet
EndChar
StartChar: uni0E0A
Encoding: 132 3594 134
OldEncoding: 3594
Width: 1390
Flags: HW
Fore
436 662 m 1
 455 660 l 1
 478 662 500 676 521 702 c 0
 528 711 533 719 536 726 c 1
 545 765 l 1
 548 793 539 813 516 824 c 0
 510 827 504 828 499 828 c 1
 483 825 l 1
 473 820 463 812 454 801 c 0
 444 789 434 774 425 755 c 0
 418 740 414 727 412 716 c 0
 406 688 414 670 436 662 c 1
1030 719 m 1
 979 690 936 655 903 613 c 0
 883 588 871 566 866 545 c 1
 814 298 l 2
 808 269 820 246 850 227 c 0
 869 216 890 210 914 210 c 0
 966 210 1006 225 1033 256 c 0
 1044 269 1051 283 1054 298 c 2
 1107 546 l 1
 1116 593 1117 626 1108 646 c 0
 1102 659 1092 671 1078 684 c 1
 1036 715 l 2
 1035 716 1033 718 1030 719 c 1
1037 924 m 1
 1127 936 1200 970 1256 1025 c 0
 1296 1064 1322 1110 1333 1163 c 1
 1338 1188 l 1
 1573 1188 l 1
 1568 1164 l 2
 1551 1087 1510 1014 1443 945 c 0
 1386 885 1324 845 1259 825 c 1
 1320 782 1350 731 1350 673 c 0
 1349 659 1347 644 1344 629 c 2
 1274 298 l 2
 1247 173 1181 84 1075 33 c 0
 1014 4 945 -10 867 -10 c 0
 764 -10 687 21 636 83 c 0
 589 140 575 212 594 298 c 1
 653 575 l 1
 663 623 716 686 812 763 c 0
 815 766 818 768 821 771 c 1
 828 823 822 866 802 899 c 0
 780 935 744 953 695 953 c 0
 689 953 683 953 676 952 c 0
 641 949 615 939 597 923 c 0
 594 920 l 1
 644 914 672 881 678 820 c 1
 679 797 677 773 672 748 c 0
 659 685 627 632 576 590 c 0
 528 551 474 531 414 531 c 0
 405 531 397 531 389 532 c 0
 309 539 262 582 247 660 c 0
 240 697 242 740 252 789 c 0
 254 798 256 806 259 815 c 0
 290 912 341 988 414 1043 c 0
 499 1107 587 1142 679 1148 c 0
 690 1149 702 1149 714 1149 c 0
 806 1149 881 1128 940 1086 c 0
 957 1075 970 1062 980 1049 c 1
 1005 1018 1024 977 1037 924 c 1
EndSplineSet
EndChar
StartChar: uni0E0B
Encoding: 133 3595 135
OldEncoding: 3595
Width: 1450
Flags: HW
Fore
404 588 m 1
 423 586 l 1
 446 588 468 602 489 628 c 0
 496 637 501 645 504 652 c 1
 513 691 l 1
 516 719 507 739 484 750 c 0
 479 753 473 754 468 754 c 2
 451 751 l 1
 442 746 432 738 422 727 c 0
 412 715 402 700 393 681 c 1
 387 666 383 653 380 642 c 0
 374 614 382 596 404 588 c 1
1044 1050 m 1
 1071 1017 1093 975 1109 924 c 1
 1199 936 1272 970 1328 1025 c 0
 1368 1064 1394 1110 1405 1163 c 1
 1410 1188 l 1
 1645 1188 l 1
 1640 1164 l 2
 1623 1087 1582 1014 1515 945 c 1
 1490 918 1462 894 1433 875 c 0
 1406 856 1379 842 1350 832 c 0
 1343 829 1337 827 1331 825 c 1
 1392 782 1422 731 1422 673 c 0
 1421 659 1419 644 1416 629 c 2
 1346 298 l 2
 1319 173 1253 84 1147 33 c 0
 1086 4 1017 -10 939 -10 c 0
 836 -10 759 21 708 83 c 0
 661 140 647 212 666 298 c 1
 725 575 l 1
 735 623 788 686 884 763 c 0
 887 766 890 768 893 771 c 1
 898 807 893 846 880 887 c 0
 875 904 868 918 860 929 c 1
 749 857 648 857 557 929 c 1
 533 903 517 882 509 866 c 0
 508 865 507 863 507 862 c 1
 586 862 631 827 643 756 c 0
 648 729 647 702 641 674 c 0
 628 611 595 558 544 516 c 0
 497 477 444 457 383 457 c 0
 374 457 366 457 357 458 c 0
 290 464 247 500 226 567 c 0
 213 608 212 654 223 703 c 0
 226 716 229 729 233 741 c 0
 261 821 289 882 317 923 c 0
 334 948 355 974 380 999 c 0
 429 1048 484 1090 547 1124 c 0
 568 1135 587 1144 604 1149 c 1
 740 1041 l 1
 907 1149 l 1
 942 1139 982 1112 1026 1068 c 0
 1036 1058 1036 1058 1044 1050 c 1
1102 719 m 1
 1051 690 1008 655 975 613 c 0
 955 588 943 566 938 545 c 1
 886 298 l 2
 880 269 892 246 922 227 c 0
 941 216 962 210 986 210 c 0
 1038 210 1078 225 1105 256 c 0
 1116 269 1123 283 1126 298 c 2
 1179 546 l 1
 1188 593 1189 626 1180 646 c 0
 1174 659 1164 671 1150 684 c 1
 1108 715 l 2
 1107 716 1105 718 1102 719 c 1
EndSplineSet
EndChar
StartChar: uni0E0C
Encoding: 134 3596 136
OldEncoding: 3596
Width: 1750
Flags: HW
Fore
999 657 m 2
 1038 838 978 929 819 929 c 0
 713 929 628 896 564 831 c 1
 631 795 671 739 684 663 c 1
 680 661 643 628 573 563 c 0
 533 526 504 463 485 376 c 1
 483 363 l 1
 504 382 530 391 560 391 c 0
 579 392 597 388 614 380 c 0
 633 371 649 359 661 344 c 0
 688 310 696 264 683 206 c 1
 679 182 671 158 658 133 c 0
 629 76 586 35 527 10 c 0
 494 -3 461 -10 426 -10 c 0
 378 -9 342 -3 317 9 c 0
 297 20 278 35 259 56 c 0
 229 90 223 156 240 254 c 0
 243 269 246 285 250 303 c 1
 263 366 l 1
 281 449 303 509 330 546 c 0
 351 576 393 618 456 671 c 1
 421 727 363 767 284 792 c 1
 311 855 360 917 432 979 c 1
 561 1092 706 1149 866 1149 c 0
 1016 1149 1123 1102 1186 1008 c 0
 1240 928 1252 816 1222 673 c 1
 1170 430 l 1
 1228 359 1269 314 1293 293 c 0
 1325 264 1353 250 1377 250 c 0
 1384 250 1392 252 1399 255 c 0
 1417 263 1429 278 1436 299 c 0
 1438 306 1444 332 1454 377 c 1
 1616 1139 l 1
 1835 1139 l 1
 1639 218 l 2
 1618 121 1578 55 1517 21 c 0
 1478 -2 1437 -13 1394 -13 c 0
 1363 -13 1333 -7 1304 6 c 0
 1267 22 1204 75 1113 164 c 1
 1103 116 1077 75 1034 42 c 0
 993 10 946 -7 893 -10 c 2
 877 -10 l 2
 811 -8 762 12 729 49 c 0
 724 55 719 61 714 68 c 0
 695 95 687 138 692 198 c 1
 698 249 l 1
 699 255 701 261 703 267 c 0
 726 345 770 407 833 453 c 0
 873 482 918 500 967 507 c 1
 999 657 l 2
942 317 m 1
 928 317 915 313 902 304 c 0
 875 285 857 257 848 219 c 0
 839 177 846 156 868 156 c 0
 889 156 904 167 913 190 c 0
 916 198 919 209 922 222 c 1
 942 317 l 1
472 110 m 0
 497 110 519 124 538 152 c 0
 547 165 553 179 556 195 c 0
 563 238 554 265 529 276 c 0
 523 279 516 280 508 280 c 0
 477 280 456 260 443 220 c 0
 442 215 440 210 439 204 c 0
 426 141 437 110 472 110 c 0
EndSplineSet
EndChar
StartChar: uni0E0D
Encoding: 135 3597 137
OldEncoding: 3597
Width: 1745
Flags: HW
Fore
1200 310 m 2
 1193 275 1201 248 1225 229 c 0
 1241 216 1262 210 1288 210 c 0
 1365 210 1411 243 1425 310 c 1
 1602 1139 l 1
 1822 1139 l 1
 1631 241 l 2
 1613 157 1559 91 1470 44 c 0
 1401 8 1327 -10 1247 -10 c 0
 1241 -10 l 0
 1148 -9 1075 17 1022 66 c 0
 970 114 952 175 967 249 c 1
 1054 657 l 2
 1093 838 1033 929 874 929 c 0
 768 929 683 896 619 831 c 1
 686 795 726 739 739 663 c 1
 735 661 698 628 628 563 c 0
 588 526 559 463 540 376 c 1
 538 363 l 1
 559 382 585 391 615 391 c 0
 634 392 652 388 669 380 c 0
 688 371 704 359 716 344 c 0
 743 310 751 264 738 206 c 1
 734 182 726 158 713 133 c 0
 684 76 641 35 582 10 c 0
 549 -3 516 -10 481 -10 c 0
 433 -9 397 -3 372 9 c 0
 352 20 333 35 314 56 c 0
 284 90 278 156 295 254 c 0
 298 269 301 285 305 303 c 1
 318 366 l 1
 336 449 358 509 385 546 c 0
 406 576 448 618 511 671 c 1
 476 727 418 767 339 792 c 1
 366 855 415 917 487 979 c 1
 616 1092 761 1149 921 1149 c 0
 1071 1149 1178 1102 1241 1008 c 0
 1296 927 1308 815 1278 673 c 1
 1200 310 l 2
527 110 m 0
 552 110 574 124 593 152 c 0
 602 165 608 179 611 195 c 0
 618 238 609 265 584 276 c 0
 578 279 571 280 563 280 c 0
 532 280 511 260 498 220 c 0
 497 215 495 210 494 204 c 0
 481 141 492 110 527 110 c 0
1099 -22 m 0
 1158 -25 1197 -48 1214 -92 c 0
 1223 -116 1225 -145 1218 -178 c 0
 1217 -185 1215 -191 1212 -198 c 1
 1205 -223 1189 -245 1164 -265 c 1
 1266 -246 1344 -196 1398 -113 c 0
 1414 -88 1427 -62 1436 -34 c 1
 1603 -48 l 1
 1582 -137 1533 -217 1456 -286 c 1
 1416 -319 l 1
 1355 -364 1289 -393 1218 -408 c 0
 1187 -414 1156 -417 1125 -417 c 0
 997 -417 919 -378 890 -300 c 0
 888 -294 886 -288 885 -282 c 0
 879 -256 879 -228 885 -199 c 0
 899 -138 929 -91 976 -58 c 0
 1009 -34 1047 -22 1089 -22 c 0
 1099 -22 l 0
1021 -235 m 1
 1039 -237 l 1
 1062 -235 1080 -224 1092 -204 c 0
 1094 -201 1096 -199 1097 -196 c 1
 1101 -176 l 1
 1102 -154 1094 -140 1075 -133 c 0
 1074 -133 1072 -133 1071 -132 c 2
 1050 -130 l 1
 1031 -136 l 2
 1021 -140 1013 -146 1007 -155 c 2
 997 -171 l 1
 992 -191 l 1
 989 -212 999 -227 1021 -235 c 1
EndSplineSet
EndChar
StartChar: uni0E0E
Encoding: 136 3598 138
OldEncoding: 3598
Width: 1375
Flags: HW
Fore
1145 657 m 1
 1184 838 1124 929 965 929 c 0
 859 929 774 896 710 831 c 1
 777 795 817 739 830 663 c 1
 826 661 789 628 719 563 c 0
 679 526 650 463 631 376 c 1
 616 303 l 1
 593 194 562 119 525 78 c 0
 518 70 510 63 501 56 c 0
 448 15 395 -6 340 -9 c 0
 333 -10 321 -10 306 -10 c 0
 232 -10 181 18 153 73 c 0
 144 91 138 111 136 133 c 0
 134 158 136 182 141 206 c 0
 154 264 181 310 223 344 c 0
 261 375 301 391 343 391 c 0
 356 392 368 390 379 386 c 0
 392 381 402 373 409 363 c 1
 413 384 l 1
 428 455 449 509 476 546 c 0
 497 576 539 618 602 671 c 1
 567 727 509 767 430 792 c 1
 457 855 506 917 578 979 c 1
 707 1092 852 1149 1012 1149 c 0
 1162 1149 1269 1102 1332 1008 c 0
 1387 927 1399 815 1369 673 c 1
 1138 -410 l 1
 918 -410 l 1
 876 -321 825 -258 765 -220 c 1
 704 -303 637 -361 565 -395 c 1
 562 -396 559 -397 557 -398 c 0
 508 -419 456 -430 400 -430 c 0
 314 -430 255 -405 224 -355 c 0
 223 -354 222 -352 221 -350 c 0
 206 -323 202 -291 209 -255 c 0
 214 -235 221 -214 232 -193 c 0
 263 -134 310 -85 371 -47 c 0
 393 -34 415 -23 436 -16 c 0
 486 1 538 10 591 10 c 0
 640 10 688 3 735 -12 c 1
 850 142 l 1
 974 88 l 1
 863 -67 l 1
 894 -80 925 -103 958 -137 c 0
 964 -144 969 -150 973 -155 c 1
 1145 657 l 1
312 110 m 0
 347 110 372 141 385 204 c 0
 394 249 385 274 358 279 c 0
 355 280 351 280 348 280 c 0
 319 280 295 262 277 226 c 0
 272 217 267 206 264 195 c 0
 256 159 263 133 285 118 c 0
 293 113 302 110 312 110 c 0
401 -252 m 0
 407 -266 420 -273 440 -273 c 0
 464 -273 496 -263 535 -243 c 0
 549 -236 571 -218 600 -187 c 0
 613 -174 622 -163 628 -154 c 1
 614 -139 590 -132 557 -132 c 0
 554 -132 554 -132 550 -132 c 0
 513 -134 479 -145 447 -164 c 1
 426 -178 411 -196 402 -218 c 1
 398 -237 l 1
 397 -242 398 -247 401 -252 c 0
EndSplineSet
EndChar
StartChar: uni0E0F
Encoding: 137 3599 139
OldEncoding: 3599
Width: 1375
Flags: HW
Fore
311 110 m 0
 346 110 371 141 384 204 c 0
 393 249 384 274 357 279 c 0
 354 280 350 280 347 280 c 0
 318 280 294 262 276 226 c 0
 271 217 266 206 263 195 c 0
 255 159 262 133 284 118 c 0
 292 113 301 110 311 110 c 0
1144 657 m 1
 1182 838 1122 929 964 929 c 0
 858 929 773 896 709 831 c 1
 776 795 816 739 829 663 c 1
 825 661 788 628 718 563 c 0
 678 526 649 463 630 376 c 1
 615 303 l 1
 592 194 561 119 524 78 c 0
 517 70 509 63 500 56 c 0
 447 15 394 -6 339 -9 c 0
 332 -10 320 -10 305 -10 c 0
 231 -10 180 18 152 73 c 0
 143 91 137 111 135 133 c 0
 133 158 135 182 140 206 c 0
 153 264 180 310 222 344 c 0
 260 375 300 391 342 391 c 0
 355 392 367 390 378 386 c 0
 391 381 401 373 408 363 c 1
 412 384 l 1
 427 455 448 509 475 546 c 0
 496 576 538 618 601 671 c 1
 566 727 508 767 429 792 c 1
 456 855 505 917 577 979 c 1
 706 1092 851 1149 1011 1149 c 0
 1161 1149 1268 1102 1331 1008 c 0
 1386 927 1398 815 1368 673 c 1
 1137 -410 l 1
 920 -410 l 1
 921 -314 901 -260 858 -247 c 1
 840 -245 l 1
 809 -245 766 -283 711 -360 c 0
 701 -374 691 -388 682 -403 c 1
 659 -343 640 -303 623 -284 c 0
 615 -276 l 1
 573 -323 532 -359 492 -384 c 0
 443 -414 385 -429 318 -429 c 0
 302 -429 286 -428 271 -426 c 0
 210 -419 169 -390 148 -341 c 0
 134 -310 131 -274 140 -234 c 0
 155 -162 201 -103 277 -57 c 0
 342 -19 410 0 482 1 c 1
 532 -3 l 1
 563 -8 594 -17 623 -32 c 1
 741 119 l 1
 858 73 l 1
 740 -90 l 1
 747 -97 753 -107 758 -122 c 1
 793 -77 826 -44 859 -23 c 0
 872 -14 882 -10 890 -10 c 0
 919 -10 953 -27 992 -61 c 1
 1144 657 l 1
301 -268 m 0
 310 -285 326 -293 348 -293 c 0
 371 -293 403 -283 444 -263 c 1
 459 -254 479 -235 506 -205 c 0
 518 -192 526 -181 531 -173 c 1
 519 -159 490 -152 445 -152 c 0
 410 -152 378 -160 349 -176 c 0
 331 -187 316 -203 304 -224 c 1
 296 -245 l 1
 295 -252 296 -258 299 -263 c 1
 299 -265 300 -267 301 -268 c 0
EndSplineSet
EndChar
StartChar: uni0E10
Encoding: 138 3600 140
OldEncoding: 3600
Width: 1130
Flags: HW
Fore
921 529 m 1
 928 562 919 587 892 603 c 1
 820 636 l 1
 719 672 551 707 317 742 c 1
 354 829 396 901 444 957 c 0
 494 1016 556 1063 629 1099 c 0
 697 1132 778 1149 873 1149 c 0
 950 1149 1018 1134 1078 1103 c 0
 1129 1077 1186 1064 1248 1064 c 0
 1275 1064 1300 1067 1324 1072 c 1
 1241 862 l 1
 1223 858 1203 856 1180 856 c 0
 1159 855 1137 857 1115 861 c 0
 1075 867 1043 876 1019 889 c 0
 964 918 904 935 837 940 c 2
 818 941 l 2
 745 941 696 925 669 892 c 1
 864 853 992 815 1053 778 c 0
 1136 728 1169 660 1150 573 c 1
 1088 279 l 1
 1047 86 933 -10 746 -10 c 0
 559 -10 487 88 529 283 c 1
 530 289 l 1
 518 278 504 271 487 266 c 0
 472 262 458 260 445 260 c 0
 406 261 375 277 350 308 c 0
 323 341 316 385 327 440 c 0
 348 537 398 603 479 639 c 0
 504 650 531 657 559 661 c 0
 645 672 709 655 752 610 c 1
 787 569 797 510 781 433 c 1
 749 283 l 1
 738 234 753 210 793 210 c 0
 833 210 858 233 868 279 c 1
 921 529 l 1
529 541 m 0
 505 541 484 528 465 502 c 0
 456 489 449 475 446 460 c 0
 446 459 446 457 445 456 c 0
 436 405 450 377 485 373 c 0
 488 372 491 372 494 372 c 0
 530 375 553 400 564 448 c 0
 565 452 565 456 566 461 c 0
 577 514 565 541 529 541 c 0
679 -319 m 1
 688 -273 l 1
 661 -276 l 1
 627 -275 601 -265 582 -246 c 0
 561 -226 553 -200 560 -168 c 0
 563 -153 569 -139 578 -124 c 1
 592 -95 619 -72 660 -53 c 0
 687 -40 713 -34 738 -34 c 0
 794 -34 836 -45 863 -66 c 0
 892 -88 902 -128 894 -187 c 0
 891 -203 891 -203 887 -223 c 1
 822 -530 l 1
 639 -530 l 1
 630 -480 606 -453 569 -450 c 1
 539 -450 501 -473 456 -520 c 0
 452 -524 452 -524 447 -529 c 1
 431 -496 405 -459 368 -418 c 1
 334 -453 294 -483 248 -508 c 1
 203 -530 158 -541 114 -541 c 0
 72 -541 38 -531 12 -510 c 0
 2 -501 -7 -491 -14 -478 c 0
 -23 -463 -25 -441 -19 -414 c 0
 -13 -383 0 -353 21 -326 c 0
 30 -313 40 -303 51 -294 c 0
 102 -255 161 -235 230 -234 c 0
 271 -234 303 -239 326 -249 c 0
 337 -254 344 -257 347 -258 c 1
 386 -217 l 2
 393 -210 400 -202 407 -192 c 1
 517 -239 l 1
 459 -306 l 1
 465 -309 476 -319 492 -336 c 1
 524 -300 562 -282 605 -282 c 0
 636 -282 661 -294 679 -319 c 1
709 -106 m 1
 686 -106 668 -116 655 -136 c 0
 651 -142 648 -148 647 -155 c 0
 645 -162 645 -168 646 -174 c 0
 649 -193 662 -204 683 -205 c 0
 687 -205 l 0
 709 -205 725 -195 736 -176 c 1
 743 -158 l 1
 748 -131 741 -114 720 -108 c 2
 709 -106 l 1
111 -418 m 0
 119 -429 130 -435 145 -435 c 0
 154 -435 163 -433 174 -430 c 0
 183 -427 194 -423 207 -418 c 0
 220 -412 239 -397 263 -374 c 0
 268 -369 273 -365 277 -360 c 1
 266 -351 247 -346 220 -346 c 0
 193 -346 168 -351 145 -362 c 1
 124 -374 111 -387 108 -402 c 0
 107 -408 108 -413 111 -418 c 0
EndSplineSet
EndChar
StartChar: uni0E11
Encoding: 139 3601 141
OldEncoding: 3601
Width: 1700
Flags: HW
Fore
459 588 m 1
 478 586 l 1
 501 588 523 602 544 628 c 0
 551 637 556 645 559 652 c 1
 568 691 l 1
 571 719 562 739 539 750 c 0
 534 753 528 754 523 754 c 2
 506 751 l 1
 497 746 487 738 477 727 c 0
 467 715 457 700 448 681 c 1
 442 666 438 653 435 642 c 0
 429 614 437 596 459 588 c 1
645 0 m 1
 767 575 l 1
 777 623 826 680 914 745 c 0
 931 758 931 758 949 771 c 1
 954 806 949 845 935 887 c 0
 930 904 923 918 915 929 c 1
 804 857 703 857 612 929 c 1
 588 903 572 882 564 866 c 0
 563 865 562 863 562 862 c 1
 641 862 686 827 698 756 c 0
 703 729 702 702 696 674 c 0
 683 611 650 558 599 516 c 0
 552 477 499 457 438 457 c 0
 429 457 421 457 412 458 c 0
 345 464 302 500 281 567 c 0
 268 608 267 654 278 703 c 0
 281 716 284 729 288 741 c 0
 316 821 344 882 372 923 c 0
 389 948 410 974 435 999 c 0
 484 1048 539 1090 602 1124 c 0
 623 1135 642 1144 659 1149 c 1
 795 1041 l 1
 962 1149 l 1
 1004 1137 1042 1112 1076 1073 c 1
 1094 1049 l 1
 1125 1011 1146 959 1157 894 c 0
 1164 850 1163 809 1155 771 c 1
 1053 688 997 623 987 575 c 2
 952 410 l 1
 1351 990 l 1
 1402 1068 1465 1115 1542 1131 c 0
 1557 1134 1573 1136 1588 1136 c 0
 1607 1135 1625 1133 1641 1128 c 0
 1702 1110 1735 1067 1742 1000 c 0
 1745 973 1743 943 1736 910 c 1
 1543 0 l 1
 1323 0 l 1
 1463 659 l 1
 1474 710 1478 740 1475 749 c 0
 1474 753 1470 757 1465 761 c 0
 1462 764 1458 765 1454 765 c 1
 1439 761 l 1
 1426 753 l 2
 1422 750 1419 746 1417 742 c 1
 919 0 l 1
 645 0 l 1
EndSplineSet
EndChar
StartChar: uni0E12
Encoding: 140 3602 142
OldEncoding: 3602
Width: 1850
Flags: HW
Fore
1316 677 m 1
 1264 430 l 1
 1322 359 1363 314 1387 293 c 0
 1419 264 1447 250 1471 250 c 0
 1478 250 1486 252 1493 255 c 0
 1511 263 1523 278 1530 299 c 0
 1532 306 1538 332 1548 377 c 1
 1710 1139 l 1
 1929 1139 l 1
 1733 218 l 2
 1712 121 1672 55 1611 21 c 0
 1572 -2 1531 -13 1488 -13 c 0
 1457 -13 1427 -7 1398 6 c 0
 1361 22 1298 75 1207 164 c 1
 1197 116 1171 75 1128 42 c 0
 1086 9 1040 -9 989 -10 c 2
 971 -10 l 1
 926 -7 891 7 866 32 c 1
 840 63 l 1
 839 65 838 67 837 68 c 0
 818 95 810 138 815 198 c 1
 821 249 l 1
 822 255 824 261 826 267 c 0
 849 344 890 404 947 447 c 0
 956 453 l 0
 987 474 1021 492 1060 507 c 1
 1094 664 l 1
 1109 734 1111 783 1102 810 c 0
 1089 849 1064 882 1029 909 c 1
 831 793 l 1
 692 909 l 1
 633 886 588 851 556 802 c 0
 529 761 509 711 496 650 c 0
 475 554 474 421 491 252 c 1
 492 234 l 1
 526 246 562 272 600 312 c 0
 613 326 622 338 629 349 c 1
 609 349 l 1
 586 353 567 363 550 378 c 0
 515 409 500 450 505 500 c 1
 513 547 l 1
 532 629 575 685 642 716 c 1
 672 735 710 744 757 744 c 0
 791 744 818 738 839 727 c 0
 903 693 924 622 901 515 c 0
 898 503 895 490 892 477 c 0
 853 339 773 220 651 120 c 0
 641 111 631 103 620 95 c 0
 563 52 511 21 464 0 c 1
 224 0 l 1
 246 108 l 1
 254 145 259 228 262 356 c 0
 265 510 275 627 292 706 c 0
 301 751 313 791 328 826 c 0
 375 937 449 1023 551 1084 c 0
 612 1121 676 1142 743 1149 c 1
 882 1033 l 1
 1080 1149 l 1
 1186 1124 1260 1070 1302 986 c 1
 1340 913 1345 810 1316 677 c 1
1036 317 m 1
 1022 317 1009 313 996 304 c 0
 969 285 951 257 942 219 c 0
 933 177 940 156 962 156 c 0
 983 156 998 167 1007 190 c 0
 1010 198 1013 209 1016 222 c 1
 1036 317 l 1
700 624 m 1
 681 620 l 1
 661 613 647 605 640 597 c 0
 625 580 615 563 610 546 c 0
 603 525 603 506 608 489 c 0
 616 468 629 456 647 455 c 0
 666 454 683 461 698 476 c 0
 709 488 719 508 728 537 c 0
 737 567 738 589 732 602 c 1
 725 615 714 622 700 624 c 1
EndSplineSet
EndChar
StartChar: uni0E13
Encoding: 141 3603 143
OldEncoding: 3603
Width: 1900
Flags: HW
Fore
1235 673 m 1
 1172 377 l 1
 1160 322 1155 290 1156 281 c 0
 1157 270 1164 261 1175 255 c 0
 1181 252 1188 250 1196 250 c 0
 1233 251 1304 292 1407 373 c 0
 1408 374 1432 393 1478 430 c 1
 1629 1139 l 1
 1848 1139 l 1
 1713 507 l 1
 1760 500 1797 482 1825 453 c 0
 1868 407 1885 345 1875 267 c 1
 1865 220 l 1
 1848 161 1823 114 1791 79 c 0
 1785 73 1785 73 1780 68 c 0
 1730 23 1674 -2 1612 -8 c 2
 1583 -10 l 1
 1544 -7 l 1
 1503 -0 1471 16 1448 42 c 0
 1420 75 1411 116 1421 164 c 1
 1293 75 1207 22 1164 6 c 0
 1130 -7 1097 -13 1066 -13 c 0
 1023 -13 987 -2 957 21 c 0
 911 55 898 121 919 218 c 2
 1012 657 l 1
 1051 838 991 929 832 929 c 0
 726 929 641 896 577 831 c 1
 644 795 684 739 697 663 c 1
 693 661 656 628 586 563 c 0
 546 526 517 463 498 376 c 1
 496 363 l 1
 517 382 543 391 573 391 c 0
 592 392 610 388 627 380 c 0
 646 371 662 359 674 344 c 0
 701 310 709 264 696 206 c 1
 692 182 684 158 671 133 c 0
 642 76 599 35 540 10 c 0
 507 -3 474 -10 439 -10 c 0
 391 -9 355 -3 330 9 c 0
 310 20 291 35 272 56 c 0
 242 90 236 156 253 254 c 0
 256 269 259 285 263 303 c 1
 276 366 l 1
 294 449 316 509 343 546 c 0
 364 576 406 618 469 671 c 1
 434 727 376 767 297 792 c 1
 324 855 373 917 445 979 c 1
 574 1092 719 1149 879 1149 c 0
 1029 1149 1136 1102 1199 1008 c 0
 1253 928 1265 816 1235 673 c 1
1658 317 m 1
 1638 222 l 1
 1630 187 1633 166 1646 160 c 1
 1650 157 1656 156 1664 156 c 0
 1686 156 1701 177 1710 219 c 0
 1717 257 1711 285 1692 304 c 0
 1683 313 1672 317 1658 317 c 1
485 110 m 0
 510 110 532 124 551 152 c 0
 560 165 566 179 569 195 c 0
 576 238 567 265 542 276 c 0
 536 279 529 280 521 280 c 0
 490 280 469 260 456 220 c 0
 455 215 453 210 452 204 c 0
 439 141 450 110 485 110 c 0
EndSplineSet
EndChar
StartChar: uni0E14
Encoding: 142 3604 144
OldEncoding: 3604
Width: 1330
Flags: HW
Fore
711 624 m 1
 674 618 646 599 629 568 c 0
 625 561 622 553 620 546 c 1
 615 517 l 1
 614 485 625 465 647 457 c 0
 650 456 654 455 658 455 c 2
 679 457 l 1
 705 464 725 491 739 537 c 1
 746 573 l 1
 749 603 737 620 711 624 c 1
462 0 m 1
 222 0 l 1
 244 108 l 1
 252 145 257 225 258 346 c 0
 259 492 268 603 284 680 c 0
 293 723 305 763 320 798 c 0
 367 909 441 995 543 1056 c 0
 628 1107 720 1137 820 1146 c 0
 843 1148 869 1149 896 1149 c 1
 965 1146 l 1
 1048 1137 1121 1113 1184 1074 c 0
 1234 1043 1271 1005 1294 958 c 0
 1325 898 1336 828 1327 749 c 0
 1324 727 1320 703 1314 677 c 1
 1171 0 l 1
 951 0 l 1
 1092 664 l 1
 1103 715 1103 755 1094 782 c 0
 1074 839 1031 881 965 908 c 0
 929 922 892 929 853 929 c 0
 778 929 704 905 632 856 c 0
 595 830 567 803 548 774 c 0
 521 733 501 684 489 627 c 0
 471 543 470 426 486 277 c 1
 490 234 l 1
 524 246 560 272 598 312 c 0
 611 326 620 338 627 349 c 1
 607 349 l 1
 584 353 565 363 548 378 c 0
 513 409 498 450 503 500 c 1
 511 547 l 1
 530 629 573 685 640 716 c 1
 670 735 708 744 755 744 c 0
 789 744 816 738 837 727 c 0
 901 693 922 623 899 516 c 0
 890 477 l 0
 851 339 771 220 649 120 c 0
 639 111 629 103 618 95 c 0
 561 52 509 21 462 0 c 1
EndSplineSet
EndChar
StartChar: uni0E15
Encoding: 143 3605 145
OldEncoding: 3605
Width: 1330
Flags: HW
Fore
711 624 m 1
 674 618 646 599 629 568 c 0
 625 561 622 553 620 546 c 1
 615 517 l 1
 614 485 625 465 647 457 c 0
 650 456 654 455 658 455 c 2
 679 457 l 1
 705 464 725 491 739 537 c 1
 746 573 l 1
 749 603 737 620 711 624 c 1
462 0 m 1
 222 0 l 1
 244 108 l 1
 252 145 257 228 260 356 c 0
 263 510 273 627 290 706 c 0
 299 751 311 791 326 826 c 0
 373 937 447 1023 549 1084 c 0
 610 1121 674 1142 741 1149 c 1
 880 1033 l 1
 1078 1149 l 1
 1184 1124 1258 1070 1300 986 c 1
 1338 913 1343 810 1314 677 c 1
 1171 0 l 1
 951 0 l 1
 1092 664 l 1
 1107 734 1109 783 1100 810 c 0
 1087 849 1062 882 1027 909 c 1
 829 793 l 1
 690 909 l 1
 631 886 586 851 554 802 c 0
 527 761 507 711 494 650 c 0
 473 554 472 421 489 252 c 1
 490 234 l 1
 524 246 560 272 598 312 c 0
 611 326 620 338 627 349 c 1
 607 349 l 1
 584 353 565 363 548 378 c 0
 513 409 498 450 503 500 c 1
 511 547 l 1
 530 629 573 685 640 716 c 1
 670 735 708 744 755 744 c 0
 789 744 816 738 837 727 c 0
 901 693 922 623 899 516 c 0
 890 477 l 0
 851 339 771 220 649 120 c 0
 639 111 629 103 618 95 c 0
 561 52 509 21 462 0 c 1
EndSplineSet
EndChar
StartChar: uni0E16
Encoding: 144 3606 146
OldEncoding: 3606
Width: 1240
Flags: HW
Fore
487 376 m 1
 485 363 l 1
 506 382 532 391 562 391 c 0
 581 392 599 388 616 380 c 0
 635 371 651 359 663 344 c 0
 690 310 698 264 685 206 c 1
 681 182 673 158 660 133 c 0
 631 76 588 35 529 10 c 0
 496 -3 463 -10 428 -10 c 0
 380 -9 344 -3 319 9 c 0
 299 20 280 35 261 56 c 0
 231 90 225 156 242 254 c 0
 245 269 248 285 252 303 c 1
 265 366 l 1
 283 449 305 509 332 546 c 0
 353 576 395 618 458 671 c 1
 423 727 365 767 286 792 c 1
 313 855 362 917 434 979 c 1
 563 1092 708 1149 868 1149 c 0
 1018 1149 1125 1102 1188 1008 c 0
 1243 927 1255 815 1225 673 c 2
 1082 0 l 1
 862 0 l 1
 1001 657 l 1
 1040 838 980 929 821 929 c 0
 715 929 630 896 566 831 c 1
 633 795 673 739 686 663 c 1
 682 661 645 628 575 563 c 0
 535 526 506 463 487 376 c 1
474 110 m 0
 499 110 521 124 540 152 c 0
 549 165 555 179 558 195 c 0
 565 238 556 265 531 276 c 0
 525 279 518 280 510 280 c 0
 479 280 458 260 445 220 c 1
 441 204 l 1
 428 141 439 110 474 110 c 0
EndSplineSet
EndChar
StartChar: uni0E17
Encoding: 145 3607 147
OldEncoding: 3607
Width: 1350
Flags: HW
Fore
625 410 m 1
 1024 990 l 1
 1075 1068 1138 1115 1215 1131 c 0
 1230 1134 1246 1136 1261 1136 c 0
 1280 1135 1298 1133 1314 1128 c 0
 1375 1110 1408 1067 1415 1000 c 0
 1418 973 1416 943 1409 910 c 1
 1216 0 l 1
 996 0 l 1
 1136 659 l 1
 1147 710 1151 740 1148 749 c 0
 1147 753 1143 757 1138 761 c 0
 1135 764 1131 765 1127 765 c 1
 1112 761 l 2
 1103 758 1096 751 1090 742 c 2
 592 0 l 1
 318 0 l 1
 479 759 l 1
 470 754 452 752 427 752 c 2
 416 752 l 2
 389 755 364 768 342 792 c 0
 313 823 305 867 316 922 c 0
 321 947 331 974 345 1004 c 0
 366 1047 400 1084 449 1114 c 0
 488 1137 531 1149 578 1149 c 0
 633 1148 674 1130 702 1095 c 1
 738 1052 746 980 725 881 c 1
 625 410 l 1
520 1026 m 0
 501 1026 482 1015 462 994 c 1
 449 977 440 960 437 941 c 0
 432 920 434 902 442 886 c 0
 451 867 466 857 485 857 c 0
 502 857 518 865 533 882 c 0
 543 895 551 916 557 945 c 0
 564 975 563 996 556 1008 c 128
 549 1020 537 1026 520 1026 c 0
EndSplineSet
EndChar
StartChar: uni0E18
Encoding: 146 3608 148
OldEncoding: 3608
Width: 1250
Flags: HW
Fore
916 529 m 1
 923 562 914 587 887 603 c 1
 815 636 l 1
 714 672 546 707 312 742 c 1
 349 829 391 901 439 957 c 0
 489 1016 551 1063 624 1099 c 0
 692 1132 773 1149 868 1149 c 0
 945 1149 1013 1134 1073 1103 c 0
 1124 1077 1181 1064 1243 1064 c 0
 1270 1064 1295 1067 1319 1072 c 1
 1236 862 l 1
 1218 858 1198 856 1175 856 c 0
 1154 855 1132 857 1110 861 c 0
 1070 867 1038 876 1014 889 c 0
 959 918 899 935 832 940 c 2
 813 941 l 2
 740 941 691 925 664 892 c 1
 859 853 987 815 1048 778 c 0
 1131 728 1164 660 1145 573 c 1
 1088 303 l 2
 1059 168 992 77 885 32 c 0
 818 4 730 -10 621 -10 c 0
 408 -10 303 68 305 223 c 0
 306 250 309 281 316 314 c 1
 388 650 l 1
 608 650 l 1
 536 314 l 2
 527 270 548 239 601 221 c 0
 621 214 643 211 668 210 c 1
 713 212 l 1
 772 220 816 240 846 271 c 0
 859 284 867 299 870 314 c 2
 916 529 l 1
EndSplineSet
EndChar
StartChar: uni0E19
Encoding: 147 3609 149
OldEncoding: 3609
Width: 1400
Flags: HW
Fore
524 776 m 1
 501 757 473 748 440 748 c 0
 385 748 349 772 330 821 c 0
 317 853 316 890 325 933 c 0
 330 957 338 981 349 1006 c 0
 368 1046 401 1081 448 1110 c 0
 491 1136 533 1149 575 1149 c 0
 652 1149 709 1129 745 1089 c 0
 780 1050 791 996 776 927 c 2
 659 377 l 1
 647 322 642 290 643 281 c 1
 648 267 l 1
 651 262 656 258 662 255 c 0
 668 252 675 250 684 250 c 0
 732 251 812 290 925 367 c 0
 955 388 983 409 1010 430 c 1
 1161 1139 l 1
 1381 1139 l 1
 1246 507 l 1
 1293 500 1330 482 1358 453 c 0
 1395 414 1409 355 1400 278 c 0
 1399 267 1397 255 1394 244 c 0
 1375 154 1349 95 1316 66 c 0
 1265 22 1207 -3 1143 -9 c 0
 1134 -10 1125 -10 1116 -10 c 2
 1076 -7 l 1
 1035 -0 1003 16 981 42 c 0
 953 75 944 116 954 164 c 1
 896 123 812 78 703 28 c 1
 651 6 l 1
 617 -7 584 -13 553 -13 c 0
 510 -13 474 -2 444 21 c 0
 398 55 385 121 406 218 c 2
 524 776 l 1
524 1028 m 0
 500 1028 478 1014 459 987 c 1
 446 962 l 1
 443 956 441 950 440 943 c 0
 435 906 442 881 463 867 c 0
 470 862 479 859 489 859 c 0
 525 862 548 887 558 936 c 0
 559 939 560 943 561 947 c 0
 572 1001 560 1028 524 1028 c 0
1191 317 m 1
 1171 222 l 1
 1163 187 1166 166 1179 160 c 1
 1183 157 1189 156 1197 156 c 0
 1219 156 1234 177 1243 219 c 0
 1250 257 1244 285 1225 304 c 0
 1216 313 1205 317 1191 317 c 1
EndSplineSet
EndChar
StartChar: uni0E1A
Encoding: 148 3610 150
OldEncoding: 3610
Width: 1300
Flags: HW
Fore
627 379 m 2
 608 288 640 233 725 215 c 0
 743 212 763 210 786 210 c 0
 893 211 963 250 997 327 c 0
 1004 342 1009 360 1013 379 c 2
 1175 1139 l 1
 1395 1139 l 1
 1211 273 l 1
 1184 147 1110 64 991 24 c 0
 924 1 838 -10 734 -10 c 0
 485 -10 366 67 377 222 c 0
 378 237 380 252 383 268 c 2
 488 759 l 1
 472 753 453 750 432 749 c 0
 400 749 372 756 347 770 c 0
 335 777 325 785 317 795 c 0
 290 830 283 874 294 929 c 0
 299 952 307 978 320 1005 c 0
 341 1050 376 1088 425 1117 c 0
 452 1134 480 1144 507 1148 c 1
 555 1151 l 1
 623 1151 674 1135 707 1104 c 1
 710 1102 713 1100 715 1097 c 0
 745 1062 753 1000 738 909 c 1
 724 835 l 1
 627 379 l 2
496 1028 m 0
 471 1028 450 1015 432 988 c 0
 422 974 415 959 412 943 c 1
 407 906 414 880 435 866 c 0
 442 861 450 859 460 859 c 0
 497 862 520 887 530 935 c 0
 531 939 532 943 533 948 c 0
 544 1001 532 1028 496 1028 c 0
EndSplineSet
EndChar
StartChar: uni0E1B
Encoding: 149 3611 151
OldEncoding: 3611
Width: 1300
Flags: HW
Fore
627 379 m 2
 608 288 640 233 725 215 c 0
 743 212 763 210 786 210 c 0
 893 211 963 250 997 327 c 0
 1004 342 1009 360 1013 379 c 2
 1247 1480 l 1
 1467 1480 l 1
 1211 273 l 1
 1184 147 1110 64 991 24 c 0
 924 1 838 -10 734 -10 c 0
 485 -10 366 67 377 222 c 0
 378 237 380 252 383 268 c 2
 488 759 l 1
 472 753 453 750 432 749 c 0
 400 749 372 756 347 770 c 0
 335 777 325 785 317 795 c 0
 290 830 283 874 294 929 c 0
 299 952 307 978 320 1005 c 0
 341 1050 376 1088 425 1117 c 0
 452 1134 480 1144 507 1148 c 1
 555 1151 l 1
 623 1151 674 1135 707 1104 c 1
 710 1102 713 1100 715 1097 c 0
 745 1062 753 1000 738 909 c 1
 724 835 l 1
 627 379 l 2
496 1028 m 0
 471 1028 450 1015 432 988 c 0
 422 974 415 959 412 943 c 1
 407 906 414 880 435 866 c 0
 442 861 450 859 460 859 c 0
 497 862 520 887 530 935 c 0
 531 939 532 943 533 948 c 0
 544 1001 532 1028 496 1028 c 0
EndSplineSet
EndChar
StartChar: uni0E1C
Encoding: 150 3612 152
OldEncoding: 3612
Width: 1200
Flags: HW
Fore
310 835 m 1
 333 942 360 1017 393 1059 c 0
 404 1074 417 1086 431 1097 c 0
 474 1130 530 1148 600 1151 c 1
 650 1150 l 2
 653 1149 657 1149 661 1148 c 0
 708 1141 744 1114 769 1069 c 0
 780 1048 785 1027 786 1005 c 0
 787 978 785 953 780 930 c 1
 767 888 l 1
 753 851 730 820 699 795 c 0
 663 765 619 750 567 749 c 0
 548 749 532 752 518 757 c 2
 514 759 l 1
 409 268 l 1
 402 235 413 214 441 205 c 0
 447 203 453 202 459 202 c 0
 490 202 513 215 527 242 c 0
 531 250 534 259 536 268 c 2
 628 698 l 1
 848 698 l 1
 756 268 l 1
 749 236 760 215 787 205 c 0
 794 203 800 202 806 202 c 0
 832 202 852 213 867 236 c 0
 873 245 877 256 879 268 c 1
 1065 1139 l 1
 1285 1139 l 1
 1099 268 l 1
 1076 156 1030 77 962 30 c 0
 922 3 876 -10 825 -10 c 0
 754 -10 710 -9 695 -6 c 0
 648 1 619 21 608 54 c 1
 573 16 527 -5 468 -9 c 0
 459 -10 429 -10 378 -10 c 0
 246 -10 180 51 179 173 c 0
 178 202 182 233 189 268 c 2
 310 835 l 1
620 1028 m 0
 584 1028 560 1001 549 948 c 1
 543 911 l 1
 545 888 l 1
 550 870 563 860 584 859 c 1
 613 859 636 876 655 911 c 0
 661 922 665 932 668 943 c 0
 675 978 668 1004 647 1019 c 0
 639 1025 630 1028 620 1028 c 0
EndSplineSet
EndChar
StartChar: uni0E1D
Encoding: 151 3613 153
OldEncoding: 3613
Width: 1200
Flags: HW
Fore
310 835 m 1
 333 942 360 1017 393 1059 c 0
 404 1074 417 1086 431 1097 c 0
 474 1130 530 1148 600 1151 c 1
 650 1150 l 2
 653 1149 657 1149 661 1148 c 0
 708 1141 744 1114 769 1069 c 0
 780 1048 785 1027 786 1005 c 0
 787 978 785 953 780 930 c 1
 767 888 l 1
 753 851 730 820 699 795 c 0
 663 765 619 750 567 749 c 0
 548 749 532 752 518 757 c 2
 514 759 l 1
 409 268 l 1
 402 235 413 214 441 205 c 0
 447 203 453 202 459 202 c 0
 490 202 513 215 527 242 c 0
 531 250 534 259 536 268 c 2
 628 698 l 1
 848 698 l 1
 756 268 l 1
 749 236 760 215 787 205 c 0
 794 203 800 202 806 202 c 0
 832 202 852 213 867 236 c 0
 873 245 877 256 879 268 c 1
 1137 1480 l 1
 1357 1480 l 1
 1099 268 l 1
 1076 156 1030 77 962 30 c 0
 922 3 876 -10 825 -10 c 0
 754 -10 710 -9 695 -6 c 0
 648 1 619 21 608 54 c 1
 573 16 527 -5 468 -9 c 0
 459 -10 429 -10 378 -10 c 0
 246 -10 180 51 179 173 c 0
 178 202 182 233 189 268 c 2
 310 835 l 1
620 1028 m 0
 584 1028 560 1001 549 948 c 1
 543 911 l 1
 545 888 l 1
 550 870 563 860 584 859 c 1
 613 859 636 876 655 911 c 0
 661 922 665 932 668 943 c 0
 675 978 668 1004 647 1019 c 0
 639 1025 630 1028 620 1028 c 0
EndSplineSet
EndChar
StartChar: uni0E1E
Encoding: 152 3614 154
OldEncoding: 3614
Width: 1350
Flags: HW
Fore
353 268 m 2
 458 759 l 1
 442 753 423 750 402 749 c 0
 370 749 342 756 317 770 c 0
 305 777 295 785 287 795 c 0
 260 830 253 874 264 929 c 0
 269 952 277 978 290 1005 c 0
 311 1050 346 1088 395 1117 c 0
 422 1134 450 1144 477 1148 c 1
 525 1151 l 1
 593 1151 644 1135 677 1104 c 1
 680 1102 683 1100 685 1097 c 0
 715 1062 723 1000 708 909 c 1
 694 835 l 1
 573 268 l 1
 566 235 577 214 605 205 c 0
 611 203 617 202 623 202 c 0
 654 202 677 215 691 242 c 0
 695 250 698 259 700 268 c 2
 864 1039 l 1
 1084 1039 l 1
 920 268 l 2
 913 236 924 215 951 205 c 0
 958 203 964 202 970 202 c 0
 996 202 1016 213 1031 236 c 0
 1037 245 1041 256 1043 268 c 1
 1229 1139 l 1
 1449 1139 l 1
 1263 268 l 1
 1240 156 1194 77 1126 30 c 0
 1086 3 1040 -10 989 -10 c 0
 918 -10 874 -9 859 -6 c 0
 812 1 783 21 772 54 c 1
 737 16 691 -5 632 -9 c 0
 623 -10 593 -10 542 -10 c 0
 410 -10 344 51 343 173 c 0
 342 202 346 233 353 268 c 2
466 1028 m 0
 441 1028 420 1015 402 988 c 0
 392 974 385 959 382 943 c 1
 377 906 384 880 405 866 c 0
 412 861 420 859 430 859 c 0
 467 862 490 887 500 935 c 0
 501 939 502 943 503 948 c 0
 514 1001 502 1028 466 1028 c 0
EndSplineSet
EndChar
StartChar: uni0E1F
Encoding: 153 3615 155
OldEncoding: 3615
Width: 1450
Flags: HW
Fore
404 268 m 2
 509 759 l 1
 493 753 474 750 453 749 c 0
 421 749 393 756 368 770 c 0
 356 777 346 785 338 795 c 0
 311 830 304 874 315 929 c 0
 320 952 328 978 341 1005 c 0
 362 1050 397 1088 446 1117 c 0
 473 1134 501 1144 528 1148 c 1
 576 1151 l 1
 644 1151 695 1135 728 1104 c 1
 731 1102 734 1100 736 1097 c 0
 766 1062 774 1000 759 909 c 1
 745 835 l 1
 624 268 l 1
 617 235 628 214 656 205 c 0
 662 203 668 202 674 202 c 0
 705 202 728 215 742 242 c 0
 746 250 749 259 751 268 c 2
 915 1039 l 1
 1135 1039 l 1
 971 268 l 2
 964 236 975 215 1002 205 c 0
 1009 203 1015 202 1021 202 c 0
 1047 202 1067 213 1082 236 c 0
 1088 245 1092 256 1094 268 c 1
 1352 1480 l 1
 1572 1480 l 1
 1314 268 l 1
 1291 156 1245 77 1177 30 c 0
 1137 3 1091 -10 1040 -10 c 0
 969 -10 925 -9 910 -6 c 0
 863 1 834 21 823 54 c 1
 788 16 742 -5 683 -9 c 0
 674 -10 644 -10 593 -10 c 0
 461 -10 395 51 394 173 c 0
 393 202 397 233 404 268 c 2
517 1028 m 0
 492 1028 471 1015 453 988 c 0
 443 974 436 959 433 943 c 1
 428 906 435 880 456 866 c 0
 463 861 471 859 481 859 c 0
 518 862 541 887 551 935 c 0
 552 939 553 943 554 948 c 0
 565 1001 553 1028 517 1028 c 0
EndSplineSet
EndChar
StartChar: uni0E20
Encoding: 154 3616 156
OldEncoding: 3616
Width: 1350
Flags: HW
Fore
617 376 m 1
 602 303 l 1
 579 194 548 119 511 78 c 0
 504 70 496 63 487 56 c 0
 434 15 381 -6 326 -9 c 0
 319 -10 307 -10 292 -10 c 0
 218 -10 167 18 139 73 c 0
 130 91 124 111 122 133 c 0
 120 158 122 182 127 206 c 0
 140 264 167 310 209 344 c 0
 247 375 287 391 329 391 c 0
 342 392 354 390 365 386 c 0
 378 381 388 373 395 363 c 1
 399 384 l 1
 414 455 435 509 462 546 c 0
 483 576 525 618 588 671 c 1
 553 727 495 767 416 792 c 1
 443 855 492 917 564 979 c 1
 693 1092 838 1149 998 1149 c 0
 1148 1149 1255 1102 1318 1008 c 0
 1373 927 1385 815 1355 673 c 2
 1212 0 l 1
 992 0 l 1
 1131 657 l 1
 1170 838 1110 929 951 929 c 0
 845 929 760 896 696 831 c 1
 763 795 803 739 816 663 c 1
 812 661 775 628 705 563 c 0
 665 526 636 463 617 376 c 1
298 110 m 0
 333 110 358 141 371 204 c 0
 380 249 371 274 344 279 c 2
 334 280 l 2
 305 280 281 262 263 226 c 0
 258 217 253 206 250 195 c 0
 242 159 249 133 271 118 c 0
 279 113 288 110 298 110 c 0
EndSplineSet
EndChar
StartChar: uni0E21
Encoding: 155 3617 157
OldEncoding: 3617
Width: 1350
Flags: HW
Fore
1395 1139 m 1
 1199 218 l 2
 1178 121 1138 55 1077 21 c 0
 1038 -2 997 -13 954 -13 c 0
 923 -13 893 -7 864 6 c 0
 854 10 839 17 820 28 c 0
 732 78 668 123 627 164 c 1
 617 116 591 75 548 42 c 0
 515 16 476 -0 432 -7 c 1
 391 -10 l 2
 381 -10 372 -9 364 -8 c 0
 305 -2 259 23 228 68 c 0
 226 71 224 75 221 79 c 1
 205 114 200 161 207 220 c 1
 217 267 l 1
 240 345 284 407 347 453 c 0
 387 482 432 500 481 507 c 1
 538 776 l 1
 515 757 487 748 454 748 c 0
 420 748 392 758 371 779 c 0
 335 814 324 865 339 932 c 0
 344 956 352 981 363 1006 c 0
 375 1031 395 1056 422 1080 c 0
 475 1126 530 1149 589 1149 c 0
 666 1149 723 1129 759 1089 c 0
 794 1050 805 996 790 927 c 2
 684 430 l 1
 689 424 l 2
 706 404 724 384 744 365 c 0
 823 289 887 251 935 250 c 0
 944 250 952 252 959 255 c 0
 966 258 972 262 977 267 c 1
 988 281 l 1
 993 290 1002 322 1014 377 c 1
 1176 1139 l 1
 1395 1139 l 1
538 1028 m 0
 527 1028 515 1024 504 1017 c 0
 477 1000 461 976 454 943 c 0
 452 930 452 919 454 908 c 0
 459 875 476 859 503 859 c 1
 532 862 553 879 565 910 c 1
 575 947 l 1
 586 1001 574 1028 538 1028 c 0
456 317 m 1
 442 317 429 313 416 304 c 0
 389 285 371 257 362 219 c 0
 353 177 360 156 382 156 c 0
 390 156 397 157 402 160 c 0
 417 166 428 187 436 222 c 1
 456 317 l 1
EndSplineSet
EndChar
StartChar: uni0E22
Encoding: 156 3618 158
OldEncoding: 3618
Width: 1200
Flags: HW
Fore
653 1028 m 1
 633 1025 l 1
 621 1021 611 1012 602 999 c 1
 590 974 l 1
 587 966 584 957 582 947 c 0
 569 888 581 859 617 859 c 1
 636 861 l 1
 662 870 683 895 698 936 c 0
 699 939 700 941 701 943 c 1
 705 966 l 1
 705 992 695 1011 675 1022 c 0
 668 1026 661 1028 653 1028 c 1
325 477 m 0
 346 502 372 525 402 544 c 2
 429 562 l 1
 398 581 376 602 362 624 c 0
 339 661 339 730 360 831 c 0
 376 905 390 956 402 983 c 1
 423 1025 453 1062 493 1093 c 0
 528 1120 566 1138 607 1146 c 0
 617 1148 626 1149 635 1149 c 0
 716 1149 771 1131 801 1094 c 0
 828 1061 840 1021 839 972 c 0
 838 960 837 948 834 936 c 0
 821 873 786 823 731 786 c 1
 709 773 l 1
 680 759 645 752 604 752 c 0
 588 752 578 753 573 756 c 1
 566 725 576 696 603 669 c 0
 604 668 604 668 615 657 c 0
 631 641 663 632 712 629 c 0
 725 628 740 628 757 628 c 1
 729 495 l 1
 657 494 l 1
 594 487 550 453 525 390 c 0
 520 377 515 362 512 347 c 0
 496 271 530 227 613 214 c 0
 628 211 645 210 662 210 c 0
 788 210 860 254 879 341 c 2
 1049 1139 l 1
 1269 1139 l 1
 1084 269 l 1
 1055 136 973 51 837 14 c 0
 784 -1 721 -9 647 -10 c 2
 623 -10 l 2
 449 -10 337 22 287 86 c 0
 253 129 243 189 257 264 c 1
 275 349 l 1
 289 410 l 1
 297 435 309 458 325 477 c 0
EndSplineSet
EndChar
StartChar: uni0E23
Encoding: 157 3619 159
OldEncoding: 3619
Width: 1100
Flags: HW
Fore
1007 303 m 1
 986 207 966 142 947 109 c 0
 920 62 879 28 825 7 c 0
 796 -4 766 -10 735 -10 c 0
 608 -10 539 32 526 117 c 0
 522 144 523 173 529 202 c 0
 542 259 568 306 607 342 c 0
 646 378 691 398 742 401 c 1
 784 399 l 2
 795 398 802 396 807 393 c 1
 836 529 l 1
 843 562 834 589 808 609 c 1
 768 634 l 2
 766 635 765 635 764 636 c 0
 663 672 495 707 261 742 c 1
 298 829 340 901 388 957 c 0
 438 1016 500 1063 573 1099 c 0
 641 1132 722 1149 817 1149 c 0
 894 1149 962 1134 1022 1103 c 0
 1073 1077 1130 1064 1192 1064 c 0
 1219 1064 1244 1067 1268 1072 c 1
 1185 862 l 1
 1167 858 1147 856 1124 856 c 0
 1103 855 1081 857 1059 861 c 0
 1027 866 999 873 975 883 c 0
 963 889 l 0
 908 918 848 935 781 940 c 2
 762 941 l 2
 689 941 640 925 613 892 c 1
 765 861 866 837 917 818 c 0
 951 805 978 792 997 778 c 0
 1053 737 1077 678 1068 601 c 0
 1067 592 1066 582 1064 573 c 2
 1007 303 l 1
764 192 m 1
 777 251 765 280 729 280 c 0
 700 280 677 263 658 229 c 1
 645 197 l 1
 645 195 l 0
 640 156 648 130 668 116 c 0
 674 112 680 110 687 110 c 1
 707 113 l 1
 735 126 754 153 764 192 c 1
EndSplineSet
EndChar
StartChar: uni0E24
Encoding: 158 3620 160
OldEncoding: 3620
Width: 1240
Flags: HW
Fore
487 376 m 1
 485 363 l 1
 506 382 532 391 562 391 c 0
 581 392 599 388 616 380 c 0
 635 371 651 359 663 344 c 0
 690 310 698 264 685 206 c 1
 681 182 673 158 660 133 c 0
 631 76 588 35 529 10 c 0
 496 -3 463 -10 428 -10 c 0
 380 -9 344 -3 319 9 c 0
 299 20 280 35 261 56 c 0
 231 90 225 156 242 254 c 0
 245 269 248 285 252 303 c 1
 265 366 l 1
 283 449 305 509 332 546 c 0
 353 576 395 618 458 671 c 1
 423 727 365 767 286 792 c 1
 313 855 362 917 434 979 c 1
 563 1092 708 1149 868 1149 c 0
 1018 1149 1125 1102 1188 1008 c 0
 1243 927 1255 815 1225 673 c 1
 1001 -380 l 1
 781 -380 l 1
 1001 657 l 1
 1040 838 980 929 821 929 c 0
 715 929 630 896 566 831 c 1
 633 795 673 739 686 663 c 1
 682 661 645 628 575 563 c 0
 535 526 506 463 487 376 c 1
474 110 m 0
 499 110 521 124 540 152 c 0
 549 165 555 179 558 195 c 0
 565 238 556 265 531 276 c 0
 525 279 518 280 510 280 c 0
 479 280 458 260 445 220 c 1
 441 204 l 1
 428 141 439 110 474 110 c 0
EndSplineSet
EndChar
StartChar: uni0E25
Encoding: 159 3621 161
OldEncoding: 3621
Width: 1250
Flags: HW
Fore
1214 915 m 2
 1226 868 1223 801 1204 713 c 2
 1053 0 l 1
 833 0 l 1
 888 263 l 1
 908 356 900 424 863 468 c 0
 834 503 778 520 695 520 c 0
 688 520 688 520 680 520 c 0
 613 519 562 498 527 457 c 1
 509 434 497 410 491 383 c 1
 487 363 l 1
 508 382 534 391 564 391 c 0
 583 392 601 388 618 380 c 0
 637 371 653 359 665 344 c 0
 692 310 700 264 687 206 c 1
 683 182 675 158 662 133 c 0
 633 76 590 35 531 10 c 0
 498 -3 465 -10 430 -10 c 0
 382 -9 346 -3 321 9 c 0
 301 20 282 35 263 56 c 0
 233 90 227 156 244 254 c 0
 247 269 250 285 254 303 c 2
 283 438 l 1
 307 551 374 635 485 688 c 0
 556 723 636 740 723 740 c 0
 816 740 887 724 938 691 c 0
 953 682 964 671 971 658 c 1
 983 714 l 1
 996 771 991 816 970 848 c 0
 969 849 968 851 967 852 c 0
 946 882 909 904 857 918 c 0
 828 925 798 929 767 929 c 0
 676 929 591 902 512 849 c 0
 480 827 453 802 430 775 c 1
 323 929 l 1
 376 996 452 1050 551 1092 c 0
 639 1130 726 1149 811 1149 c 0
 922 1149 1018 1124 1098 1074 c 0
 1106 1069 1113 1063 1120 1058 c 0
 1148 1037 1173 1005 1196 960 c 1
 1212 922 l 1
 1214 915 l 2
486 110 m 0
 511 110 533 124 552 152 c 0
 561 165 567 179 570 195 c 0
 577 238 568 265 543 276 c 0
 537 279 530 280 522 280 c 0
 491 280 470 260 457 220 c 1
 453 204 l 1
 440 141 451 110 486 110 c 0
EndSplineSet
EndChar
StartChar: uni0E26
Encoding: 160 3622 162
OldEncoding: 3622
Width: 1350
Flags: HW
Fore
617 376 m 1
 602 303 l 1
 579 194 548 119 511 78 c 0
 504 70 496 63 487 56 c 0
 434 15 381 -6 326 -9 c 0
 319 -10 307 -10 292 -10 c 0
 218 -10 167 18 139 73 c 0
 130 91 124 111 122 133 c 0
 120 158 122 182 127 206 c 0
 140 264 167 310 209 344 c 0
 247 375 287 391 329 391 c 0
 342 392 354 390 365 386 c 0
 378 381 388 373 395 363 c 1
 399 384 l 1
 414 455 435 509 462 546 c 0
 483 576 525 618 588 671 c 1
 553 727 495 767 416 792 c 1
 443 855 492 917 564 979 c 1
 693 1092 838 1149 998 1149 c 0
 1148 1149 1255 1102 1318 1008 c 0
 1373 927 1385 815 1355 673 c 1
 1131 -380 l 1
 911 -380 l 1
 1131 657 l 1
 1170 838 1110 929 951 929 c 0
 845 929 760 896 696 831 c 1
 763 795 803 739 816 663 c 1
 812 661 775 628 705 563 c 0
 665 526 636 463 617 376 c 1
298 110 m 0
 333 110 358 141 371 204 c 0
 380 249 371 274 344 279 c 2
 334 280 l 2
 305 280 281 262 263 226 c 0
 258 217 253 206 250 195 c 0
 242 159 249 133 271 118 c 0
 279 113 288 110 298 110 c 0
EndSplineSet
EndChar
StartChar: uni0E27
Encoding: 161 3623 163
OldEncoding: 3623
Width: 1150
Flags: HW
Fore
1183 714 m 2
 1096 303 l 2
 1075 205 1055 140 1035 108 c 0
 1022 85 1001 63 974 42 c 0
 936 12 885 -5 821 -10 c 0
 814 -11 807 -11 800 -11 c 0
 720 -11 665 18 635 75 c 1
 617 113 613 158 623 211 c 1
 636 269 666 317 713 354 c 0
 747 381 782 395 819 395 c 0
 853 395 876 390 889 381 c 0
 890 380 892 378 894 377 c 1
 957 675 l 2
 970 736 974 777 969 800 c 0
 965 815 958 829 948 842 c 0
 905 900 826 929 709 929 c 0
 620 929 536 903 458 852 c 0
 423 829 395 804 372 775 c 1
 265 929 l 1
 306 971 358 1012 423 1053 c 0
 450 1070 474 1083 495 1093 c 0
 576 1130 663 1149 754 1149 c 0
 862 1149 956 1129 1037 1090 c 0
 1057 1081 1075 1070 1091 1059 c 0
 1143 1021 1176 974 1190 918 c 0
 1203 863 1200 795 1183 714 c 2
854 192 m 0
 867 251 855 280 819 280 c 0
 793 280 770 264 751 233 c 0
 744 221 738 209 735 196 c 0
 728 163 735 139 755 122 c 0
 762 117 769 113 777 111 c 1
 802 113 l 1
 825 119 841 142 852 182 c 0
 854 192 l 0
EndSplineSet
EndChar
StartChar: uni0E28
Encoding: 162 3624 164
OldEncoding: 3624
Width: 1300
Flags: HW
Fore
1163 1061 m 1
 1218 1094 1271 1148 1322 1224 c 1
 1540 1224 l 1
 1479 1109 1388 1013 1268 937 c 1
 1297 870 1298 774 1272 651 c 2
 1134 0 l 1
 954 0 l 1
 1103 702 l 2
 1117 767 1103 827 1060 880 c 0
 1045 899 1027 915 1006 928 c 0
 961 955 902 969 829 969 c 2
 822 969 l 2
 757 968 696 955 640 930 c 1
 575 903 523 862 485 808 c 0
 457 768 436 714 422 646 c 0
 413 603 408 562 409 525 c 1
 418 316 l 1
 461 421 516 511 581 587 c 0
 629 644 679 683 731 705 c 0
 768 721 808 724 849 714 c 0
 887 704 919 679 944 640 c 0
 956 620 963 601 964 582 c 0
 966 558 965 536 960 517 c 0
 952 480 928 439 888 395 c 2
 883 389 l 2
 834 338 784 313 732 313 c 0
 721 313 709 314 698 317 c 0
 677 321 656 333 637 353 c 1
 631 358 627 364 625 369 c 1
 575 302 519 206 457 81 c 0
 436 38 436 38 419 0 c 1
 186 0 l 1
 208 108 l 1
 219 161 225 266 225 424 c 1
 223 515 230 599 246 676 c 0
 256 721 269 763 285 800 c 0
 332 907 413 992 527 1057 c 1
 632 1114 736 1145 839 1149 c 2
 861 1149 l 2
 959 1148 1039 1131 1102 1098 c 0
 1103 1097 1105 1096 1107 1095 c 0
 1124 1086 1143 1075 1163 1061 c 1
792 574 m 1
 777 570 757 555 734 530 c 0
 713 507 700 487 697 472 c 0
 692 453 696 438 709 427 c 0
 716 420 725 417 736 417 c 0
 745 417 754 419 764 423 c 0
 783 430 801 443 817 460 c 0
 830 473 840 491 845 512 c 0
 850 533 847 551 836 565 c 0
 830 572 820 576 806 576 c 1
 792 574 l 1
EndSplineSet
EndChar
StartChar: uni0E29
Encoding: 163 3625 165
OldEncoding: 3625
Width: 1350
Flags: HW
Fore
465 1028 m 0
 440 1028 419 1015 401 988 c 0
 391 974 384 959 381 943 c 1
 376 906 383 880 404 866 c 0
 411 861 419 859 429 859 c 0
 466 862 489 887 499 935 c 0
 500 939 501 943 502 948 c 0
 513 1001 501 1028 465 1028 c 0
1220 463 m 1
 1180 273 l 1
 1153 147 1079 64 960 24 c 0
 893 1 807 -10 703 -10 c 0
 454 -10 335 67 346 222 c 0
 347 237 349 252 352 268 c 2
 457 759 l 1
 441 753 422 750 401 749 c 0
 369 749 341 756 316 770 c 0
 304 777 294 785 286 795 c 0
 259 830 252 874 263 929 c 0
 268 952 276 978 289 1005 c 0
 310 1050 345 1088 394 1117 c 0
 421 1134 449 1144 476 1148 c 1
 524 1151 l 1
 592 1151 643 1135 676 1104 c 1
 679 1102 682 1100 684 1097 c 0
 714 1062 722 1000 707 909 c 1
 693 835 l 1
 596 379 l 2
 577 288 609 233 694 215 c 0
 712 212 732 210 755 210 c 0
 862 211 932 250 966 327 c 0
 973 342 978 360 982 379 c 2
 991 421 l 1
 976 418 956 417 932 417 c 0
 928 417 l 0
 878 418 834 432 797 457 c 0
 764 480 744 513 736 556 c 0
 732 577 732 597 737 618 c 0
 737 620 737 622 738 625 c 0
 761 714 811 766 888 781 c 0
 895 782 903 783 911 784 c 1
 945 783 l 1
 982 777 1007 757 1021 723 c 0
 1028 706 1029 683 1023 655 c 0
 1020 644 1017 634 1013 625 c 0
 1006 608 991 592 969 575 c 1
 970 568 981 564 1002 564 c 0
 1011 563 1017 564 1022 566 c 1
 1144 1139 l 1
 1364 1139 l 1
 1258 642 l 1
 1289 668 1311 711 1324 771 c 1
 1457 771 l 1
 1442 698 1421 642 1394 603 c 0
 1386 590 1377 578 1366 566 c 0
 1333 527 1284 493 1220 463 c 1
932 651 m 1
 933 678 921 694 897 697 c 1
 881 696 l 1
 868 692 857 683 849 669 c 1
 841 653 l 1
 837 634 843 620 858 611 c 1
 865 608 871 607 878 607 c 0
 897 607 912 616 924 635 c 0
 928 640 931 646 932 651 c 1
EndSplineSet
EndChar
StartChar: uni0E2A
Encoding: 164 3626 166
OldEncoding: 3626
Width: 1250
Flags: HW
Fore
1214 915 m 1
 1225 862 1221 795 1204 713 c 2
 1053 0 l 1
 833 0 l 1
 888 263 l 1
 908 356 900 424 863 468 c 0
 834 503 778 520 695 520 c 0
 688 520 688 520 680 520 c 0
 613 519 562 498 527 457 c 1
 509 434 497 410 491 383 c 1
 487 363 l 1
 508 382 534 391 564 391 c 0
 583 392 601 388 618 380 c 0
 637 371 653 359 665 344 c 0
 692 310 700 264 687 206 c 1
 683 182 675 158 662 133 c 0
 633 76 590 35 531 10 c 0
 498 -3 465 -10 430 -10 c 0
 382 -9 346 -3 321 9 c 0
 301 20 282 35 263 56 c 0
 233 90 227 156 244 254 c 0
 247 269 250 285 254 303 c 2
 283 438 l 1
 307 551 374 635 485 688 c 0
 556 723 636 740 723 740 c 0
 816 740 887 724 938 691 c 0
 953 682 964 671 971 658 c 1
 983 714 l 1
 996 771 991 816 970 848 c 0
 969 849 968 851 967 852 c 0
 946 882 909 904 857 918 c 0
 828 925 798 929 767 929 c 0
 676 929 591 902 512 849 c 0
 480 827 453 802 430 775 c 1
 323 929 l 1
 376 996 452 1050 551 1092 c 0
 639 1130 726 1149 811 1149 c 0
 946 1149 1044 1119 1105 1059 c 1
 1164 1094 1215 1144 1258 1209 c 1
 1526 1209 l 1
 1499 1138 1431 1063 1320 985 c 1
 1216 916 l 1
 1214 915 l 1
486 110 m 0
 511 110 533 124 552 152 c 0
 561 165 567 179 570 195 c 0
 577 238 568 265 543 276 c 0
 537 279 530 280 522 280 c 0
 491 280 470 260 457 220 c 1
 453 204 l 1
 440 141 451 110 486 110 c 0
EndSplineSet
EndChar
StartChar: uni0E2B
Encoding: 165 3627 167
OldEncoding: 3627
Width: 1350
Flags: HW
Fore
634 385 m 1
 731 510 l 1
 759 544 789 578 820 611 c 0
 887 681 948 736 1003 776 c 1
 966 828 954 885 967 948 c 0
 979 1006 1012 1055 1066 1095 c 0
 1114 1131 1166 1149 1223 1149 c 0
 1300 1149 1353 1122 1382 1068 c 1
 1393 1038 l 1
 1399 1002 l 1
 1400 984 1399 965 1395 946 c 0
 1377 863 1335 802 1269 764 c 1
 1297 747 1316 719 1326 680 c 0
 1331 656 1332 633 1327 610 c 2
 1198 0 l 1
 978 0 l 1
 1092 538 l 2
 1098 567 1095 589 1083 606 c 1
 1022 571 945 495 853 376 c 0
 757 251 675 126 606 0 c 1
 332 0 l 1
 493 759 l 1
 476 750 450 745 413 745 c 0
 358 745 321 769 301 818 c 1
 289 851 288 889 297 932 c 0
 302 955 310 979 321 1003 c 0
 345 1055 387 1095 446 1122 c 0
 484 1139 524 1148 567 1149 c 1
 608 1146 l 1
 671 1135 714 1103 737 1049 c 0
 754 1011 758 968 748 921 c 2
 634 385 l 1
495 1025 m 1
 470 1025 449 1012 431 987 c 1
 418 963 l 1
 411 940 l 1
 406 907 412 882 431 866 c 0
 438 859 448 856 459 856 c 0
 492 858 514 879 527 919 c 0
 529 926 531 935 533 944 c 1
 536 995 524 1022 495 1025 c 1
1165 863 m 0
 1194 863 1217 876 1234 902 c 0
 1241 911 1245 921 1248 932 c 0
 1255 966 1247 990 1224 1004 c 0
 1215 1009 1206 1011 1195 1012 c 1
 1171 1009 l 1
 1148 1002 1131 988 1120 967 c 1
 1111 941 l 1
 1110 938 l 1
 1103 907 1111 884 1134 871 c 0
 1143 866 1153 863 1165 863 c 0
EndSplineSet
EndChar
StartChar: uni0E2C
Encoding: 166 3628 168
OldEncoding: 3628
Width: 1400
Flags: HW
Fore
480 1028 m 0
 455 1028 434 1015 416 988 c 0
 406 974 399 959 396 943 c 1
 391 906 398 880 419 866 c 0
 426 861 434 859 444 859 c 0
 481 862 504 887 514 935 c 0
 515 939 516 943 517 948 c 0
 528 1001 516 1028 480 1028 c 0
1277 268 m 1
 1254 156 1208 77 1140 30 c 0
 1100 3 1054 -10 1003 -10 c 0
 932 -10 888 -9 873 -6 c 0
 826 1 797 21 786 54 c 1
 751 16 705 -5 646 -9 c 0
 637 -10 607 -10 556 -10 c 0
 424 -10 358 51 357 173 c 0
 356 202 360 233 367 268 c 2
 472 759 l 1
 456 753 437 750 416 749 c 0
 384 749 356 756 331 770 c 0
 319 777 309 785 301 795 c 0
 274 830 267 874 278 929 c 0
 283 952 291 978 304 1005 c 0
 325 1050 360 1088 409 1117 c 0
 436 1134 464 1144 491 1148 c 1
 539 1151 l 1
 607 1151 658 1135 691 1104 c 1
 694 1102 697 1100 699 1097 c 0
 729 1062 737 1000 722 909 c 1
 708 835 l 1
 587 268 l 1
 580 235 591 214 619 205 c 0
 625 203 631 202 637 202 c 0
 668 202 691 215 705 242 c 0
 709 250 712 259 714 268 c 2
 878 1039 l 1
 1098 1039 l 1
 934 268 l 2
 927 236 938 215 965 205 c 0
 972 203 978 202 984 202 c 0
 1010 202 1030 213 1045 236 c 0
 1051 245 1055 256 1057 268 c 1
 1247 1158 l 1
 1192 1168 1153 1193 1130 1234 c 0
 1111 1269 1106 1310 1116 1357 c 0
 1121 1380 1129 1403 1140 1426 c 0
 1167 1481 1209 1519 1266 1541 c 0
 1294 1552 1324 1557 1355 1557 c 0
 1417 1557 1463 1534 1494 1489 c 0
 1500 1479 1505 1469 1508 1459 c 0
 1517 1428 1516 1384 1503 1325 c 2
 1498 1301 l 1
 1535 1304 1568 1317 1595 1338 c 0
 1631 1367 1658 1417 1675 1487 c 1
 1809 1487 l 1
 1796 1436 l 1
 1787 1407 1775 1378 1760 1350 c 0
 1730 1291 1687 1244 1630 1207 c 0
 1587 1180 1538 1163 1482 1156 c 2
 1466 1154 l 1
 1277 268 l 1
1289 1302 m 0
 1313 1302 1334 1313 1351 1335 c 0
 1358 1344 1363 1354 1366 1365 c 0
 1371 1388 1364 1406 1345 1419 c 0
 1336 1425 1327 1428 1316 1428 c 0
 1292 1428 1271 1417 1253 1396 c 0
 1245 1386 1240 1376 1238 1365 c 0
 1233 1340 1240 1322 1260 1310 c 0
 1269 1305 1278 1302 1289 1302 c 0
EndSplineSet
EndChar
StartChar: uni0E2D
Encoding: 167 3629 169
OldEncoding: 3629
Width: 1230
Flags: HW
Fore
280 270 m 1
 315 434 l 1
 335 529 356 595 379 631 c 0
 412 684 458 719 517 737 c 0
 540 744 564 748 589 748 c 0
 602 748 616 747 630 745 c 0
 688 736 726 704 745 649 c 0
 754 624 758 596 755 565 c 0
 754 552 752 539 749 525 c 0
 740 482 714 442 673 404 c 0
 637 371 597 354 553 354 c 0
 541 354 530 355 519 358 c 1
 512 325 l 2
 499 268 527 232 595 217 c 0
 614 212 637 210 663 210 c 0
 738 210 799 229 846 266 c 0
 878 291 898 323 906 360 c 2
 981 715 l 1
 1001 808 972 871 895 905 c 0
 860 921 816 929 765 929 c 0
 642 928 539 888 458 808 c 1
 427 775 l 1
 314 936 l 1
 447 1078 612 1149 809 1149 c 0
 938 1149 1041 1118 1116 1057 c 0
 1151 1030 1177 997 1194 959 c 0
 1221 900 1226 830 1209 751 c 2
 1108 273 l 1
 1081 146 1007 63 886 24 c 0
 818 1 727 -10 612 -10 c 0
 359 -10 247 78 276 253 c 0
 277 259 279 265 280 270 c 1
590 625 m 0
 554 625 530 598 519 545 c 0
 508 495 515 466 540 458 c 1
 554 456 l 0
 581 456 604 472 623 504 c 0
 630 515 635 527 638 540 c 0
 645 571 639 595 621 613 c 1
 612 621 601 625 590 625 c 0
EndSplineSet
EndChar
StartChar: uni0E2E
Encoding: 168 3630 170
OldEncoding: 3630
Width: 1250
Flags: HW
Fore
994 741 m 2
 1000 769 1003 791 1004 808 c 1
 922 767 831 746 730 746 c 0
 712 746 l 0
 608 748 526 769 465 809 c 0
 412 845 390 890 400 944 c 1
 409 970 l 1
 429 1012 469 1048 530 1079 c 0
 535 1081 540 1083 545 1086 c 0
 633 1126 728 1147 829 1149 c 1
 946 1149 1044 1121 1124 1064 c 1
 1159 1100 1183 1131 1196 1158 c 1
 1309 1116 l 1
 1274 1061 1238 1014 1201 975 c 1
 1230 914 1237 851 1224 786 c 1
 1115 273 l 1
 1088 146 1014 63 893 24 c 0
 825 1 734 -10 619 -10 c 0
 366 -10 254 78 283 253 c 0
 284 259 286 265 287 270 c 1
 322 434 l 1
 342 529 363 595 386 631 c 0
 419 684 465 719 524 737 c 0
 547 744 571 748 596 748 c 0
 609 748 623 747 637 745 c 0
 695 736 733 704 752 649 c 0
 761 624 765 596 762 565 c 0
 761 552 759 539 756 525 c 0
 747 482 721 442 680 404 c 0
 644 371 604 354 560 354 c 0
 548 354 537 355 526 358 c 1
 519 325 l 2
 506 268 534 232 602 217 c 0
 621 212 644 210 670 210 c 0
 745 210 806 229 853 266 c 0
 885 291 905 323 913 360 c 2
 994 741 l 2
597 625 m 0
 561 625 537 598 526 545 c 0
 515 495 522 466 547 458 c 1
 561 456 l 0
 588 456 611 472 630 504 c 0
 637 515 642 527 645 540 c 0
 652 571 646 595 628 613 c 1
 619 621 608 625 597 625 c 0
934 935 m 1
 915 956 871 969 801 972 c 0
 793 972 793 972 786 972 c 0
 755 972 724 965 693 950 c 0
 680 943 674 937 673 932 c 0
 669 915 690 903 735 897 c 0
 748 895 760 894 772 894 c 0
 831 894 880 905 921 927 c 0
 926 930 930 932 934 935 c 1
EndSplineSet
EndChar
StartChar: uni0E2F
Encoding: 169 3631 171
OldEncoding: 3631
Width: 1150
Flags: HW
Fore
1269 1149 m 1
 1025 0 l 1
 805 0 l 1
 969 776 l 1
 914 722 832 687 723 672 c 0
 692 667 660 665 628 665 c 0
 531 665 454 683 395 719 c 0
 356 743 331 782 320 836 c 0
 315 861 314 887 319 914 c 1
 330 958 l 1
 352 1023 392 1074 449 1110 c 0
 479 1129 510 1140 543 1144 c 1
 590 1147 l 1
 665 1146 718 1117 748 1061 c 1
 749 1057 751 1053 753 1050 c 0
 761 1031 761 1005 754 972 c 0
 749 944 739 918 725 895 c 0
 716 880 707 869 696 860 c 1
 731 857 l 1
 780 858 825 871 868 895 c 0
 871 896 874 898 877 900 c 0
 946 943 998 1011 1033 1103 c 0
 1039 1118 1044 1133 1049 1149 c 1
 1269 1149 l 1
463 958 m 1
 460 936 l 1
 461 911 473 896 498 890 c 0
 503 889 507 889 512 889 c 0
 537 889 559 899 579 920 c 0
 590 932 596 945 599 958 c 0
 604 981 598 1000 579 1013 c 0
 570 1020 559 1023 547 1023 c 0
 513 1023 488 1008 471 978 c 1
 463 958 l 1
EndSplineSet
EndChar
StartChar: uni0E30
Encoding: 170 3632 172
OldEncoding: 3632
Width: 1100
Flags: HW
Fore
237 312 m 0
 259 412 317 472 410 491 c 0
 429 495 450 497 471 498 c 1
 510 495 l 1
 566 484 599 450 609 391 c 0
 612 374 612 357 610 340 c 1
 601 303 l 1
 592 275 578 252 560 233 c 1
 593 235 l 1
 648 243 703 272 758 322 c 0
 787 348 809 374 823 399 c 0
 836 423 848 450 858 480 c 1
 1024 480 l 1
 1000 369 941 275 847 199 c 0
 754 125 650 85 534 80 c 0
 525 79 516 79 508 79 c 0
 413 79 340 102 289 149 c 0
 255 180 236 220 233 268 c 0
 232 283 234 297 237 312 c 0
356 327 m 1
 356 307 l 1
 359 285 372 273 395 270 c 0
 398 269 400 269 402 269 c 2
 425 272 l 1
 451 280 469 296 478 319 c 0
 479 322 481 326 482 330 c 1
 482 350 l 1
 478 371 465 383 443 387 c 0
 440 388 436 388 433 388 c 0
 405 388 383 376 367 352 c 0
 362 345 358 336 356 327 c 1
348 836 m 0
 370 936 428 996 521 1015 c 0
 541 1019 562 1021 583 1022 c 1
 621 1019 l 1
 678 1008 711 974 720 915 c 0
 723 898 724 881 721 864 c 1
 712 827 l 1
 697 792 l 1
 690 779 681 767 671 757 c 1
 705 759 l 1
 759 767 814 796 869 846 c 1
 899 872 921 898 935 923 c 0
 948 947 959 974 969 1004 c 1
 1135 1004 l 1
 1111 893 1052 799 958 723 c 0
 866 649 762 609 645 604 c 0
 636 603 628 603 620 603 c 0
 525 603 452 626 401 673 c 0
 367 704 348 744 345 792 c 0
 344 807 345 821 348 836 c 0
467 851 m 1
 467 831 l 1
 470 809 483 797 506 794 c 0
 509 793 511 793 513 793 c 2
 537 796 l 1
 562 804 580 820 590 843 c 0
 591 846 592 850 593 854 c 1
 593 874 l 1
 590 895 577 907 554 911 c 0
 551 912 547 912 544 912 c 0
 516 912 494 900 479 876 c 1
 473 869 469 860 467 851 c 1
EndSplineSet
EndChar
StartChar: uni0E31
Encoding: 171 3633 173
OldEncoding: 3633
Width: 0
Flags: HW
Fore
-422 1466 m 0
 -400 1566 -342 1626 -249 1645 c 0
 -230 1649 -209 1651 -187 1652 c 1
 -149 1649 l 1
 -92 1638 -59 1604 -50 1545 c 0
 -47 1528 -46 1511 -49 1494 c 1
 -58 1457 l 1
 -73 1422 l 1
 -80 1409 -89 1397 -99 1387 c 1
 -65 1389 l 1
 -12 1397 43 1426 98 1476 c 1
 128 1502 150 1528 164 1553 c 0
 177 1577 188 1604 198 1634 c 1
 364 1634 l 1
 340 1523 281 1429 187 1353 c 0
 94 1279 -10 1239 -125 1234 c 0
 -134 1233 -142 1233 -150 1233 c 0
 -245 1233 -319 1256 -370 1303 c 0
 -404 1334 -422 1374 -425 1422 c 0
 -426 1437 -425 1451 -422 1466 c 0
-303 1481 m 1
 -303 1461 l 1
 -300 1439 -287 1427 -264 1424 c 0
 -261 1423 -259 1423 -257 1423 c 2
 -233 1426 l 1
 -208 1434 -190 1450 -180 1473 c 0
 -179 1476 -178 1480 -177 1484 c 1
 -177 1504 l 1
 -179 1519 -187 1530 -202 1537 c 1
 -222 1542 l 1
 -226 1542 l 2
 -254 1542 -276 1530 -291 1506 c 1
 -302 1486 l 1
 -302 1485 -302 1483 -303 1481 c 1
EndSplineSet
EndChar
StartChar: uni0E32
Encoding: 172 3634 174
OldEncoding: 3634
Width: 1150
Flags: HW
Fore
1116 753 m 1
 956 0 l 1
 736 0 l 1
 890 729 l 1
 907 810 891 867 842 901 c 0
 815 920 777 929 730 929 c 0
 671 929 612 904 554 853 c 0
 523 826 498 796 480 764 c 1
 299 846 l 1
 350 928 417 998 502 1056 c 0
 592 1118 680 1149 766 1149 c 0
 914 1149 1018 1107 1078 1022 c 1
 1098 987 l 1
 1129 924 1135 846 1116 753 c 1
EndSplineSet
EndChar
StartChar: uni0E33
Encoding: 173 3635 175
OldEncoding: 3635
Width: 1050
Flags: HW
Fore
1062 753 m 2
 902 0 l 1
 682 0 l 1
 836 729 l 1
 853 810 837 867 788 901 c 0
 761 920 723 929 676 929 c 0
 617 929 558 904 500 853 c 0
 469 826 444 796 426 764 c 1
 245 846 l 1
 296 928 363 998 448 1056 c 0
 538 1118 626 1149 712 1149 c 0
 860 1149 964 1107 1024 1022 c 0
 1069 958 1083 875 1066 773 c 0
 1062 753 l 2
54 1668 m 0
 125 1668 178 1643 213 1594 c 0
 230 1570 240 1543 243 1512 c 0
 246 1489 244 1466 239 1441 c 0
 224 1370 185 1312 122 1267 c 0
 71 1231 17 1213 -42 1212 c 1
 -86 1216 l 1
 -151 1227 -195 1262 -216 1321 c 0
 -229 1357 -230 1397 -221 1441 c 0
 -207 1506 -171 1562 -112 1607 c 0
 -60 1648 -5 1668 54 1668 c 0
21 1509 m 0
 -12 1509 -39 1496 -58 1470 c 0
 -65 1459 -70 1448 -73 1435 c 0
 -80 1404 -71 1381 -46 1368 c 0
 -36 1362 -24 1359 -10 1359 c 0
 28 1359 57 1374 76 1404 c 0
 83 1413 87 1424 90 1435 c 0
 97 1467 86 1489 58 1502 c 1
 33 1509 l 1
 21 1509 l 0
EndSplineSet
EndChar
StartChar: uni0E34
Encoding: 174 3636 176
OldEncoding: 3636
Width: 0
Flags: HW
Fore
102 1207 m 1
 -16 1234 -203 1260 -460 1285 c 0
 -631 1302 -770 1310 -876 1310 c 1
 -843 1377 -783 1445 -698 1513 c 0
 -656 1546 -615 1574 -574 1595 c 0
 -493 1637 -405 1658 -311 1658 c 0
 -289 1658 -267 1657 -245 1655 c 0
 -160 1645 -84 1611 -19 1554 c 0
 -8 1543 3 1532 13 1521 c 0
 76 1450 105 1346 102 1207 c 1
-117 1371 m 1
 -128 1412 -158 1445 -209 1470 c 0
 -240 1485 -273 1495 -310 1498 c 1
 -366 1499 l 1
 -447 1495 -514 1469 -566 1420 c 1
 -468 1420 -355 1411 -227 1392 c 0
 -181 1385 -144 1378 -117 1371 c 1
EndSplineSet
EndChar
StartChar: uni0E35
Encoding: 175 3637 177
OldEncoding: 3637
Width: 0
Flags: HW
Fore
79 1260 m 1
 80 1249 80 1238 80 1228 c 1
 -35 1254 -217 1278 -464 1301 c 0
 -620 1316 -746 1323 -843 1323 c 1
 -801 1406 -735 1477 -644 1537 c 0
 -537 1607 -426 1642 -309 1642 c 0
 -202 1642 -120 1617 -63 1568 c 0
 -56 1561 -48 1554 -41 1546 c 1
 -1 1735 l 1
 180 1735 l 1
 79 1260 l 1
-134 1387 m 1
 -143 1420 -171 1448 -218 1471 c 1
 -247 1486 -277 1495 -309 1498 c 1
 -363 1499 l 1
 -436 1494 -495 1471 -540 1429 c 1
 -446 1429 -340 1420 -222 1403 c 0
 -186 1398 -157 1392 -134 1387 c 1
EndSplineSet
EndChar
StartChar: uni0E36
Encoding: 176 3638 178
OldEncoding: 3638
Width: 0
Flags: HW
Fore
-49 1562 m 1
 -25 1606 12 1639 61 1661 c 0
 91 1674 121 1681 151 1681 c 0
 155 1681 155 1681 158 1681 c 0
 217 1679 260 1656 287 1613 c 0
 307 1582 313 1545 304 1502 c 0
 291 1443 258 1395 205 1360 c 0
 165 1334 122 1321 77 1321 c 1
 80 1304 81 1273 80 1228 c 1
 -35 1254 -217 1278 -464 1301 c 0
 -620 1316 -746 1323 -843 1323 c 1
 -800 1409 -730 1481 -633 1540 c 1
 -526 1607 -410 1640 -287 1640 c 0
 -274 1640 -262 1640 -250 1639 c 0
 -162 1634 -98 1611 -57 1570 c 0
 -49 1562 l 1
132 1559 m 0
 105 1559 84 1548 68 1526 c 1
 58 1507 l 1
 56 1500 l 1
 51 1473 58 1455 79 1444 c 0
 87 1439 96 1437 106 1437 c 0
 137 1437 161 1450 176 1476 c 0
 181 1483 184 1491 185 1500 c 0
 191 1527 182 1545 159 1554 c 0
 151 1557 142 1559 132 1559 c 0
-139 1376 m 1
 -148 1410 -174 1440 -215 1467 c 0
 -245 1486 -276 1497 -309 1500 c 1
 -348 1499 l 1
 -403 1494 -454 1476 -501 1447 c 0
 -517 1438 -529 1428 -537 1419 c 1
 -447 1419 -344 1410 -229 1393 c 0
 -192 1388 -162 1382 -139 1376 c 1
EndSplineSet
EndChar
StartChar: uni0E37
Encoding: 177 3639 179
OldEncoding: 3639
Width: 0
Flags: HW
Fore
-72 1560 m 1
 -57 1556 -45 1544 -34 1524 c 1
 2 1695 l 1
 172 1695 l 1
 79 1258 l 1
 69 1201 l 1
 -36 1225 -209 1249 -448 1272 c 0
 -608 1288 -735 1296 -830 1296 c 1
 -783 1382 -714 1454 -622 1512 c 0
 -522 1575 -417 1607 -306 1607 c 0
 -300 1607 l 0
 -283 1607 -263 1604 -240 1598 c 1
 -219 1696 l 1
 -43 1696 l 1
 -72 1560 l 1
-114 1343 m 1
 -131 1406 -172 1447 -237 1468 c 0
 -258 1474 -279 1478 -302 1479 c 1
 -362 1479 l 1
 -442 1473 -509 1443 -563 1390 c 2
 -566 1387 l 1
 -419 1381 -285 1369 -165 1352 c 0
 -141 1349 -124 1346 -114 1343 c 1
EndSplineSet
EndChar
StartChar: uni0E38
Encoding: 178 3640 180
OldEncoding: 3640
Width: 0
Flags: HW
Fore
-474 -534 m 1
 -439 -370 l 1
 -451 -375 -464 -378 -477 -378 c 0
 -509 -377 -536 -365 -558 -341 c 0
 -579 -318 -585 -283 -575 -238 c 0
 -572 -224 -568 -210 -561 -197 c 0
 -558 -190 -555 -183 -551 -177 c 0
 -523 -130 -478 -100 -415 -89 c 0
 -400 -86 -385 -85 -370 -85 c 0
 -321 -85 -282 -97 -255 -120 c 0
 -246 -129 l 0
 -221 -160 -212 -203 -217 -258 c 1
 -220 -275 -223 -293 -227 -313 c 1
 -274 -534 l 1
 -474 -534 l 1
-420 -176 m 0
 -442 -176 -460 -187 -475 -209 c 0
 -480 -218 -484 -227 -486 -236 c 0
 -489 -263 -482 -282 -465 -292 c 0
 -460 -295 -453 -296 -445 -296 c 0
 -417 -296 -399 -275 -390 -233 c 0
 -382 -195 -392 -176 -420 -176 c 0
EndSplineSet
EndChar
StartChar: uni0E39
Encoding: 179 3641 181
OldEncoding: 3641
Width: 0
Flags: HW
Fore
-557 -375 m 1
 -441 -375 l 1
 -382 -98 l 1
 -233 -98 l 1
 -320 -504 l 1
 -734 -504 l 1
 -698 -335 l 1
 -707 -343 -719 -348 -732 -349 c 0
 -773 -355 -805 -344 -828 -317 c 1
 -857 -284 -858 -237 -829 -176 c 1
 -813 -145 -786 -118 -749 -97 c 0
 -722 -82 -696 -75 -671 -75 c 0
 -622 -75 -586 -85 -562 -106 c 1
 -533 -133 -522 -175 -529 -232 c 0
 -531 -248 -534 -267 -539 -290 c 2
 -557 -375 l 1
-701 -161 m 0
 -715 -161 -729 -168 -742 -182 c 0
 -752 -193 -758 -205 -761 -218 c 0
 -763 -233 -761 -246 -756 -255 c 0
 -747 -269 -737 -275 -725 -274 c 1
 -711 -274 -699 -268 -688 -257 c 0
 -682 -250 -677 -236 -672 -215 c 1
 -669 -194 -669 -180 -674 -173 c 0
 -680 -165 -689 -161 -701 -161 c 0
EndSplineSet
EndChar
StartChar: uni0E3A
Encoding: 180 3642 182
OldEncoding: 3642
Width: 0
Flags: HW
Fore
-258 -60 m 0
 -221 -60 -193 -73 -173 -99 c 0
 -152 -128 -145 -160 -152 -195 c 0
 -160 -232 -180 -263 -213 -289 c 1
 -245 -316 -279 -330 -316 -330 c 0
 -351 -330 -380 -316 -401 -289 c 0
 -422 -262 -428 -231 -421 -195 c 0
 -414 -160 -394 -128 -361 -99 c 1
 -328 -73 -294 -60 -258 -60 c 0
EndSplineSet
EndChar
StartChar: uni0E3F
Encoding: 181 3647 183
OldEncoding: 3647
Width: 1250
Flags: HW
Fore
1137 827 m 1
 1228 800 1283 739 1302 644 c 0
 1313 589 1312 527 1297 457 c 0
 1266 314 1191 200 1071 117 c 1
 1023 86 l 1
 928 33 821 5 702 2 c 1
 673 -133 l 1
 512 -133 l 1
 541 0 l 1
 132 0 l 1
 448 1489 l 1
 857 1489 l 1
 880 1595 l 1
 1041 1595 l 1
 1018 1489 l 1
 1209 1486 1325 1430 1367 1323 c 0
 1386 1274 1389 1214 1374 1144 c 0
 1351 1039 1317 963 1272 915 c 0
 1261 904 1249 893 1236 884 c 1
 1202 862 l 1
 1187 854 1171 847 1154 841 c 0
 1149 839 1144 837 1139 836 c 1
 1137 827 l 1
735 916 m 1
 815 1291 l 1
 642 1291 l 1
 562 916 l 1
 735 916 l 1
896 916 m 1
 977 917 1035 942 1071 992 c 0
 1094 1023 1111 1067 1123 1124 c 0
 1140 1200 1124 1249 1076 1272 c 0
 1052 1283 1019 1289 976 1291 c 1
 896 916 l 1
581 190 m 1
 687 689 l 1
 514 689 l 1
 408 190 l 1
 581 190 l 1
743 194 m 1
 839 199 916 233 974 298 c 0
 1011 339 1035 389 1048 449 c 0
 1073 572 1041 647 951 674 c 0
 924 683 889 687 848 687 c 1
 743 194 l 1
EndSplineSet
EndChar
StartChar: uni0E40
Encoding: 182 3648 184
OldEncoding: 3648
Width: 700
Flags: HW
Fore
387 1146 m 1
 607 1146 l 1
 441 364 l 1
 462 383 488 392 518 392 c 0
 537 393 555 389 572 381 c 0
 591 372 607 360 619 345 c 0
 646 311 654 265 641 207 c 1
 637 183 629 159 616 134 c 0
 587 77 544 36 485 11 c 0
 453 -2 420 -9 385 -9 c 0
 336 -8 300 -2 276 10 c 0
 255 21 236 36 218 57 c 0
 187 91 181 157 199 255 c 0
 201 270 204 286 208 304 c 1
 387 1146 l 1
430 111 m 0
 455 111 477 125 496 153 c 0
 505 166 511 180 514 196 c 0
 521 239 512 266 487 277 c 0
 481 280 474 281 466 281 c 0
 435 281 414 261 401 221 c 0
 400 216 398 211 397 205 c 0
 384 142 395 111 430 111 c 0
EndSplineSet
EndChar
StartChar: uni0E41
Encoding: 183 3649 185
OldEncoding: 3649
Width: 1320
Flags: HW
Fore
1012 1146 m 1
 1232 1146 l 1
 1066 364 l 1
 1087 383 1113 392 1143 392 c 0
 1162 393 1180 389 1197 381 c 0
 1216 372 1232 360 1244 345 c 0
 1271 311 1279 265 1266 207 c 1
 1262 183 1254 159 1241 134 c 0
 1212 77 1169 36 1110 11 c 0
 1078 -2 1045 -9 1010 -9 c 0
 961 -8 925 -2 901 10 c 0
 880 21 861 36 843 57 c 0
 812 91 806 157 824 255 c 0
 826 270 829 286 833 304 c 1
 1012 1146 l 1
1055 111 m 0
 1080 111 1102 125 1121 153 c 0
 1130 166 1136 180 1139 196 c 0
 1146 239 1137 266 1112 277 c 1
 1093 281 l 1
 1091 281 l 2
 1060 281 1039 261 1026 221 c 0
 1025 216 1023 211 1022 205 c 0
 1009 142 1020 111 1055 111 c 0
419 1146 m 1
 639 1146 l 1
 473 364 l 1
 494 383 520 392 550 392 c 0
 569 393 587 389 604 381 c 0
 623 372 639 360 651 345 c 0
 678 311 686 265 673 207 c 1
 669 183 661 159 648 134 c 0
 619 77 576 36 517 11 c 0
 485 -2 452 -9 417 -9 c 0
 368 -8 332 -2 308 10 c 0
 287 21 268 36 250 57 c 0
 219 91 213 157 231 255 c 0
 233 270 236 286 240 304 c 1
 419 1146 l 1
462 111 m 0
 487 111 509 125 528 153 c 0
 537 166 543 180 546 196 c 0
 553 239 544 266 519 277 c 0
 513 280 506 281 498 281 c 0
 467 281 446 261 433 221 c 0
 432 216 430 211 429 205 c 0
 416 142 427 111 462 111 c 0
EndSplineSet
EndChar
StartChar: uni0E42
Encoding: 184 3650 186
OldEncoding: 3650
Width: 1100
Flags: HW
Fore
941 850 m 1
 843 388 l 1
 866 394 887 397 907 397 c 0
 954 397 991 380 1016 345 c 0
 1043 308 1050 262 1038 205 c 0
 1033 181 1024 157 1013 134 c 0
 984 77 941 36 882 11 c 0
 850 -2 817 -9 782 -9 c 0
 733 -8 697 -2 673 10 c 0
 652 21 633 36 615 57 c 0
 584 91 578 157 596 255 c 0
 598 270 601 286 605 304 c 1
 721 850 l 2
 738 931 740 987 726 1016 c 1
 697 1083 580 1132 376 1161 c 0
 347 1166 312 1170 270 1175 c 1
 275 1195 301 1240 350 1309 c 0
 367 1334 383 1355 396 1370 c 0
 464 1451 542 1507 630 1539 c 0
 675 1556 717 1564 755 1564 c 0
 764 1564 774 1564 784 1563 c 0
 817 1561 875 1545 958 1516 c 0
 1057 1481 1132 1464 1182 1463 c 0
 1260 1463 1326 1483 1379 1524 c 1
 1279 1297 l 1
 1217 1267 1152 1252 1084 1252 c 0
 1037 1252 974 1268 897 1301 c 0
 830 1329 783 1344 756 1347 c 1
 721 1347 l 1
 708 1346 697 1343 686 1338 c 0
 668 1330 650 1316 633 1295 c 1
 744 1276 831 1237 894 1177 c 1
 895 1176 896 1174 898 1173 c 0
 943 1130 965 1071 963 998 c 1
 956 930 l 1
 953 907 948 880 941 850 c 1
827 111 m 0
 852 111 874 125 893 153 c 0
 902 166 908 180 911 196 c 0
 918 239 909 266 884 277 c 0
 878 280 871 281 863 281 c 0
 832 281 811 261 798 221 c 0
 797 216 795 211 794 205 c 0
 781 142 792 111 827 111 c 0
EndSplineSet
EndChar
StartChar: uni0E43
Encoding: 185 3651 187
OldEncoding: 3651
Width: 1000
Flags: HW
Fore
628 633 m 2
 647 721 672 788 703 834 c 0
 721 861 743 887 768 910 c 2
 824 962 l 2
 891 1025 935 1078 954 1121 c 0
 960 1134 965 1149 969 1165 c 1
 976 1206 l 1
 979 1260 960 1300 919 1326 c 0
 894 1342 859 1350 814 1350 c 1
 843 1344 861 1317 868 1268 c 1
 871 1225 l 1
 870 1207 868 1190 865 1173 c 0
 862 1158 857 1143 852 1130 c 0
 824 1060 773 1008 699 975 c 0
 650 953 595 942 536 942 c 0
 437 942 371 979 337 1052 c 0
 315 1099 311 1154 324 1217 c 0
 353 1345 428 1439 551 1499 c 0
 613 1530 683 1549 760 1557 c 0
 785 1560 809 1561 832 1561 c 0
 948 1560 1041 1531 1111 1474 c 0
 1128 1459 1142 1444 1153 1428 c 0
 1184 1383 1195 1314 1184 1222 c 0
 1182 1203 1179 1185 1175 1166 c 0
 1157 1083 1110 1009 1034 942 c 0
 990 903 954 866 926 829 c 2
 915 815 l 2
 890 782 871 739 859 685 c 0
 858 680 854 662 848 633 c 1
 796 388 l 1
 819 394 840 397 860 397 c 0
 907 397 944 380 969 345 c 0
 996 308 1003 262 991 205 c 0
 986 181 977 157 966 134 c 0
 937 77 894 36 835 11 c 0
 803 -2 770 -9 735 -9 c 0
 686 -8 650 -2 626 10 c 0
 605 21 586 36 568 57 c 0
 537 91 531 157 549 255 c 0
 551 270 554 286 558 304 c 1
 628 633 l 2
780 111 m 0
 805 111 827 125 846 153 c 0
 855 166 861 180 864 196 c 0
 871 239 862 266 837 277 c 0
 831 280 824 281 816 281 c 0
 785 281 764 261 751 221 c 0
 750 216 748 211 747 205 c 0
 734 142 745 111 780 111 c 0
511 1188 m 0
 502 1134 523 1106 576 1103 c 1
 603 1106 l 1
 636 1113 660 1132 675 1162 c 0
 680 1171 683 1181 685 1190 c 0
 691 1224 680 1248 653 1261 c 1
 629 1268 l 1
 624 1269 619 1269 614 1269 c 0
 576 1269 547 1254 526 1224 c 0
 519 1213 514 1201 511 1188 c 0
EndSplineSet
EndChar
StartChar: uni0E44
Encoding: 186 3652 188
OldEncoding: 3652
Width: 1140
Flags: HW
Fore
882 1194 m 2
 891 1235 883 1256 860 1256 c 0
 845 1256 828 1242 809 1215 c 1
 760 1148 l 1
 705 1082 635 1048 548 1047 c 0
 533 1047 519 1049 506 1052 c 0
 421 1075 370 1180 354 1366 c 0
 353 1385 350 1436 346 1521 c 1
 543 1521 l 1
 551 1408 563 1336 579 1305 c 0
 588 1290 597 1282 608 1282 c 0
 631 1282 658 1302 687 1343 c 1
 764 1454 l 1
 817 1525 874 1564 933 1571 c 0
 942 1572 950 1572 958 1572 c 0
 1059 1567 1119 1527 1136 1450 c 0
 1143 1419 1143 1382 1134 1341 c 2
 931 388 l 1
 954 394 975 397 995 397 c 0
 1042 397 1079 380 1104 345 c 0
 1131 308 1138 262 1126 205 c 0
 1121 181 1112 157 1101 134 c 0
 1072 77 1029 36 970 11 c 0
 938 -2 905 -9 870 -9 c 0
 821 -8 785 -2 761 10 c 0
 740 21 721 36 703 57 c 0
 672 92 667 162 687 269 c 0
 689 281 691 294 694 308 c 1
 882 1194 l 2
915 111 m 0
 940 111 962 125 981 153 c 0
 990 166 996 180 999 196 c 0
 1006 239 997 266 972 277 c 0
 966 280 959 281 951 281 c 0
 920 281 899 261 886 221 c 0
 885 216 883 211 882 205 c 0
 869 142 880 111 915 111 c 0
EndSplineSet
EndChar
StartChar: uni0E45
Encoding: 187 3653 189
OldEncoding: 3653
Width: 1000
Flags: HW
Fore
1044 753 m 2
 803 -380 l 1
 583 -380 l 1
 818 729 l 1
 835 810 819 867 770 901 c 0
 743 920 705 929 658 929 c 0
 599 929 540 904 482 853 c 0
 451 826 426 796 408 764 c 1
 227 846 l 1
 278 928 345 998 430 1056 c 0
 520 1118 608 1149 694 1149 c 0
 842 1149 946 1107 1006 1022 c 0
 1051 958 1065 875 1048 773 c 0
 1044 753 l 2
EndSplineSet
EndChar
StartChar: uni0E46
Encoding: 188 3654 190
OldEncoding: 3654
Width: 1100
Flags: HW
Fore
436 588 m 1
 455 586 l 1
 478 588 500 602 521 628 c 0
 528 637 533 645 536 652 c 1
 545 691 l 1
 548 719 539 739 516 750 c 0
 511 753 505 754 500 754 c 2
 483 751 l 1
 474 746 464 738 454 727 c 0
 444 715 434 700 425 681 c 1
 419 666 415 653 412 642 c 0
 406 614 414 596 436 588 c 1
888 -380 m 1
 682 -380 l 1
 926 771 l 1
 933 800 929 837 915 880 c 0
 909 901 901 917 892 929 c 1
 781 857 680 857 589 929 c 1
 565 903 549 882 541 866 c 0
 540 865 539 863 539 862 c 1
 618 862 663 827 675 756 c 0
 680 729 679 702 673 674 c 0
 660 611 627 558 576 516 c 0
 529 477 476 457 415 457 c 0
 406 457 398 457 389 458 c 0
 322 464 279 500 258 567 c 0
 245 608 244 654 255 703 c 0
 258 716 261 729 265 741 c 0
 293 821 321 882 349 923 c 0
 366 948 387 974 412 999 c 0
 461 1048 516 1090 579 1124 c 0
 600 1135 619 1144 636 1149 c 1
 772 1041 l 1
 939 1149 l 1
 981 1137 1019 1112 1053 1073 c 1
 1071 1049 l 1
 1102 1011 1123 959 1134 894 c 0
 1141 850 1140 809 1132 771 c 2
 888 -380 l 1
EndSplineSet
EndChar
StartChar: uni0E47
Encoding: 189 3655 191
OldEncoding: 3655
Width: 0
Flags: HW
Fore
-122 1562 m 1
 -139 1561 -153 1553 -163 1538 c 1
 -169 1522 l 1
 -169 1521 l 1
 -172 1504 -164 1493 -146 1488 c 1
 -133 1487 l 1
 -115 1488 -102 1495 -93 1510 c 0
 -90 1514 -89 1518 -88 1523 c 0
 -84 1540 -90 1552 -106 1559 c 1
 -122 1562 l 1
-222 1434 m 1
 -249 1454 -259 1483 -252 1522 c 0
 -249 1533 -245 1544 -240 1553 c 0
 -216 1596 -179 1623 -128 1633 c 0
 -121 1634 -113 1635 -105 1636 c 1
 -67 1634 l 1
 -20 1627 8 1605 19 1566 c 0
 27 1539 27 1509 20 1476 c 0
 14 1447 4 1420 -11 1395 c 0
 -50 1334 -100 1298 -162 1287 c 0
 -173 1285 -185 1284 -196 1284 c 0
 -271 1284 -332 1300 -377 1333 c 1
 -420 1362 l 1
 -433 1369 -448 1372 -463 1372 c 0
 -484 1372 -499 1354 -508 1318 c 0
 -514 1296 -519 1285 -523 1284 c 0
 -622 1284 -684 1320 -709 1393 c 0
 -722 1428 -724 1467 -715 1510 c 0
 -711 1529 -705 1546 -697 1563 c 0
 -661 1640 -607 1696 -536 1730 c 0
 -517 1739 -498 1746 -477 1751 c 1
 -446 1761 -386 1768 -299 1773 c 0
 -206 1779 -138 1791 -97 1809 c 0
 -55 1828 -24 1856 -5 1894 c 1
 176 1894 l 1
 161 1844 121 1793 58 1741 c 0
 5 1698 -44 1671 -91 1660 c 0
 -116 1653 -177 1646 -274 1637 c 0
 -379 1628 -450 1612 -487 1589 c 0
 -509 1576 -524 1559 -531 1538 c 1
 -539 1511 l 2
 -540 1509 -540 1507 -539 1506 c 1
 -540 1502 -538 1495 -534 1486 c 1
 -508 1521 -478 1539 -445 1539 c 0
 -438 1539 -431 1538 -425 1536 c 0
 -395 1528 -369 1513 -346 1492 c 0
 -311 1459 -287 1439 -275 1434 c 0
 -264 1429 -254 1427 -247 1427 c 1
 -230 1430 l 2
 -227 1431 -224 1433 -222 1434 c 1
EndSplineSet
EndChar
StartChar: uni0E48
Encoding: 190 3656 192
OldEncoding: 3656
Width: 0
Flags: HW
Fore
69 2106 m 1
 300 2106 l 1
 241 1826 l 1
 10 1826 l 1
 69 2106 l 1
EndSplineSet
EndChar
StartChar: uni0E49
Encoding: 191 3657 193
OldEncoding: 3657
Width: 0
Flags: HW
Fore
524 2156 m 1
 462 2021 354 1910 199 1825 c 0
 102 1770 -5 1734 -120 1716 c 0
 -151 1711 -188 1707 -230 1703 c 1
 -207 1810 l 1
 -159 1821 -126 1840 -109 1867 c 0
 -105 1872 -102 1878 -99 1885 c 1
 -114 1880 -128 1878 -143 1878 c 0
 -164 1877 -182 1882 -198 1891 c 1
 -218 1906 l 2
 -223 1910 -227 1915 -230 1920 c 0
 -251 1950 -257 1987 -248 2030 c 1
 -235 2080 -205 2119 -160 2146 c 0
 -133 2161 -106 2169 -78 2170 c 1
 -40 2167 l 1
 12 2158 48 2131 67 2087 c 1
 76 2057 l 1
 78 2025 l 1
 77 2009 l 1
 66 1966 l 1
 49 1925 l 1
 43 1915 l 1
 98 1926 152 1953 205 1994 c 0
 226 2010 245 2027 262 2046 c 0
 294 2081 321 2117 342 2156 c 1
 524 2156 l 1
-110 1966 m 0
 -90 1966 -73 1975 -58 1994 c 0
 -51 2002 -47 2011 -45 2020 c 0
 -41 2039 -47 2054 -64 2065 c 0
 -71 2070 -78 2073 -87 2073 c 0
 -109 2073 -127 2063 -141 2044 c 1
 -151 2026 l 1
 -153 2020 l 0
 -158 1997 -151 1980 -132 1970 c 0
 -125 1967 -118 1966 -110 1966 c 0
EndSplineSet
EndChar
StartChar: uni0E4A
Encoding: 192 3658 194
OldEncoding: 3658
Width: 0
Flags: HW
Fore
-215 1798 m 1
 -216 1822 -224 1835 -239 1837 c 1
 -251 1836 l 1
 -271 1831 -285 1821 -294 1806 c 1
 -297 1794 l 1
 -296 1769 -286 1756 -266 1756 c 0
 -249 1756 -235 1764 -223 1780 c 0
 -218 1785 -216 1791 -215 1798 c 1
254 1918 m 1
 406 2169 l 1
 586 2169 l 2
 585 2169 518 2057 385 1832 c 0
 334 1747 240 1695 102 1677 c 0
 78 1674 54 1672 30 1672 c 1
 63 1711 85 1754 96 1802 c 0
 108 1861 102 1911 77 1950 c 1
 71 1961 64 1970 55 1976 c 1
 -112 1858 l 1
 -192 1946 l 1
 -226 1975 l 1
 -226 1976 l 1
 -252 1967 -275 1949 -295 1922 c 0
 -298 1919 -300 1915 -301 1912 c 0
 -304 1906 -308 1897 -312 1886 c 1
 -287 1905 -259 1914 -228 1914 c 0
 -180 1914 -151 1893 -142 1851 c 0
 -141 1843 -140 1835 -139 1826 c 1
 -143 1793 l 1
 -153 1750 -177 1717 -216 1694 c 0
 -221 1691 -227 1689 -233 1686 c 0
 -260 1674 -289 1668 -322 1668 c 0
 -350 1668 -375 1672 -396 1681 c 0
 -441 1700 -468 1738 -476 1795 c 0
 -479 1822 -478 1851 -471 1882 c 0
 -470 1891 -468 1899 -465 1908 c 0
 -448 1972 -400 2031 -322 2086 c 0
 -279 2116 -235 2139 -189 2154 c 1
 -74 2036 l 1
 92 2154 l 1
 153 2132 200 2096 232 2046 c 0
 257 2007 266 1969 258 1931 c 1
 254 1918 l 1
EndSplineSet
EndChar
StartChar: uni0E4B
Encoding: 193 3659 195
OldEncoding: 3659
Width: 0
Flags: HW
Fore
217 1793 m 1
 94 1793 l 1
 67 1670 l 1
 -104 1670 l 1
 -77 1793 l 1
 -208 1793 l 1
 -171 1967 l 1
 -40 1967 l 1
 -13 2096 l 1
 158 2096 l 1
 131 1967 l 1
 254 1967 l 1
 217 1793 l 1
EndSplineSet
EndChar
StartChar: uni0E4C
Encoding: 194 3660 196
OldEncoding: 3660
Width: 0
Flags: HW
Fore
513 2169 m 1
 481 2114 428 2060 353 2009 c 0
 300 1974 245 1947 188 1930 c 0
 166 1923 146 1919 127 1918 c 1
 158 1901 173 1867 174 1817 c 1
 170 1789 l 1
 164 1764 148 1734 121 1699 c 0
 93 1662 50 1637 -9 1625 c 0
 -22 1623 -34 1622 -45 1621 c 1
 -87 1624 l 1
 -142 1633 -182 1651 -205 1680 c 2
 -208 1683 l 1
 -231 1716 -240 1756 -234 1805 c 1
 -228 1831 l 1
 -210 1891 -179 1937 -135 1969 c 0
 -95 1998 -25 2023 76 2044 c 0
 120 2053 147 2060 158 2063 c 0
 209 2079 255 2102 296 2133 c 0
 312 2146 324 2158 333 2169 c 1
 513 2169 l 1
-17 1857 m 0
 -46 1857 -69 1846 -86 1824 c 0
 -93 1815 -98 1804 -100 1793 c 0
 -103 1777 -99 1763 -86 1750 c 0
 -74 1739 -58 1733 -39 1733 c 1
 -7 1738 16 1752 31 1775 c 0
 35 1782 38 1788 39 1795 c 0
 45 1824 35 1843 10 1852 c 0
 3 1855 -6 1857 -17 1857 c 0
EndSplineSet
EndChar
StartChar: uni0E4D
Encoding: 195 3661 197
OldEncoding: 3661
Width: 0
Flags: HW
Fore
62 1522 m 0
 105 1522 139 1507 163 1476 c 1
 186 1444 193 1406 184 1362 c 0
 175 1319 152 1283 116 1252 c 0
 79 1221 39 1206 -4 1206 c 0
 -47 1206 -80 1221 -105 1252 c 0
 -130 1283 -138 1319 -129 1362 c 0
 -120 1406 -96 1444 -58 1476 c 0
 -21 1507 19 1522 62 1522 c 0
17 1310 m 0
 40 1310 58 1320 72 1340 c 0
 77 1347 80 1354 82 1362 c 0
 87 1384 80 1400 62 1410 c 0
 55 1413 48 1415 39 1415 c 0
 16 1415 -2 1405 -15 1385 c 1
 -24 1366 l 1
 -25 1362 l 2
 -30 1340 -23 1324 -4 1315 c 0
 2 1312 9 1310 17 1310 c 0
EndSplineSet
EndChar
StartChar: uni0E4E
Encoding: 196 3662 198
OldEncoding: 3662
Width: 0
Flags: HW
Fore
298 1885 m 1
 242 1900 188 1908 135 1909 c 1
 98 1907 l 1
 69 1902 53 1888 48 1866 c 0
 42 1839 57 1820 92 1810 c 0
 107 1806 125 1804 145 1804 c 2
 215 1804 l 1
 188 1675 l 1
 123 1675 l 2
 45 1675 -1 1659 -14 1627 c 0
 -15 1624 -16 1620 -17 1617 c 1
 -16 1605 l 1
 -8 1584 28 1572 93 1567 c 0
 102 1566 111 1566 119 1566 c 2
 197 1566 l 1
 171 1444 l 1
 87 1444 l 2
 -12 1444 -87 1461 -138 1495 c 128
 -189 1529 -209 1569 -199 1616 c 0
 -190 1655 -164 1691 -119 1722 c 0
 -104 1732 -91 1739 -79 1744 c 1
 -110 1769 -125 1804 -122 1850 c 1
 -117 1884 l 1
 -105 1929 -77 1964 -32 1991 c 0
 16 2021 78 2036 153 2036 c 0
 209 2036 266 2028 325 2013 c 1
 298 1885 l 1
EndSplineSet
EndChar
StartChar: uni0E4F
Encoding: 197 3663 199
OldEncoding: 3663
Width: 1250
Flags: HW
Fore
690 852 m 0
 598 852 511 818 431 751 c 1
 351 684 300 603 280 507 c 0
 260 413 276 332 328 264 c 0
 379 197 451 163 544 163 c 0
 637 163 724 197 804 264 c 1
 885 332 935 413 955 507 c 0
 975 603 959 684 908 751 c 0
 856 818 784 852 690 852 c 0
595 406 m 0
 624 406 650 416 672 435 c 0
 695 454 709 478 715 508 c 0
 721 537 717 562 703 581 c 0
 689 600 667 609 639 609 c 0
 610 609 585 600 562 581 c 0
 540 562 525 537 519 508 c 0
 513 478 517 454 531 435 c 0
 546 416 567 406 595 406 c 0
729 1040 m 0
 873 1040 984 988 1064 884 c 0
 1143 780 1168 655 1136 509 c 0
 1105 363 1028 238 905 134 c 1
 781 30 647 -21 503 -21 c 0
 360 -21 249 30 170 134 c 0
 90 238 65 363 97 509 c 0
 128 655 205 780 329 884 c 1
 453 988 586 1040 729 1040 c 0
562 258 m 0
 489 258 433 282 396 330 c 0
 358 377 348 438 363 511 c 0
 379 584 415 644 473 692 c 0
 530 739 596 763 670 763 c 0
 744 763 800 739 837 692 c 0
 874 644 885 584 870 511 c 0
 854 438 818 377 760 330 c 0
 702 282 637 258 562 258 c 0
EndSplineSet
EndChar
StartChar: uni0E50
Encoding: 198 3664 200
OldEncoding: 3664
Width: 1250
Flags: HW
Fore
672 230 m 0
 740 230 802 255 858 305 c 0
 907 348 937 399 950 458 c 0
 965 529 951 586 908 631 c 0
 873 668 826 686 769 686 c 0
 702 685 641 660 587 610 c 1
 559 580 l 1
 529 543 509 503 500 458 c 0
 485 385 498 327 539 282 c 0
 572 247 616 230 672 230 c 0
619 -10 m 0
 496 -10 398 28 327 105 c 0
 254 183 225 283 239 405 c 0
 240 422 243 440 247 458 c 0
 273 581 335 686 434 773 c 0
 533 860 647 910 776 922 c 0
 790 923 804 924 818 924 c 2
 882 921 l 1
 1010 908 1104 853 1163 756 c 0
 1214 674 1230 581 1213 477 c 0
 1212 470 1210 464 1209 458 c 0
 1184 343 1123 241 1025 153 c 0
 930 68 824 16 706 -3 c 0
 677 -8 648 -10 619 -10 c 0
EndSplineSet
EndChar
StartChar: uni0E51
Encoding: 199 3665 201
OldEncoding: 3665
Width: 1300
Flags: HW
Fore
989 524 m 0
 989 656 921 722 786 722 c 2
 779 722 l 2
 692 721 627 685 586 616 c 0
 571 591 562 567 557 544 c 0
 552 521 553 497 558 474 c 0
 568 435 588 415 617 414 c 0
 627 414 637 417 647 422 c 1
 616 440 601 472 602 518 c 1
 605 550 l 1
 617 600 646 638 693 663 c 0
 704 669 716 674 728 677 c 0
 751 684 774 687 799 687 c 0
 827 687 852 683 873 675 c 0
 906 664 931 638 947 599 c 0
 952 584 955 569 956 553 c 1
 959 521 958 491 952 462 c 0
 944 427 929 393 907 360 c 0
 854 281 783 231 693 211 c 0
 668 206 642 203 615 203 c 0
 516 203 437 236 379 302 c 0
 362 322 348 344 337 367 c 0
 316 412 314 474 330 552 c 1
 346 609 l 1
 358 643 373 672 390 697 c 0
 483 829 605 904 756 921 c 0
 779 924 801 925 823 925 c 0
 938 924 1033 893 1107 832 c 0
 1142 803 1169 770 1186 733 c 0
 1189 727 1191 721 1193 715 c 0
 1220 644 1223 560 1202 463 c 0
 1177 347 1128 250 1053 172 c 0
 1049 167 1045 163 1040 159 c 0
 946 66 821 12 664 -4 c 0
 633 -7 602 -9 572 -9 c 0
 431 -8 322 23 243 84 c 0
 230 93 219 104 209 115 c 1
 344 292 l 1
 392 245 441 213 490 197 c 0
 521 188 556 181 595 178 c 1
 651 178 l 1
 737 183 809 213 867 270 c 0
 930 331 968 395 983 463 c 0
 987 483 989 503 989 524 c 0
700 545 m 0
 695 520 702 503 722 492 c 0
 730 487 739 485 750 485 c 0
 781 485 804 500 818 529 c 0
 821 535 824 541 825 548 c 0
 830 569 822 585 802 596 c 0
 794 601 784 603 773 603 c 0
 746 602 725 591 710 568 c 0
 705 561 702 553 700 545 c 0
EndSplineSet
EndChar
StartChar: uni0E52
Encoding: 200 3666 202
OldEncoding: 3666
Width: 1350
Flags: HW
Fore
709 513 m 0
 704 490 710 474 729 465 c 0
 735 462 742 461 750 461 c 0
 776 461 796 473 809 496 c 0
 812 502 815 509 816 516 c 0
 821 537 813 552 792 559 c 0
 785 562 778 563 770 563 c 0
 745 562 727 551 714 530 c 0
 711 525 710 519 709 513 c 0
545 0 m 1
 429 7 352 54 315 141 c 0
 296 187 290 242 297 307 c 1
 337 611 l 1
 357 801 350 975 316 1134 c 1
 550 1134 l 1
 577 979 577 788 552 560 c 1
 537 438 529 363 527 334 c 0
 525 284 541 250 574 231 c 0
 582 226 591 223 601 221 c 0
 620 218 643 216 672 216 c 2
 1050 217 l 1
 1111 506 l 2
 1124 566 1123 620 1108 667 c 0
 1103 684 1096 695 1085 702 c 1
 1085 701 1045 678 966 632 c 1
 867 702 l 1
 860 696 853 687 846 674 c 1
 872 668 895 651 914 624 c 1
 934 599 941 565 936 523 c 1
 934 511 l 1
 925 469 902 430 863 394 c 0
 827 360 783 343 731 343 c 0
 648 343 597 369 578 420 c 0
 564 458 565 513 580 586 c 1
 599 664 637 732 693 790 c 0
 722 819 766 851 827 885 c 0
 861 904 890 917 914 924 c 1
 914 923 945 892 1008 831 c 1
 1132 924 l 1
 1189 908 1239 867 1282 801 c 0
 1309 760 1325 719 1331 679 c 0
 1339 631 1336 573 1321 506 c 1
 1214 0 l 1
 545 0 l 1
EndSplineSet
EndChar
StartChar: uni0E53
Encoding: 201 3667 203
OldEncoding: 3667
Width: 1400
Flags: HW
Fore
350 138 m 1
 353 115 368 104 396 104 c 2
 410 105 l 1
 438 112 455 127 460 151 c 0
 465 176 457 192 434 197 c 1
 414 198 l 1
 409 197 404 196 400 195 c 0
 377 190 362 176 354 153 c 1
 350 138 l 1
213 108 m 0
 186 219 178 337 189 460 c 0
 193 495 198 529 205 561 c 0
 244 743 332 857 470 903 c 0
 509 916 552 923 599 924 c 1
 655 922 l 1
 738 913 801 884 845 835 c 0
 857 822 866 807 873 792 c 1
 915 849 975 888 1054 909 c 0
 1089 919 1126 924 1163 924 c 0
 1384 924 1464 778 1402 487 c 1
 1386 408 1359 318 1320 217 c 0
 1295 150 1264 77 1229 0 c 1
 1000 0 l 1
 1071 166 1119 304 1143 415 c 0
 1173 557 1156 628 1093 628 c 0
 1019 628 964 589 927 510 c 0
 908 470 889 409 872 326 c 2
 849 216 l 1
 645 216 l 1
 669 327 682 393 685 414 c 0
 702 531 683 601 628 625 c 0
 613 632 594 636 571 636 c 0
 495 636 447 593 428 506 c 0
 424 486 421 464 420 439 c 0
 419 406 420 369 425 328 c 1
 438 331 450 333 462 333 c 0
 481 334 500 330 517 321 c 0
 528 315 538 308 546 300 c 0
 584 263 597 218 585 163 c 0
 560 48 478 -10 338 -10 c 1
 275 -3 234 33 216 96 c 0
 213 108 l 0
EndSplineSet
EndChar
StartChar: uni0E54
Encoding: 202 3668 204
OldEncoding: 3668
Width: 1550
Flags: HW
Fore
1778 1262 m 1
 1754 1164 1700 1063 1616 960 c 0
 1572 905 1529 862 1486 830 c 0
 1374 746 1236 704 1073 704 c 2
 813 704 l 2
 662 704 560 659 508 568 c 0
 491 539 479 503 470 462 c 0
 459 411 469 360 502 311 c 1
 539 260 583 233 634 231 c 1
 683 231 788 252 949 295 c 0
 961 298 961 298 972 301 c 1
 950 322 934 344 924 368 c 0
 909 403 905 433 910 459 c 0
 926 533 959 590 1010 631 c 0
 1061 672 1119 692 1183 692 c 0
 1247 692 1292 675 1318 642 c 1
 1347 603 1356 555 1346 500 c 1
 1333 442 1305 394 1262 357 c 0
 1229 329 1193 314 1154 313 c 1
 1178 302 1208 294 1245 289 c 0
 1255 288 1263 286 1270 284 c 0
 1334 267 1393 230 1446 173 c 1
 1252 -2 l 1
 1231 22 1206 41 1177 55 c 0
 1149 69 1105 76 1046 76 c 0
 1003 76 938 64 849 40 c 0
 736 9 646 -6 578 -6 c 0
 452 -6 355 40 286 132 c 128
 218 224 198 336 226 469 c 0
 258 618 332 731 448 808 c 128
 565 885 705 924 868 924 c 2
 1114 924 l 2
 1326 924 1470 1037 1546 1262 c 1
 1778 1262 l 1
1126 424 m 0
 1145 424 1162 431 1179 444 c 0
 1195 456 1205 471 1208 489 c 0
 1212 508 1209 524 1199 538 c 1
 1188 551 1173 557 1154 557 c 0
 1135 557 1118 550 1102 537 c 0
 1086 524 1076 508 1072 489 c 0
 1069 471 1072 456 1082 444 c 0
 1093 431 1107 424 1126 424 c 0
EndSplineSet
EndChar
StartChar: uni0E55
Encoding: 203 3669 205
OldEncoding: 3669
Width: 1550
Flags: HW
Fore
813 922 m 1
 808 948 808 973 813 997 c 0
 824 1049 853 1093 898 1130 c 0
 943 1167 992 1186 1045 1186 c 0
 1097 1186 1138 1167 1167 1130 c 0
 1196 1093 1205 1049 1194 997 c 0
 1189 970 1179 947 1165 926 c 1
 1350 945 1477 1057 1546 1262 c 1
 1778 1262 l 1
 1754 1164 1700 1063 1616 960 c 0
 1572 905 1529 862 1486 830 c 0
 1374 746 1236 704 1073 704 c 2
 813 704 l 2
 662 704 560 659 508 568 c 0
 491 539 479 503 470 462 c 0
 459 411 469 360 502 311 c 1
 539 260 583 233 634 231 c 1
 683 231 788 252 949 295 c 0
 961 298 961 298 972 301 c 1
 950 322 934 344 924 368 c 0
 909 403 905 433 910 459 c 0
 926 533 959 590 1010 631 c 0
 1061 672 1119 692 1183 692 c 0
 1247 692 1292 675 1318 642 c 1
 1347 603 1356 555 1346 500 c 1
 1333 442 1305 394 1262 357 c 0
 1229 329 1193 314 1154 313 c 1
 1178 302 1208 294 1245 289 c 0
 1255 288 1263 286 1270 284 c 0
 1334 267 1393 230 1446 173 c 1
 1252 -2 l 1
 1231 22 1206 41 1177 55 c 0
 1149 69 1105 76 1046 76 c 0
 1003 76 938 64 849 40 c 0
 736 9 646 -6 578 -6 c 0
 452 -6 355 40 286 132 c 128
 218 224 198 336 226 469 c 0
 258 618 332 731 448 808 c 0
 550 875 672 913 813 922 c 1
1126 424 m 0
 1145 424 1162 431 1179 444 c 0
 1195 456 1205 471 1208 489 c 0
 1212 508 1209 524 1199 538 c 1
 1188 551 1173 557 1154 557 c 0
 1135 557 1118 550 1102 537 c 0
 1086 524 1076 508 1072 489 c 0
 1069 471 1072 456 1082 444 c 0
 1093 431 1107 424 1126 424 c 0
992 937 m 0
 1008 937 1023 943 1038 955 c 1
 1053 966 1062 979 1065 995 c 0
 1069 1013 1066 1028 1056 1039 c 0
 1047 1051 1034 1057 1017 1057 c 0
 1000 1057 984 1051 969 1039 c 0
 954 1028 945 1013 941 995 c 0
 938 979 941 966 951 955 c 0
 961 943 975 937 992 937 c 0
EndSplineSet
EndChar
StartChar: uni0E56
Encoding: 204 3670 206
OldEncoding: 3670
Width: 1300
Flags: HW
Fore
668 900 m 1
 733 916 782 925 815 927 c 0
 826 928 838 928 850 928 c 0
 1010 928 1131 883 1212 792 c 0
 1294 702 1319 583 1288 436 c 0
 1259 301 1190 191 1081 108 c 0
 972 25 850 -16 715 -16 c 0
 604 -16 518 20 459 91 c 0
 400 162 380 245 399 338 c 0
 415 413 449 474 502 522 c 0
 556 570 614 594 677 594 c 0
 729 594 770 575 799 538 c 0
 828 501 838 457 827 406 c 0
 816 356 790 313 748 276 c 0
 734 263 719 253 702 244 c 1
 705 223 724 211 759 207 c 0
 764 206 770 206 775 206 c 0
 862 206 934 234 990 289 c 0
 1029 327 1054 374 1066 429 c 0
 1093 557 1055 642 954 683 c 1
 907 697 l 1
 876 704 841 708 803 708 c 0
 690 708 585 689 486 650 c 1
 429 930 367 1124 299 1232 c 0
 293 1243 287 1253 280 1262 c 1
 583 1262 l 1
 637 1135 665 1014 668 900 c 1
626 344 m 0
 643 344 659 350 673 362 c 1
 689 373 699 386 702 402 c 0
 706 420 703 435 693 447 c 0
 682 459 668 465 651 465 c 0
 634 465 617 459 602 446 c 0
 587 435 578 420 574 402 c 0
 571 386 574 373 584 362 c 0
 595 350 609 344 626 344 c 0
EndSplineSet
EndChar
StartChar: uni0E57
Encoding: 205 3671 207
OldEncoding: 3671
Width: 1540
Flags: HW
Fore
1487 334 m 1
 1440 111 1297 -0 1057 0 c 2
 771 0 l 1
 773 10 l 1
 808 53 847 117 888 203 c 0
 929 289 956 367 971 436 c 0
 1002 583 991 657 938 657 c 0
 900 657 872 643 854 614 c 0
 838 589 823 543 809 477 c 0
 807 467 l 1
 591 467 l 1
 604 550 607 602 600 624 c 0
 596 636 589 645 580 650 c 1
 560 656 l 2
 555 657 550 657 545 657 c 0
 511 657 484 632 465 582 c 1
 447 520 l 1
 443 504 437 479 430 445 c 0
 422 408 420 379 423 358 c 1
 436 363 450 366 466 366 c 0
 470 366 470 366 477 366 c 0
 527 364 566 344 595 306 c 1
 622 268 631 223 620 172 c 0
 609 120 581 76 536 39 c 0
 490 2 441 -16 389 -16 c 0
 306 -16 249 23 219 101 c 0
 188 179 188 291 219 436 c 0
 274 695 369 850 504 903 c 0
 534 915 567 922 602 924 c 1
 650 923 l 1
 719 916 761 884 777 825 c 1
 815 891 883 924 981 924 c 0
 995 924 l 0
 1123 921 1195 847 1211 704 c 0
 1218 646 1216 578 1203 499 c 0
 1199 478 1195 457 1190 436 c 0
 1173 358 1159 303 1147 271 c 0
 1140 254 1132 235 1122 216 c 1
 1137 216 l 2
 1180 216 1213 239 1238 285 c 0
 1246 301 1252 319 1256 338 c 2
 1425 1130 l 1
 1657 1130 l 1
 1487 334 l 1
416 109 m 0
 440 109 460 120 475 141 c 0
 483 151 488 162 490 173 c 0
 495 196 489 214 470 225 c 1
 462 231 453 234 442 234 c 0
 419 234 399 224 383 203 c 0
 376 194 371 184 368 173 c 0
 363 147 369 128 388 116 c 0
 397 111 406 109 416 109 c 0
EndSplineSet
EndChar
StartChar: uni0E58
Encoding: 206 3672 208
OldEncoding: 3672
Width: 1580
Flags: HW
Fore
1786 1263 m 1
 1770 1195 l 1
 1738 1088 1688 990 1621 902 c 0
 1588 860 1556 827 1523 804 c 0
 1452 753 1335 719 1172 702 c 0
 1159 701 1147 700 1135 699 c 0
 1109 697 1028 695 891 692 c 0
 778 690 680 671 597 636 c 0
 565 623 538 598 515 562 c 0
 500 537 489 509 482 478 c 0
 481 473 480 467 479 462 c 0
 470 411 484 369 520 336 c 0
 538 320 558 310 581 306 c 1
 590 351 607 390 632 423 c 0
 638 430 638 430 645 438 c 0
 676 475 721 500 780 511 c 0
 796 514 811 516 826 516 c 0
 861 516 894 506 927 487 c 0
 959 468 997 424 1042 354 c 0
 1077 300 1096 271 1098 267 c 1
 1125 232 1159 215 1202 215 c 0
 1226 216 1246 229 1262 255 c 0
 1267 263 1270 271 1272 280 c 0
 1275 293 1273 302 1267 309 c 1
 1214 309 1173 328 1145 366 c 0
 1117 403 1109 448 1120 500 c 0
 1131 551 1159 595 1204 632 c 0
 1249 669 1298 688 1350 688 c 0
 1425 688 1480 660 1515 603 c 0
 1550 546 1558 472 1538 381 c 0
 1512 258 1464 161 1393 92 c 0
 1322 23 1242 -12 1152 -12 c 0
 1107 -12 1064 1 1022 28 c 0
 981 54 934 110 881 196 c 0
 846 254 820 283 803 283 c 0
 774 283 750 236 729 141 c 1
 700 0 l 1
 575 0 l 2
 446 0 349 45 282 134 c 0
 216 223 197 335 226 469 c 0
 257 615 331 728 448 808 c 0
 538 869 658 906 807 917 c 0
 824 918 901 921 1038 925 c 0
 1165 929 1261 944 1325 971 c 0
 1431 1015 1502 1102 1538 1232 c 0
 1541 1242 1544 1252 1546 1262 c 1
 1786 1263 l 1
1294 424 m 0
 1324 424 1349 437 1368 462 c 0
 1377 473 1382 485 1385 498 c 0
 1392 529 1384 552 1361 566 c 1
 1341 574 l 1
 1326 575 l 2
 1295 575 1270 562 1250 535 c 1
 1238 513 l 1
 1236 508 1234 503 1233 498 c 0
 1227 469 1235 448 1258 434 c 0
 1268 427 1280 424 1294 424 c 0
EndSplineSet
EndChar
StartChar: uni0E59
Encoding: 207 3673 209
OldEncoding: 3673
Width: 1500
Flags: HW
Fore
1654 1130 m 1
 1623 985 1576 845 1513 708 c 0
 1499 678 1486 653 1475 633 c 0
 1426 548 1366 495 1295 475 c 0
 1278 470 1262 468 1245 468 c 0
 1183 468 1140 479 1115 501 c 0
 1106 508 1098 518 1090 530 c 1
 1052 598 l 1
 1043 611 1032 617 1019 618 c 1
 995 616 l 1
 977 608 l 1
 961 599 945 580 929 552 c 1
 1029 0 l 1
 802 0 l 1
 699 477 l 1
 691 518 682 549 673 569 c 0
 659 600 633 615 594 615 c 0
 554 615 519 598 490 564 c 1
 467 535 l 1
 451 511 438 478 429 435 c 0
 423 406 420 379 421 356 c 1
 432 361 439 363 444 363 c 2
 471 362 l 2
 525 362 566 343 595 306 c 1
 622 268 631 223 620 172 c 0
 609 120 581 76 536 39 c 0
 490 2 441 -16 389 -16 c 0
 306 -16 249 23 219 101 c 0
 188 179 188 291 219 436 c 0
 252 593 307 714 383 798 c 0
 460 882 553 924 663 924 c 0
 766 924 834 875 866 776 c 1
 930 875 998 924 1070 924 c 0
 1095 924 1117 916 1138 900 c 128
 1158 884 1179 849 1201 794 c 0
 1216 757 1237 738 1264 738 c 0
 1270 738 l 0
 1306 744 1345 812 1388 943 c 0
 1404 994 1422 1056 1442 1130 c 1
 1654 1130 l 1
414 107 m 0
 431 107 447 113 461 126 c 0
 476 139 486 154 490 173 c 0
 494 190 491 205 481 218 c 0
 472 230 459 236 442 236 c 0
 425 236 410 230 396 218 c 0
 381 205 371 190 367 173 c 0
 363 154 366 139 375 126 c 0
 384 113 397 107 414 107 c 0
EndSplineSet
EndChar
StartChar: uni0E5A
Encoding: 208 3674 210
OldEncoding: 3674
Width: 1400
Flags: HW
Fore
1269 1149 m 1
 1025 0 l 1
 805 0 l 1
 969 776 l 1
 914 722 832 687 723 672 c 0
 692 667 660 665 628 665 c 0
 531 665 454 683 395 719 c 0
 356 743 331 782 320 836 c 0
 315 861 314 887 319 914 c 1
 330 958 l 1
 352 1023 392 1074 449 1110 c 0
 479 1129 510 1140 543 1144 c 1
 590 1147 l 1
 665 1146 718 1117 748 1061 c 1
 749 1057 751 1053 753 1050 c 0
 761 1031 761 1005 754 972 c 0
 749 944 739 918 725 895 c 0
 716 880 707 869 696 860 c 1
 731 857 l 1
 780 858 825 871 868 895 c 0
 871 896 874 898 877 900 c 0
 946 943 998 1011 1033 1103 c 0
 1039 1118 1044 1133 1049 1149 c 1
 1269 1149 l 1
463 958 m 1
 460 936 l 1
 461 911 473 896 498 890 c 0
 503 889 507 889 512 889 c 0
 537 889 559 899 579 920 c 0
 590 932 596 945 599 958 c 0
 604 981 598 1000 579 1013 c 0
 570 1020 559 1023 547 1023 c 0
 513 1023 488 1008 471 978 c 1
 463 958 l 1
1284 0 m 1
 1065 0 l 1
 1309 1149 l 1
 1528 1149 l 1
 1284 0 l 1
EndSplineSet
EndChar
StartChar: uni0E5B
Encoding: 209 3675 211
OldEncoding: 3675
Width: 2370
Flags: HW
Fore
1736 300 m 0
 1692 300 1622 94 1516 94 c 0
 1424 94 1467 304 1413 304 c 0
 1368 304 1312 88 1207 88 c 0
 1090 88 1110 208 1104 300 c 1
 1071 296 1054 234 939 136 c 1
 850 45 716 -12 498 -10 c 0
 364 -9 257 54 188 150 c 0
 119 246 102 342 132 483 c 0
 162 622 234 762 336 844 c 0
 467 950 594 986 684 986 c 0
 776 986 913 964 969 848 c 0
 1017 746 1001 600 947 504 c 0
 870 364 717 274 566 272 c 0
 438 270 366 364 377 464 c 0
 390 584 462 666 526 706 c 0
 587 744 648 742 694 714 c 0
 723 697 737 678 741 642 c 0
 744 606 733 566 712 537 c 0
 689 504 662 486 625 473 c 0
 596 463 563 458 536 471 c 1
 533 457 596 427 676 452 c 0
 732 469 788 530 802 612 c 0
 822 722 737 786 625 786 c 0
 545 786 463 730 427 690 c 0
 361 618 340 546 323 464 c 0
 313 416 326 328 372 282 c 0
 412 242 483 222 553 222 c 0
 739 222 849 317 898 368 c 1
 1005 484 1080 615 1178 615 c 0
 1319 615 1225 410 1275 410 c 0
 1351 410 1336 615 1484 615 c 8
 1594 615 1526 384 1596 384 c 0
 1650 384 1666 507 1764 507 c 0
 1850 507 1813 364 1953 364 c 2
 2332 364 l 9
 2296 198 l 17
 1911 198 l 2
 1777 198 1753 300 1736 300 c 0
645 603 m 0
 649 625 635 643 611 643 c 0
 588 643 564 624 560 601 c 0
 556 579 571 561 595 561 c 0
 619 562 640 580 645 603 c 0
EndSplineSet
EndChar
StartChar: afii61664
Encoding: 210 8204 212
OldEncoding: 8204
Width: 0
Flags: HW
Fore
309 1289 m 1
 -22 -275 l 1
 -94 -275 l 1
 237 1289 l 1
 309 1289 l 1
EndSplineSet
EndChar
StartChar: afii301
Encoding: 211 8205 213
OldEncoding: 8205
Width: 0
Flags: HW
Fore
-22 -275 m 1
 -94 -275 l 1
 200 1114 l 1
 37 978 l 1
 0 1027 l 1
 206 1196 l 1
 70 1364 l 1
 130 1413 l 1
 263 1242 l 1
 470 1413 l 1
 508 1364 l 1
 302 1196 l 1
 437 1027 l 1
 377 978 l 1
 272 1114 l 1
 -22 -275 l 1
EndSplineSet
EndChar
StartChar: afii299
Encoding: 212 8206 214
OldEncoding: 8206
Width: 0
Flags: HW
Fore
684 1198 m 1
 422 984 l 1
 383 1033 l 1
 548 1163 l 1
 282 1163 l 1
 -23 -275 l 1
 -94 -275 l 1
 226 1234 l 1
 563 1234 l 1
 453 1364 l 1
 513 1413 l 1
 684 1198 l 1
EndSplineSet
EndChar
StartChar: afii300
Encoding: 213 8207 215
OldEncoding: 8207
Width: 0
Flags: HW
Fore
-23 -275 m 1
 -94 -275 l 1
 211 1163 l 1
 -54 1163 l 1
 54 1033 l 1
 -4 984 l 1
 -176 1198 l 1
 86 1413 l 1
 124 1364 l 1
 -39 1234 l 1
 297 1234 l 1
 -23 -275 l 1
EndSplineSet
EndChar
StartChar: uni2010
Encoding: 214 8208 216
OldEncoding: 8208
Width: 973
Flags: HW
Fore
353 768 m 1
 978 768 l 1
 930 543 l 1
 305 543 l 1
 353 768 l 1
EndSplineSet
EndChar
StartChar: endash
Encoding: 215 8211 217
OldEncoding: 8211
Width: 1125
Flags: HW
Fore
1237 525 m 1
 111 525 l 1
 161 759 l 1
 1287 759 l 1
 1237 525 l 1
EndSplineSet
EndChar
StartChar: emdash
Encoding: 216 8212 218
OldEncoding: 8212
Width: 1886
Flags: HW
Fore
1981 525 m 1
 111 525 l 1
 163 770 l 1
 2033 770 l 1
 1981 525 l 1
EndSplineSet
EndChar
StartChar: afii00208
Encoding: 217 8213 219
OldEncoding: 8213
Width: 1862
Flags: HW
Fore
1873 572 m 1
 231 572 l 1
 265 732 l 1
 1907 732 l 1
 1873 572 l 1
EndSplineSet
EndChar
StartChar: underscoredbl
Encoding: 218 8215 220
OldEncoding: 8215
Width: 1118
Flags: HW
Fore
1088 -212 m 1
 -61 -212 l 1
 -33 -82 l 1
 1116 -82 l 1
 1088 -212 l 1
1044 -423 m 1
 -105 -423 l 1
 -78 -293 l 1
 1071 -293 l 1
 1044 -423 l 1
EndSplineSet
EndChar
StartChar: quoteleft
Encoding: 219 8216 221
OldEncoding: 8216
Width: 450
Flags: HW
Fore
590 997 m 1
 408 997 l 1
 266 1556 l 1
 552 1556 l 1
 590 997 l 1
EndSplineSet
EndChar
StartChar: quoteright
Encoding: 220 8217 222
OldEncoding: 8217
Width: 580
Flags: HW
Fore
826 1556 m 1
 446 997 l 1
 263 997 l 1
 539 1556 l 1
 826 1556 l 1
EndSplineSet
EndChar
StartChar: quotesinglbase
Encoding: 221 8218 223
OldEncoding: 8218
Width: 432
Flags: HW
Fore
446 283 m 1
 66 -276 l 1
 -71 -276 l 1
 204 283 l 1
 446 283 l 1
EndSplineSet
EndChar
StartChar: quotereversed
Encoding: 222 8219 224
OldEncoding: 8219
Width: 432
Flags: HW
Fore
665 1556 m 1
 389 997 l 1
 147 997 l 1
 527 1556 l 1
 665 1556 l 1
EndSplineSet
EndChar
StartChar: quotedblleft
Encoding: 223 8220 225
OldEncoding: 8220
Width: 850
Flags: HW
Fore
936 997 m 1
 757 997 l 1
 615 1556 l 1
 898 1556 l 1
 936 997 l 1
587 997 m 1
 408 997 l 1
 266 1556 l 1
 549 1556 l 1
 587 997 l 1
EndSplineSet
EndChar
StartChar: quotedblright
Encoding: 224 8221 226
OldEncoding: 8221
Width: 1000
Flags: HW
Fore
1226 1556 m 1
 846 997 l 1
 667 997 l 1
 943 1556 l 1
 1226 1556 l 1
877 1556 m 1
 497 997 l 1
 318 997 l 1
 594 1556 l 1
 877 1556 l 1
EndSplineSet
EndChar
StartChar: quotedblbase
Encoding: 225 8222 227
OldEncoding: 8222
Width: 814
Flags: HW
Fore
841 283 m 1
 461 -276 l 1
 327 -276 l 1
 603 283 l 1
 841 283 l 1
447 283 m 1
 67 -276 l 1
 -66 -276 l 1
 209 283 l 1
 447 283 l 1
EndSplineSet
EndChar
StartChar: dagger
Encoding: 226 8224 228
OldEncoding: 8224
Width: 1118
Flags: HW
Fore
1202 1034 m 1
 840 1039 l 1
 653 135 l 1
 521 135 l 1
 718 1039 l 1
 354 1034 l 1
 382 1163 l 1
 744 1158 l 1
 823 1556 l 1
 955 1556 l 1
 866 1158 l 1
 1230 1163 l 1
 1202 1034 l 1
EndSplineSet
EndChar
StartChar: daggerdbl
Encoding: 227 8225 229
OldEncoding: 8225
Width: 1118
Flags: HW
Fore
1090 507 m 1
 728 512 l 1
 651 124 l 1
 519 124 l 1
 606 512 l 1
 242 507 l 1
 270 636 l 1
 632 631 l 1
 720 1049 l 1
 356 1044 l 1
 384 1173 l 1
 746 1168 l 1
 823 1556 l 1
 955 1556 l 1
 868 1168 l 1
 1232 1173 l 1
 1204 1044 l 1
 842 1049 l 1
 754 631 l 1
 1118 636 l 1
 1090 507 l 1
EndSplineSet
EndChar
StartChar: bullet
Encoding: 228 8226 230
OldEncoding: 8226
Width: 950
Flags: HW
Fore
957 662 m 0
 936 565 884 483 801 414 c 128
 718 345 628 311 531 311 c 0
 434 311 359 345 304 414 c 128
 250 483 233 565 254 662 c 128
 275 759 327 841 410 910 c 128
 493 979 583 1013 680 1013 c 0
 777 1013 852 979 907 910 c 0
 961 841 978 759 957 662 c 0
EndSplineSet
EndChar
StartChar: ellipsis
Encoding: 229 8230 231
OldEncoding: 8230
Width: 1650
Flags: HW
Fore
1497 0 m 1
 1293 0 l 1
 1340 223 l 1
 1544 223 l 1
 1497 0 l 1
939 0 m 1
 735 0 l 1
 782 223 l 1
 986 223 l 1
 939 0 l 1
381 0 m 1
 177 0 l 1
 224 223 l 1
 428 223 l 1
 381 0 l 1
EndSplineSet
EndChar
StartChar: perthousand
Encoding: 230 8240 232
OldEncoding: 8240
Width: 2848
Flags: HW
Fore
1035 1076 m 0
 1003 926 949 815 874 742 c 128
 798 670 703 634 589 634 c 0
 473 634 393 671 349 744 c 128
 305 817 299 928 330 1075 c 0
 362 1224 416 1335 492 1408 c 128
 568 1481 663 1517 777 1517 c 0
 893 1517 973 1480 1016 1407 c 128
 1060 1334 1066 1223 1035 1076 c 0
1789 1489 m 1
 693 0 l 1
 528 0 l 1
 1624 1489 l 1
 1789 1489 l 1
1984 413 m 0
 1952 263 1898 152 1822 80 c 128
 1747 7 1652 -29 1538 -29 c 0
 1422 -29 1342 8 1298 81 c 128
 1254 154 1248 265 1279 412 c 0
 1311 561 1365 672 1441 745 c 128
 1517 818 1612 854 1726 854 c 0
 1842 854 1922 817 1966 744 c 128
 2009 671 2015 560 1984 413 c 0
857 1076 m 0
 879 1177 884 1254 871 1306 c 128
 858 1358 818 1384 749 1384 c 128
 680 1384 628 1358 593 1305 c 128
 558 1252 529 1176 508 1075 c 0
 487 975 482 899 494 846 c 128
 505 793 547 767 618 767 c 0
 687 767 738 793 773 846 c 128
 808 899 836 975 857 1076 c 0
1806 413 m 0
 1828 514 1833 591 1820 643 c 128
 1807 695 1767 721 1698 721 c 128
 1629 721 1577 695 1542 642 c 128
 1507 589 1478 513 1457 412 c 0
 1436 312 1431 236 1442 183 c 128
 1454 130 1496 104 1567 104 c 0
 1636 104 1687 130 1722 183 c 128
 1757 236 1785 312 1806 413 c 0
2828 413 m 0
 2796 263 2742 152 2666 80 c 128
 2591 7 2496 -29 2382 -29 c 0
 2266 -29 2186 8 2142 81 c 128
 2098 154 2092 265 2123 412 c 0
 2155 561 2209 672 2285 745 c 128
 2361 818 2456 854 2570 854 c 0
 2686 854 2766 817 2810 744 c 128
 2853 671 2859 560 2828 413 c 0
2650 413 m 0
 2672 514 2677 591 2664 643 c 128
 2651 695 2611 721 2542 721 c 128
 2473 721 2421 695 2386 642 c 128
 2351 589 2322 513 2301 412 c 0
 2280 312 2275 236 2286 183 c 128
 2298 130 2340 104 2411 104 c 0
 2480 104 2531 130 2566 183 c 128
 2601 236 2629 312 2650 413 c 0
EndSplineSet
EndChar
StartChar: minute
Encoding: 231 8242 233
OldEncoding: 8242
Width: 602
Flags: HW
Fore
887 1489 m 1
 457 870 l 1
 321 870 l 1
 647 1489 l 1
 887 1489 l 1
EndSplineSet
EndChar
StartChar: second
Encoding: 232 8243 234
OldEncoding: 8243
Width: 972
Flags: HW
Fore
883 1489 m 1
 453 870 l 1
 321 870 l 1
 647 1489 l 1
 883 1489 l 1
1277 1489 m 1
 847 870 l 1
 715 870 l 1
 1041 1489 l 1
 1277 1489 l 1
EndSplineSet
EndChar
StartChar: guilsinglleft
Encoding: 233 8249 235
OldEncoding: 8249
Width: 784
Flags: HW
Fore
669 172 m 1
 252 608 l 1
 271 697 l 1
 873 1132 l 1
 831 933 l 1
 440 652 l 1
 711 371 l 1
 669 172 l 1
EndSplineSet
EndChar
StartChar: guilsinglright
Encoding: 234 8250 236
OldEncoding: 8250
Width: 784
Flags: HW
Fore
790 608 m 1
 187 172 l 1
 229 371 l 1
 620 652 l 1
 349 933 l 1
 391 1132 l 1
 809 697 l 1
 790 608 l 1
EndSplineSet
EndChar
StartChar: uni203E
Encoding: 236 8254 238
OldEncoding: 8254
Width: 1118
Flags: HW
Fore
1470 1658 m 1
 304 1658 l 1
 332 1789 l 1
 1498 1789 l 1
 1470 1658 l 1
EndSplineSet
EndChar
StartChar: fraction
Encoding: 237 8260 239
OldEncoding: 8260
Width: 886
Flags: HW
Fore
1232 1489 m 1
 136 0 l 1
 -29 0 l 1
 1067 1489 l 1
 1232 1489 l 1
EndSplineSet
EndChar
StartChar: uni207F
Encoding: 238 8319 240
OldEncoding: 8319
Width: 1010
Flags: HW
Fore
1010 566 m 1
 838 566 l 1
 949 1088 l 2
 959 1135 966 1176 971 1210 c 128
 976 1244 974 1273 966 1298 c 0
 959 1322 945 1340 924 1351 c 128
 902 1362 871 1368 831 1368 c 0
 789 1368 746 1357 700 1336 c 128
 656 1314 609 1287 562 1254 c 1
 416 566 l 1
 245 566 l 1
 441 1488 l 1
 612 1488 l 1
 591 1388 l 1
 648 1430 702 1462 752 1485 c 128
 802 1508 854 1519 908 1519 c 0
 1005 1519 1073 1489 1114 1428 c 128
 1154 1368 1162 1280 1137 1163 c 2
 1010 566 l 1
EndSplineSet
EndChar
StartChar: uni25CC
Encoding: 239 9676 241
OldEncoding: 9676
Width: 1247
Flags: HW
Fore
340 928 m 0
 343 945 352 960 366 972 c 128
 380 983 396 989 413 989 c 0
 430 989 444 983 452 972 c 128
 462 960 464 945 461 928 c 0
 457 911 448 896 434 885 c 128
 420 874 404 868 387 868 c 0
 370 868 356 874 348 885 c 128
 338 896 336 911 340 928 c 0
559 1071 m 0
 563 1088 572 1103 586 1114 c 128
 599 1126 615 1132 632 1132 c 0
 649 1132 663 1126 672 1114 c 128
 681 1103 684 1088 680 1071 c 0
 677 1054 668 1039 654 1028 c 128
 639 1017 623 1011 606 1011 c 0
 589 1011 576 1017 567 1028 c 128
 558 1039 556 1054 559 1071 c 0
800 1139 m 0
 803 1156 812 1171 826 1182 c 128
 840 1194 856 1200 873 1200 c 0
 890 1200 904 1194 912 1182 c 128
 922 1171 924 1156 921 1139 c 0
 917 1122 908 1107 894 1096 c 128
 880 1085 864 1079 847 1079 c 0
 830 1079 816 1085 808 1096 c 128
 798 1107 796 1122 800 1139 c 0
129 505 m 0
 132 522 141 537 155 548 c 128
 169 560 185 566 202 566 c 0
 219 566 232 560 242 548 c 128
 250 537 253 522 250 505 c 0
 246 488 237 473 223 462 c 128
 209 451 193 445 176 445 c 0
 159 445 146 451 136 462 c 128
 128 473 125 488 129 505 c 0
208 309 m 0
 212 326 221 341 234 352 c 128
 248 364 264 370 281 370 c 0
 298 370 312 364 321 352 c 128
 330 341 333 326 329 309 c 0
 326 292 317 277 302 266 c 128
 288 255 272 249 255 249 c 0
 238 249 225 255 216 266 c 128
 207 277 205 292 208 309 c 0
319 158 m 0
 323 175 332 190 346 202 c 128
 359 213 375 219 392 219 c 0
 409 219 423 213 432 202 c 128
 441 190 444 175 440 158 c 0
 437 141 428 126 414 115 c 128
 399 104 383 98 366 98 c 0
 349 98 336 104 327 115 c 128
 318 126 316 141 319 158 c 0
565 67 m 0
 568 84 577 99 591 110 c 128
 605 122 621 128 638 128 c 0
 655 128 668 122 678 110 c 128
 686 99 689 84 686 67 c 0
 682 50 673 35 659 24 c 128
 645 13 629 7 612 7 c 0
 595 7 582 13 572 24 c 128
 564 35 561 50 565 67 c 0
872 128 m 0
 875 145 884 160 898 172 c 128
 912 183 928 189 945 189 c 0
 962 189 976 183 984 172 c 128
 994 160 996 145 993 128 c 0
 989 111 980 96 966 85 c 128
 952 74 936 68 919 68 c 0
 902 68 888 74 880 85 c 128
 870 96 868 111 872 128 c 0
1073 294 m 0
 1077 311 1086 326 1100 338 c 128
 1113 349 1129 355 1146 355 c 0
 1163 355 1177 349 1186 338 c 128
 1195 326 1198 311 1194 294 c 0
 1190 277 1181 262 1167 251 c 128
 1153 240 1137 234 1120 234 c 0
 1103 234 1090 240 1080 251 c 128
 1072 262 1069 277 1073 294 c 0
1191 498 m 0
 1195 515 1204 530 1218 542 c 128
 1231 553 1247 559 1264 559 c 0
 1281 559 1295 553 1304 542 c 128
 1313 530 1316 515 1312 498 c 0
 1309 481 1300 466 1286 455 c 128
 1272 444 1256 438 1239 438 c 0
 1222 438 1208 444 1200 455 c 128
 1190 466 1188 481 1191 498 c 0
1229 739 m 0
 1232 756 1241 771 1255 782 c 128
 1269 794 1285 800 1302 800 c 0
 1319 800 1332 794 1342 782 c 128
 1350 771 1353 756 1350 739 c 0
 1346 722 1337 707 1323 696 c 128
 1309 685 1293 679 1276 679 c 0
 1259 679 1246 685 1236 696 c 128
 1228 707 1225 722 1229 739 c 0
1167 951 m 0
 1170 968 1179 983 1193 994 c 128
 1207 1006 1223 1012 1240 1012 c 0
 1257 1012 1270 1006 1280 994 c 128
 1288 983 1291 968 1288 951 c 0
 1284 934 1275 919 1261 908 c 128
 1247 897 1231 891 1214 891 c 0
 1197 891 1184 897 1174 908 c 128
 1166 919 1163 934 1167 951 c 0
1009 1094 m 0
 1013 1111 1022 1126 1036 1138 c 128
 1049 1149 1065 1155 1082 1155 c 0
 1099 1155 1113 1149 1122 1138 c 128
 1131 1126 1134 1111 1130 1094 c 0
 1127 1077 1118 1062 1104 1051 c 128
 1089 1040 1073 1034 1056 1034 c 0
 1039 1034 1026 1040 1017 1051 c 128
 1008 1062 1006 1077 1009 1094 c 0
194 739 m 0
 197 756 206 771 220 782 c 128
 234 794 250 800 267 800 c 0
 284 800 298 794 306 782 c 128
 316 771 318 756 315 739 c 0
 311 722 302 707 288 696 c 128
 274 685 258 679 241 679 c 0
 224 679 210 685 202 696 c 128
 192 707 190 722 194 739 c 0
EndSplineSet
EndChar
StartChar: uniF700
Encoding: 240 63232 242
OldEncoding: 63232
Width: 1100
Flags: HW
Fore
798 529 m 1
 805 562 796 587 769 603 c 1
 697 636 l 1
 596 672 428 707 194 742 c 1
 231 829 273 901 321 957 c 0
 371 1016 433 1063 506 1099 c 0
 574 1132 655 1149 750 1149 c 0
 827 1149 895 1134 955 1103 c 0
 1006 1077 1063 1064 1125 1064 c 0
 1152 1064 1177 1067 1201 1072 c 1
 1118 862 l 1
 1100 858 1080 856 1057 856 c 0
 1036 855 1014 857 992 861 c 0
 952 867 920 876 896 889 c 0
 841 918 781 935 714 940 c 2
 695 941 l 2
 622 941 573 925 546 892 c 1
 741 853 869 815 930 778 c 0
 1013 728 1046 660 1027 573 c 1
 965 279 l 1
 924 86 810 -10 623 -10 c 0
 436 -10 364 88 406 283 c 1
 407 289 l 1
 395 278 381 271 364 266 c 0
 349 262 335 260 322 260 c 0
 283 261 252 277 227 308 c 0
 200 341 193 385 204 440 c 0
 225 537 275 603 356 639 c 0
 381 650 408 657 436 661 c 0
 522 672 586 655 629 610 c 1
 664 569 674 510 658 433 c 1
 626 283 l 1
 615 234 630 210 670 210 c 0
 710 210 735 233 745 279 c 1
 798 529 l 1
406 541 m 0
 382 541 361 528 342 502 c 0
 333 489 326 475 323 460 c 0
 323 459 323 457 322 456 c 0
 313 405 327 377 362 373 c 0
 365 372 368 372 371 372 c 0
 407 375 430 400 441 448 c 0
 442 452 442 456 443 461 c 0
 454 514 442 541 406 541 c 0
EndSplineSet
EndChar
StartChar: uniF701
Encoding: 241 63233 243
OldEncoding: 63233
Width: 0
Flags: HW
Fore
-193 1155 m 1
 -312 1182 -499 1209 -756 1234 c 0
 -927 1251 -1066 1259 -1172 1259 c 1
 -1139 1326 -1079 1393 -994 1461 c 0
 -952 1494 -911 1522 -871 1543 c 0
 -789 1586 -701 1607 -607 1607 c 0
 -585 1607 -563 1606 -541 1603 c 0
 -456 1593 -380 1559 -315 1502 c 0
 -282 1469 l 0
 -219 1398 -190 1294 -193 1155 c 1
-413 1319 m 1
 -424 1360 -454 1393 -505 1418 c 0
 -536 1433 -569 1443 -606 1446 c 1
 -662 1447 l 1
 -743 1443 -810 1417 -862 1368 c 1
 -764 1368 -651 1359 -523 1340 c 0
 -477 1333 -440 1326 -413 1319 c 1
EndSplineSet
EndChar
StartChar: uniF702
Encoding: 242 63234 244
OldEncoding: 63234
Width: 0
Flags: HW
Fore
-246 1194 m 1
 -245 1183 -245 1172 -246 1162 c 1
 -361 1188 -543 1212 -790 1235 c 0
 -935 1249 -1055 1256 -1150 1257 c 0
 -1160 1257 -1160 1257 -1169 1257 c 1
 -1127 1340 -1061 1411 -970 1471 c 0
 -864 1541 -753 1576 -636 1576 c 0
 -529 1576 -447 1551 -389 1502 c 0
 -382 1495 -374 1488 -367 1480 c 1
 -327 1669 l 1
 -145 1669 l 1
 -246 1194 l 1
-460 1321 m 1
 -469 1354 -497 1382 -544 1405 c 1
 -573 1420 -603 1429 -635 1432 c 1
 -689 1433 l 1
 -762 1428 -821 1405 -866 1363 c 1
 -772 1363 -666 1354 -548 1337 c 0
 -512 1332 -483 1326 -460 1321 c 1
EndSplineSet
EndChar
StartChar: uniF703
Encoding: 243 63235 245
OldEncoding: 63235
Width: 0
Flags: HW
Fore
-461 1509 m 1
 -437 1552 -400 1585 -350 1608 c 0
 -320 1621 -290 1628 -259 1628 c 0
 -256 1628 -256 1628 -252 1628 c 0
 -193 1625 -150 1603 -123 1560 c 1
 -110 1532 l 1
 -104 1500 l 1
 -104 1464 l 1
 -107 1449 l 2
 -120 1389 -153 1341 -207 1306 c 0
 -233 1289 -261 1277 -292 1271 c 0
 -306 1269 -320 1268 -333 1268 c 1
 -330 1251 -330 1220 -331 1175 c 1
 -447 1200 -628 1225 -875 1248 c 0
 -1021 1261 -1141 1268 -1236 1269 c 0
 -1243 1270 -1249 1270 -1255 1270 c 1
 -1211 1355 -1141 1428 -1044 1487 c 0
 -937 1553 -821 1586 -698 1587 c 0
 -686 1587 -674 1587 -661 1586 c 0
 -573 1581 -509 1558 -469 1517 c 0
 -461 1509 l 1
-279 1505 m 2
 -306 1505 -327 1494 -343 1472 c 1
 -352 1454 l 2
 -353 1451 -354 1449 -355 1446 c 0
 -360 1420 -353 1401 -332 1390 c 0
 -323 1386 -314 1384 -304 1384 c 0
 -273 1384 -250 1397 -235 1422 c 0
 -231 1429 -228 1437 -226 1446 c 0
 -221 1473 -229 1491 -252 1501 c 1
 -275 1505 l 1
 -279 1505 l 2
-550 1323 m 1
 -560 1356 -586 1386 -627 1413 c 0
 -656 1432 -687 1444 -720 1447 c 1
 -760 1446 l 1
 -814 1440 -865 1423 -913 1394 c 1
 -939 1375 l 1
 -949 1366 l 1
 -858 1366 -756 1357 -641 1340 c 0
 -603 1335 -573 1329 -550 1323 c 1
EndSplineSet
EndChar
StartChar: uniF704
Encoding: 244 63236 246
OldEncoding: 63236
Width: 0
Flags: HW
Fore
-470 1532 m 1
 -455 1528 -443 1516 -432 1496 c 1
 -395 1667 l 1
 -225 1667 l 1
 -318 1230 l 1
 -328 1173 l 1
 -434 1197 -607 1221 -846 1244 c 0
 -1006 1260 -1133 1268 -1228 1268 c 1
 -1181 1354 -1112 1426 -1020 1484 c 0
 -920 1547 -815 1579 -704 1579 c 0
 -698 1579 l 0
 -681 1579 -661 1576 -638 1570 c 1
 -617 1668 l 1
 -441 1668 l 1
 -470 1532 l 1
-512 1315 m 1
 -529 1378 -570 1419 -635 1440 c 0
 -656 1446 -677 1450 -700 1451 c 1
 -760 1451 l 1
 -812 1443 l 1
 -869 1430 -919 1403 -961 1362 c 2
 -964 1359 l 1
 -817 1353 -683 1341 -563 1324 c 0
 -539 1321 -522 1318 -512 1315 c 1
EndSplineSet
EndChar
StartChar: uniF705
Encoding: 245 63237 247
OldEncoding: 63237
Width: 0
Flags: HW
Fore
-314 1582 m 1
 -83 1582 l 1
 -143 1302 l 1
 -374 1302 l 1
 -314 1582 l 1
EndSplineSet
EndChar
StartChar: uniF706
Encoding: 246 63238 248
OldEncoding: 63238
Width: 0
Flags: HW
Fore
38 1551 m 1
 -23 1416 -131 1305 -285 1220 c 0
 -383 1165 -490 1129 -605 1111 c 0
 -637 1106 -674 1102 -715 1098 c 1
 -692 1205 l 1
 -645 1216 -612 1235 -594 1262 c 0
 -591 1267 -587 1273 -584 1280 c 1
 -599 1275 -614 1273 -629 1273 c 0
 -649 1272 -667 1277 -683 1286 c 1
 -704 1301 l 2
 -709 1305 -713 1310 -716 1315 c 0
 -737 1345 -743 1382 -734 1425 c 1
 -721 1475 -691 1514 -646 1541 c 0
 -619 1556 -592 1564 -564 1565 c 1
 -525 1562 l 1
 -472 1553 -436 1526 -417 1482 c 0
 -406 1458 -403 1432 -408 1404 c 1
 -418 1361 l 1
 -436 1320 l 1
 -442 1310 l 1
 -387 1321 -332 1348 -279 1389 c 0
 -258 1405 -239 1422 -222 1441 c 0
 -190 1476 -164 1512 -143 1551 c 1
 38 1551 l 1
-595 1361 m 0
 -575 1361 -558 1370 -543 1389 c 0
 -537 1397 -533 1406 -531 1415 c 0
 -527 1434 -533 1449 -549 1460 c 0
 -556 1465 -563 1468 -572 1468 c 0
 -594 1468 -612 1458 -627 1439 c 1
 -636 1421 l 2
 -639 1415 l 0
 -644 1392 -636 1375 -617 1365 c 0
 -610 1362 -603 1361 -595 1361 c 0
EndSplineSet
EndChar
StartChar: uniF707
Encoding: 247 63239 249
OldEncoding: 63239
Width: 0
Flags: HW
Fore
-772 1302 m 1
 -769 1318 -775 1330 -789 1337 c 1
 -807 1340 l 1
 -808 1340 l 2
 -823 1339 -835 1331 -846 1315 c 1
 -853 1299 l 1
 -854 1298 l 1
 -857 1281 -851 1270 -837 1263 c 0
 -833 1261 -828 1260 -823 1260 c 0
 -806 1260 -791 1269 -779 1287 c 1
 -772 1302 l 1
-301 1422 m 1
 -150 1673 l 1
 29 1673 l 2
 28 1673 -38 1561 -171 1336 c 0
 -222 1251 -316 1199 -453 1181 c 0
 -478 1178 -502 1176 -526 1176 c 1
 -492 1215 -470 1258 -460 1306 c 0
 -447 1365 -453 1415 -478 1454 c 0
 -485 1465 -492 1474 -501 1480 c 1
 -668 1362 l 1
 -748 1450 l 1
 -782 1479 l 1
 -783 1480 l 1
 -809 1471 -832 1453 -851 1426 c 0
 -854 1423 -856 1419 -858 1416 c 0
 -861 1410 -864 1401 -868 1390 c 1
 -843 1409 -815 1418 -784 1418 c 0
 -736 1418 -707 1397 -698 1355 c 1
 -696 1330 l 1
 -700 1297 l 1
 -710 1254 -734 1221 -773 1198 c 1
 -790 1190 l 2
 -816 1178 -845 1172 -878 1172 c 0
 -906 1172 -931 1176 -953 1185 c 0
 -998 1204 -1025 1242 -1032 1299 c 0
 -1036 1326 -1035 1355 -1028 1386 c 0
 -1026 1395 -1024 1403 -1021 1412 c 0
 -1004 1476 -956 1535 -879 1590 c 0
 -836 1620 -791 1643 -745 1658 c 1
 -630 1540 l 1
 -463 1658 l 1
 -402 1636 -355 1600 -323 1550 c 0
 -298 1511 -289 1473 -297 1435 c 1
 -301 1422 l 1
EndSplineSet
EndChar
StartChar: uniF708
Encoding: 248 63240 250
OldEncoding: 63240
Width: 0
Flags: HW
Fore
-224 1151 m 1
 -347 1151 l 1
 -373 1028 l 1
 -545 1028 l 1
 -519 1151 l 1
 -650 1151 l 1
 -613 1325 l 1
 -482 1325 l 1
 -454 1454 l 1
 -282 1454 l 1
 -310 1325 l 1
 -187 1325 l 1
 -224 1151 l 1
EndSplineSet
EndChar
StartChar: uniF709
Encoding: 249 63241 251
OldEncoding: 63241
Width: 0
Flags: HW
Fore
-15 1740 m 1
 -46 1685 -100 1631 -175 1580 c 0
 -227 1545 -282 1518 -339 1501 c 0
 -362 1494 -382 1490 -400 1489 c 1
 -370 1472 -354 1438 -353 1388 c 1
 -357 1360 l 1
 -363 1335 -380 1305 -407 1270 c 1
 -434 1233 -478 1208 -537 1196 c 0
 -550 1194 -562 1193 -573 1192 c 1
 -615 1195 l 1
 -670 1204 -710 1222 -734 1251 c 2
 -736 1254 l 2
 -760 1287 -769 1327 -762 1376 c 1
 -756 1402 l 1
 -738 1462 -707 1508 -663 1540 c 0
 -623 1569 -552 1594 -451 1615 c 0
 -407 1624 -380 1631 -369 1634 c 0
 -318 1650 -272 1673 -231 1704 c 0
 -215 1717 -203 1729 -195 1740 c 1
 -15 1740 l 1
-545 1428 m 0
 -574 1428 -597 1417 -614 1395 c 0
 -621 1386 -626 1375 -629 1364 c 0
 -632 1347 -627 1333 -613 1320 c 0
 -601 1309 -586 1304 -567 1304 c 1
 -534 1309 -511 1323 -496 1346 c 0
 -492 1353 -489 1359 -488 1366 c 0
 -482 1395 -492 1414 -517 1423 c 0
 -525 1426 -534 1428 -545 1428 c 0
EndSplineSet
EndChar
StartChar: uniF70A
Encoding: 250 63242 252
OldEncoding: 63242
Width: 0
Flags: HW
Fore
-12 1589 m 1
 218 1589 l 1
 159 1309 l 1
 -71 1309 l 1
 -12 1589 l 1
EndSplineSet
EndChar
StartChar: uniF70B
Encoding: 251 63243 253
OldEncoding: 63243
Width: 0
Flags: HW
Fore
290 1698 m 1
 228 1563 120 1452 -33 1367 c 0
 -130 1312 -237 1276 -353 1258 c 0
 -385 1253 -422 1249 -463 1245 c 1
 -440 1352 l 1
 -393 1363 -360 1382 -342 1409 c 0
 -338 1414 -335 1420 -332 1427 c 1
 -347 1422 -362 1420 -377 1420 c 0
 -397 1419 -415 1424 -431 1433 c 1
 -452 1448 l 1
 -456 1452 -460 1457 -464 1462 c 0
 -485 1492 -490 1529 -481 1572 c 1
 -468 1622 -439 1661 -394 1688 c 0
 -367 1703 -340 1711 -312 1712 c 1
 -273 1709 l 1
 -220 1700 -184 1673 -165 1629 c 0
 -154 1605 -151 1579 -156 1551 c 1
 -166 1508 l 1
 -184 1467 l 1
 -190 1457 l 1
 -135 1468 -80 1495 -27 1536 c 0
 -7 1552 12 1569 29 1588 c 0
 61 1623 87 1659 108 1698 c 1
 290 1698 l 1
-343 1508 m 0
 -323 1508 -306 1517 -291 1536 c 0
 -284 1544 -280 1553 -278 1562 c 0
 -275 1581 -281 1596 -297 1607 c 0
 -304 1612 -311 1615 -320 1615 c 0
 -342 1615 -360 1605 -374 1586 c 1
 -384 1568 l 2
 -385 1566 -386 1564 -386 1562 c 0
 -391 1539 -384 1522 -365 1512 c 0
 -358 1509 -351 1508 -343 1508 c 0
EndSplineSet
EndChar
StartChar: uniF70C
Encoding: 252 63244 254
OldEncoding: 63244
Width: 0
Flags: HW
Fore
-251 1377 m 0
 -251 1401 -259 1414 -275 1416 c 1
 -287 1415 l 1
 -306 1410 -320 1400 -329 1385 c 1
 -333 1373 l 1
 -332 1348 -322 1335 -302 1335 c 0
 -285 1335 -271 1343 -259 1359 c 0
 -254 1364 -252 1370 -251 1377 c 0
219 1497 m 1
 370 1748 l 1
 550 1748 l 2
 549 1748 482 1636 349 1411 c 0
 298 1326 204 1274 66 1256 c 0
 42 1253 18 1251 -5 1251 c 1
 28 1290 50 1333 60 1381 c 0
 73 1440 66 1490 41 1529 c 1
 35 1540 28 1549 19 1555 c 1
 -147 1437 l 1
 -227 1525 l 1
 -261 1554 l 1
 -262 1555 l 1
 -288 1546 -311 1528 -330 1501 c 1
 -333 1498 -335 1495 -336 1492 c 0
 -339 1485 -343 1477 -347 1466 c 1
 -322 1484 -294 1493 -263 1493 c 0
 -215 1493 -187 1472 -178 1430 c 1
 -175 1405 l 1
 -179 1372 l 1
 -188 1329 -212 1297 -251 1274 c 0
 -269 1265 l 0
 -295 1253 -324 1247 -357 1247 c 0
 -385 1247 -410 1251 -432 1260 c 0
 -477 1279 -504 1317 -511 1374 c 0
 -515 1401 -514 1430 -507 1461 c 0
 -505 1470 -503 1478 -500 1487 c 0
 -483 1551 -435 1610 -358 1665 c 0
 -315 1695 -270 1718 -224 1733 c 1
 -109 1615 l 1
 57 1733 l 1
 118 1711 165 1675 197 1625 c 0
 222 1586 231 1548 222 1510 c 2
 219 1497 l 1
EndSplineSet
EndChar
StartChar: uniF70D
Encoding: 253 63245 255
OldEncoding: 63245
Width: 0
Flags: HW
Fore
242 1348 m 1
 119 1348 l 1
 93 1225 l 1
 -78 1225 l 1
 -52 1348 l 1
 -183 1348 l 1
 -146 1522 l 1
 -15 1522 l 1
 11 1651 l 1
 183 1651 l 1
 156 1522 l 1
 279 1522 l 1
 242 1348 l 1
EndSplineSet
EndChar
StartChar: uniF70E
Encoding: 254 63246 256
OldEncoding: 63246
Width: 0
Flags: HW
Fore
341 1798 m 1
 309 1743 256 1689 181 1638 c 0
 128 1603 73 1576 16 1559 c 0
 -5 1552 -25 1548 -44 1547 c 1
 -14 1530 1 1496 2 1446 c 1
 -1 1418 l 1
 -7 1393 -23 1363 -50 1328 c 0
 -78 1291 -122 1266 -181 1254 c 0
 -194 1252 -206 1251 -217 1250 c 1
 -259 1253 l 1
 -314 1262 -353 1280 -377 1309 c 2
 -380 1312 l 1
 -403 1345 -412 1385 -406 1434 c 1
 -400 1460 l 1
 -382 1520 -351 1566 -307 1598 c 0
 -266 1627 -196 1652 -95 1673 c 0
 -51 1682 -24 1689 -13 1692 c 0
 38 1708 83 1731 124 1762 c 0
 140 1775 152 1787 161 1798 c 1
 341 1798 l 1
-189 1486 m 0
 -218 1486 -241 1475 -258 1453 c 0
 -265 1444 -270 1433 -272 1422 c 0
 -275 1406 -270 1392 -257 1379 c 0
 -246 1368 -230 1362 -211 1362 c 1
 -178 1367 -155 1381 -140 1404 c 0
 -136 1411 -133 1417 -132 1424 c 0
 -126 1453 -136 1472 -161 1481 c 0
 -169 1484 -178 1486 -189 1486 c 0
EndSplineSet
EndChar
